SplineFontDB: 3.0
FontName: MrDafoe-Regular
FullName: Mr Dafoe Regular
FamilyName: Mr Dafoe
Weight: Normal
Copyright: Copyright (c) 2004 Alejandro Paul (sudtipos@sudtipos.com),\nwith Reserved Font Name "Mr Dafoe"
Version: 001.001
ItalicAngle: 0
UnderlinePosition: -50
UnderlineWidth: 50
Ascent: 800
Descent: 200
sfntRevision: 0x00010000
LayerCount: 2
Layer: 0 1 "Back"  1
Layer: 1 1 "Fore"  0
NeedsXUIDChange: 1
XUID: [1021 288 713564382 12574123]
FSType: 0
OS2Version: 2
OS2_WeightWidthSlopeOnly: 0
OS2_UseTypoMetrics: 1
CreationTime: 1322382755
ModificationTime: 1322411629
PfmFamily: 17
TTFWeight: 400
TTFWidth: 5
LineGap: 0
VLineGap: 0
Panose: 2 0 0 0 0 0 0 0 0 0
OS2TypoAscent: 181
OS2TypoAOffset: 1
OS2TypoDescent: -216
OS2TypoDOffset: 1
OS2TypoLinegap: 0
OS2WinAscent: 0
OS2WinAOffset: 1
OS2WinDescent: 0
OS2WinDOffset: 1
HheadAscent: 0
HheadAOffset: 1
HheadDescent: 0
HheadDOffset: 1
OS2SubXSize: 700
OS2SubYSize: 650
OS2SubXOff: 0
OS2SubYOff: 140
OS2SupXSize: 700
OS2SupYSize: 650
OS2SupXOff: 0
OS2SupYOff: 477
OS2StrikeYSize: 50
OS2StrikeYPos: 250
OS2Vendor: 'SUDT'
OS2CodePages: 20000001.00000000
OS2UnicodeRanges: 80000027.5000004b.00000000.00000000
Lookup: 258 0 0 "'kern' Horizontal Kerning in Latin lookup 0"  {"'kern' Horizontal Kerning in Latin lookup 0 subtable"  } ['kern' ('DFLT' <'dflt' > 'latn' <'dflt' > ) ]
MarkAttachClasses: 1
DEI: 91125
TtTable: prep
PUSHW_1
 511
SCANCTRL
PUSHB_1
 4
SCANTYPE
EndTTInstrs
LangName: 1033 "" "" "" "AlejandroPaul: Mr Dafoe Regular: 2004" "MrDafoe-Regular" "Version 1.000" "" "Mr Dafoe is a trademark of Alejandro Paul." "Alejandro Paul" "Alejandro Paul" "" "http://www.sudtipos.com" "http://www.sudtipos.com" "This Font Software is licensed under the SIL Open Font License,+AA0A-Version 1.1. This license is available with a FAQ at:+AA0A-http://scripts.sil.org/OFL" "http://scripts.sil.org/OFL" 
GaspTable: 1 65535 15
Encoding: UnicodeBmp
UnicodeInterp: none
NameList: Adobe Glyph List
DisplaySize: -36
AntiAlias: 1
FitToEm: 1

StartChar: C
Encoding: 67 67 1
Width: 511
Flags: HMW
HStem: -44 92<91 111.5 91 150> 618 58<547.5 690 520.5 727.5>
VStem: 1 78<65.5 142> 743 77<588 607>
LayerCount: 2
Fore
SplineSet
1 142 m 1,0,1
 2 235 2 235 66.5 333.5 c 128,-1,2
 131 432 131 432 227 506.5 c 128,-1,3
 323 581 323 581 440 628.5 c 128,-1,4
 557 676 557 676 660 676 c 0,5,6
 719 676 719 676 769.5 651.5 c 128,-1,7
 820 627 820 627 820 577.5 c 128,-1,8
 820 528 820 528 763.5 470.5 c 128,-1,9
 707 413 707 413 628.5 372.5 c 128,-1,10
 550 332 550 332 491 332 c 0,11,12
 464 332 464 332 435 347 c 128,-1,13
 406 362 406 362 406 389 c 0,14,15
 406 404 406 404 430 415 c 1,16,17
 515 449 515 449 558 481 c 1,18,19
 567 491 567 491 571.5 491 c 128,-1,20
 576 491 576 491 576 483 c 0,21,22
 576 469 576 469 542 450 c 1,23,24
 518 432 518 432 518 430 c 128,-1,25
 518 428 518 428 519 428 c 0,26,27
 539 428 539 428 641 505 c 128,-1,28
 743 582 743 582 743 604 c 0,29,30
 743 618 743 618 716 618 c 0,31,32
 620 618 620 618 521 572.5 c 128,-1,33
 422 527 422 527 345.5 458.5 c 128,-1,34
 269 390 269 390 207 313.5 c 128,-1,35
 145 237 145 237 112 171.5 c 128,-1,36
 79 106 79 106 79 70 c 0,37,38
 79 48 79 48 100 48 c 0,39,40
 118 48 118 48 172 64 c 128,-1,41
 226 80 226 80 328.5 128 c 128,-1,42
 431 176 431 176 526 243 c 0,43,44
 533 249 533 249 535.5 249 c 128,-1,45
 538 249 538 249 538 245 c 128,-1,46
 538 241 538 241 520.5 211 c 128,-1,47
 503 181 503 181 467.5 138 c 128,-1,48
 432 95 432 95 387 54.5 c 128,-1,49
 342 14 342 14 278.5 -15 c 128,-1,50
 215 -44 215 -44 161.5 -44 c 128,-1,51
 108 -44 108 -44 77.5 -25 c 128,-1,52
 47 -6 47 -6 33 21.5 c 0,53,54
 4.38364779874 77.7106918239 4.38364779874 77.7106918239 2 123 c 2,55,-1
 1 142 l 1,0,1
EndSplineSet
EndChar

StartChar: a
Encoding: 97 97 2
Width: 390
Flags: HMW
HStem: -19 103<-1 89> 287 66
VStem: -45 119<12.5 102> 74 104<21 102>
LayerCount: 2
Fore
SplineSet
178 42 m 1,0,-1
 186 106 l 2,1,2
 186 109 186 109 184.5 109 c 128,-1,3
 183 109 183 109 179 105 c 0,4,5
 166 91 166 91 146 70.5 c 128,-1,6
 126 50 126 50 77.5 15.5 c 128,-1,7
 29 -19 29 -19 -1 -19 c 1,8,9
 -6 -18 -6 -18 -13.5 -15.5 c 128,-1,10
 -21 -13 -21 -13 -33 1 c 128,-1,11
 -45 15 -45 15 -45 41 c 128,-1,12
 -45 67 -45 67 -5.5 120.5 c 128,-1,13
 34 174 34 174 89 225.5 c 128,-1,14
 144 277 144 277 211.5 315 c 128,-1,15
 279 353 279 353 329 353 c 1,16,17
 348 352 348 352 359 326 c 1,18,19
 369 336 369 336 377 336 c 128,-1,20
 385 336 385 336 396 324 c 1,21,22
 402 323 402 323 408 317.5 c 128,-1,23
 414 312 414 312 414 302 c 128,-1,24
 414 292 414 292 400 280 c 1,25,26
 379 254 379 254 351 221 c 128,-1,27
 323 188 323 188 311 173.5 c 128,-1,28
 299 159 299 159 286 141 c 0,29,30
 263.946428571 110.464285714 263.946428571 110.464285714 262 91 c 1,31,32
 364 140 364 140 583 302 c 1,33,34
 592 295 592 295 592 285 c 128,-1,35
 592 275 592 275 584 268 c 128,-1,36
 576 261 576 261 564.5 251 c 128,-1,37
 553 241 553 241 519 212 c 128,-1,38
 485 183 485 183 453.5 156.5 c 128,-1,39
 422 130 422 130 381.5 97.5 c 128,-1,40
 341 65 341 65 309 42 c 0,41,42
 232.47826087 -13 232.47826087 -13 213.239130435 -13 c 128,-1,43
 194 -13 194 -13 186 -1 c 128,-1,44
 178 11 178 11 178 42 c 1,0,-1
76 84 m 0,45,46
 88 84 88 84 149.5 133 c 128,-1,47
 211 182 211 182 266.5 231 c 2,48,-1
 322 280 l 2,49,50
 326 284 326 284 326 285.5 c 128,-1,51
 326 287 326 287 323 287 c 0,52,53
 285 287 285 287 224 243.5 c 128,-1,54
 163 200 163 200 118.5 151.5 c 128,-1,55
 74 103 74 103 74 86 c 0,56,57
 74 84 74 84 76 84 c 0,45,46
EndSplineSet
EndChar

StartChar: c
Encoding: 99 99 3
Width: 381
Flags: HMW
HStem: -18 76<97.5 154> 203 146<297.5 314>
VStem: 6 81<72.5 104 72.5 144>
LayerCount: 2
Fore
SplineSet
420 309 m 1,0,1
 419 273 419 273 375.5 238 c 128,-1,2
 332 203 332 203 270 203 c 0,3,4
 244 203 244 203 244 218 c 0,5,6
 244 224 244 224 253 227 c 1,7,8
 313 262 313 262 329 284 c 0,9,10
 331 288 331 288 331 293 c 0,11,12
 331 298 331 298 326 298 c 0,13,14
 241 286 241 286 164 205 c 128,-1,15
 87 124 87 124 87 79 c 0,16,17
 87 58 87 58 103 58 c 0,18,19
 177 58 177 58 259 101 c 128,-1,20
 341 144 341 144 503 259 c 0,21,22
 514 267 514 267 536.5 283 c 128,-1,23
 559 299 559 299 563 302 c 1,24,25
 572 295 572 295 572 285 c 128,-1,26
 572 275 572 275 563 267 c 0,27,28
 513 217 513 217 433.5 155 c 128,-1,29
 354 93 354 93 251 37.5 c 128,-1,30
 148 -18 148 -18 83 -18 c 0,31,32
 6 -18 6 -18 6 64 c 0,33,34
 6 121 6 121 44 175.5 c 128,-1,35
 82 230 82 230 137 267 c 128,-1,36
 192 304 192 304 252 326.5 c 128,-1,37
 312 349 312 349 348.5 349 c 0,38,39
 385 349 385 349 401 339 c 128,-1,40
 417 329 417 329 418.5 319 c 2,41,-1
 420 309 l 1,0,1
EndSplineSet
EndChar

StartChar: k
Encoding: 107 107 4
Width: 393
Flags: HMW
HStem: -52 201<170 310> 588 20G<486 497 497 512>
LayerCount: 2
Fore
SplineSet
497 608 m 2,0,1
 523 608 523 608 527 596 c 1,2,3
 527 592 527 592 477.5 539.5 c 128,-1,4
 428 487 428 487 341.5 395.5 c 128,-1,5
 255 304 255 304 193 233 c 1,6,7
 189 230 189 230 189 225 c 128,-1,8
 189 220 189 220 191.5 220 c 128,-1,9
 194 220 194 220 198 224 c 2,10,-1
 236 254 l 1,11,12
 277.400843882 280.345991561 277.400843882 280.345991561 326.700421941 300.172995781 c 128,-1,13
 376 320 376 320 409 320 c 1,14,15
 429 314 429 314 446 292 c 1,16,17
 455 283 455 283 455 271 c 0,18,19
 455 235 455 235 366.5 179 c 128,-1,20
 278 123 278 123 204 112 c 0,21,22
 203 111 203 111 203 110 c 0,23,24
 203 102 203 102 250.5 53.5 c 128,-1,25
 298 5 298 5 324 -10 c 1,26,27
 345 -20 345 -20 351 -20 c 1,28,29
 355 -22 355 -22 355 -25 c 128,-1,30
 355 -28 355 -28 349 -33 c 0,31,32
 326 -52 326 -52 302 -52 c 128,-1,33
 278 -52 278 -52 269.5 -50 c 128,-1,34
 261 -48 261 -48 253 -45 c 128,-1,35
 245 -42 245 -42 233.5 -29.5 c 128,-1,36
 222 -17 222 -17 210.5 -4.5 c 128,-1,37
 199 8 199 8 173 38.5 c 128,-1,38
 147 69 147 69 119 99 c 1,39,40
 115 105 115 105 110 105 c 128,-1,41
 105 105 105 105 100 100 c 0,42,43
 38 53 38 53 18 -4 c 1,44,45
 17 -13 17 -13 6 -13 c 2,46,-1
 5 -13 l 2,47,48
 -36 -13 -36 -13 -50 31 c 1,49,50
 -50 41 -50 41 -41 59 c 1,51,52
 45 188 45 188 126.5 277 c 128,-1,53
 208 366 208 366 417 568 c 1,54,55
 437 584 437 584 443 589 c 128,-1,56
 449 594 449 594 455.5 598.5 c 128,-1,57
 462 603 462 603 465.5 604.5 c 0,58,59
 473.666666667 608 473.666666667 608 486 608 c 2,60,-1
 497 608 l 2,0,1
358 266 m 1,61,62
 338 265 338 265 291.5 238 c 128,-1,63
 245 211 245 211 208.5 184.5 c 2,64,-1
 172 158 l 2,65,66
 168 154 168 154 168 151.5 c 128,-1,67
 168 149 168 149 171 149 c 0,68,69
 195 149 195 149 278 199.5 c 128,-1,70
 361 250 361 250 361 262 c 1,71,-1
 358 266 l 1,61,62
EndSplineSet
EndChar

StartChar: e
Encoding: 101 101 5
Width: 364
Flags: HMW
HStem: -18 76<106 158 106 168> 130 51<163 177.5 162 183.5> 302 51<290.5 311.5>
VStem: 20 74<71.5 89.5 71.5 138> 316 66<285 299>
LayerCount: 2
Fore
SplineSet
310 302 m 0,0,1
 284 302 284 302 222 248.5 c 128,-1,2
 160 195 160 195 160 183 c 0,3,4
 160 181 160 181 163 181 c 0,5,6
 185 181 185 181 250.5 230 c 128,-1,7
 316 279 316 279 316 297 c 0,8,9
 316 302 316 302 310 302 c 0,0,1
97 -18 m 0,10,11
 20 -18 20 -18 20 76 c 0,12,13
 20 135 20 135 71.5 201.5 c 128,-1,14
 123 268 123 268 193 310.5 c 128,-1,15
 263 353 263 353 317 353 c 0,16,17
 341 353 341 353 361.5 334 c 128,-1,18
 382 315 382 315 382 297 c 0,19,20
 382 264 382 264 335 222.5 c 128,-1,21
 288 181 288 181 236.5 155.5 c 128,-1,22
 185 130 185 130 168.5 130 c 0,23,24
 152 130 152 130 144 145 c 1,25,26
 140 148 140 148 133 148 c 0,27,28
 126 148 126 148 110 121.5 c 128,-1,29
 94 95 94 95 94 78.5 c 0,30,31
 94 62 94 62 106 58 c 1,32,33
 182 58 182 58 271 102.5 c 128,-1,34
 360 147 360 147 517 259 c 0,35,36
 528 267 528 267 550.5 283 c 128,-1,37
 573 299 573 299 577 302 c 1,38,39
 586 295 586 295 586 285 c 128,-1,40
 586 275 586 275 577 267 c 0,41,42
 527 217 527 217 447.5 155 c 128,-1,43
 368 93 368 93 265 37.5 c 128,-1,44
 162 -18 162 -18 97 -18 c 0,10,11
EndSplineSet
EndChar

StartChar: o
Encoding: 111 111 6
Width: 328
Flags: HMW
HStem: -20 64<55.5 79> 109 51<275 304.5> 109 85<213 304.5> 328 20G<241 249.5 290 293.5>
LayerCount: 2
Fore
SplineSet
57 44 m 0,0,1
 89 44 89 44 136 86 c 128,-1,2
 183 128 183 128 185 144 c 1,3,4
 172.727272727 153.545454545 172.727272727 153.545454545 159.363636364 180.272727273 c 128,-1,5
 146 207 146 207 145 207 c 0,6,7
 114 178 114 178 90.5 139.5 c 0,8,9
 52 76.4255319149 52 76.4255319149 52 52 c 0,10,11
 52 44 52 44 57 44 c 0,0,1
273 289 m 0,12,13
 263 289 263 289 231.5 258 c 128,-1,14
 200 227 200 227 200 215 c 0,15,16
 200 212 200 212 206 203 c 128,-1,17
 212 194 212 194 215 194 c 0,18,19
 232 194 232 194 253.5 235 c 128,-1,20
 275 276 275 276 275 282.5 c 128,-1,21
 275 289 275 289 273 289 c 0,12,13
275 160 m 1,22,23
 303 160 303 160 362.5 194 c 128,-1,24
 422 228 422 228 467 262.5 c 2,25,-1
 512 297 l 1,26,27
 521 290 521 290 521 280 c 128,-1,28
 521 270 521 270 512 262 c 0,29,30
 347 109 347 109 262 109 c 0,31,32
 256 109 256 109 244 111 c 1,33,34
 131 -20 131 -20 50 -20 c 1,35,36
 -4.09405940594 -12.2722772277 -4.09405940594 -12.2722772277 -18.5 17.5 c 0,37,38
 -26 33 -26 33 -26 56 c 0,39,40
 -26 122 -26 122 50 213.5 c 128,-1,41
 126 305 126 305 241 348 c 1,42,43
 251 348 251 348 256 343.5 c 128,-1,44
 261 339 261 339 265 338.5 c 128,-1,45
 269 338 269 338 275.5 342.5 c 128,-1,46
 282 347 282 347 293 347.5 c 128,-1,47
 304 348 304 348 316 335 c 1,48,49
 332 322 332 322 332 303 c 0,50,51
 332 247 332 247 275 160 c 1,22,23
EndSplineSet
EndChar

StartChar: m
Encoding: 109 109 7
Width: 643
Flags: HMW
HStem: -32 21G<419 436> 320 20G<586.5 594.5>
LayerCount: 2
Fore
SplineSet
444 62 m 0,0,1
 444 53 444 53 455.5 53 c 128,-1,2
 467 53 467 53 497.5 67 c 128,-1,3
 528 81 528 81 570.5 110 c 128,-1,4
 613 139 613 139 683.5 192.5 c 128,-1,5
 754 246 754 246 807 283 c 1,6,7
 816 276 816 276 816 266 c 128,-1,8
 816 256 816 256 807 248 c 0,9,10
 775 217 775 217 726 170.5 c 128,-1,11
 677 124 677 124 576.5 46 c 128,-1,12
 476 -32 476 -32 436 -32 c 0,13,14
 359 -32 359 -32 359 50 c 0,15,16
 359 81 359 81 383 115 c 2,17,-1
 426 174 l 2,18,19
 432 183 432 183 432 184.4 c 128,-1,20
 432 185.8 432 185.8 426 181 c 0,21,22
 252 36 252 36 204 11 c 0,23,24
 196 6 196 6 184 6 c 0,25,26
 151 6 151 6 151 36 c 0,27,28
 151 46 151 46 156 54 c 0,29,30
 214 138 214 138 245 167 c 1,31,-1
 262 184 l 2,32,33
 264 186 264 186 264 188 c 128,-1,34
 264 190 264 190 262 190 c 128,-1,35
 260 190 260 190 256 186 c 2,36,-1
 149 102 l 2,37,38
 56.3865030675 29.3619631902 56.3865030675 29.3619631902 47.6932515337 24.6809815951 c 128,-1,39
 39 20 39 20 32 20 c 128,-1,40
 25 20 25 20 10 28.5 c 128,-1,41
 -5 37 -5 37 -5 48 c 0,42,43
 -5 51 -5 51 -2 56 c 1,44,45
 95.5382685069 163.91468005 95.5382685069 163.91468005 141 234.5 c 0,46,47
 160 264 160 264 174.5 287.5 c 128,-1,48
 189 311 189 311 197.5 321 c 128,-1,49
 206 331 206 331 216 331 c 128,-1,50
 226 331 226 331 238.5 319.5 c 128,-1,51
 251 308 251 308 251 296 c 128,-1,52
 251 284 251 284 243 271 c 0,53,54
 209 210 209 210 190 192 c 0,55,56
 187 189 187 189 187 186.5 c 128,-1,57
 187 184 187 184 189 184 c 2,58,-1
 192 185 l 1,59,-1
 326 278 l 2,60,61
 377 313 377 313 387 313 c 128,-1,62
 397 313 397 313 408.5 306.5 c 128,-1,63
 420 300 420 300 420 292 c 128,-1,64
 420 284 420 284 415 276 c 2,65,-1
 350 187 l 1,66,67
 337 171 337 171 337 169 c 128,-1,68
 337 167 337 167 338 167 c 2,69,-1
 343 170 l 1,70,71
 468 255 468 255 512.5 288 c 128,-1,72
 557 321 557 321 566 330 c 1,73,74
 580 340 580 340 589.5 340 c 128,-1,75
 599 340 599 340 602 338 c 2,76,-1
 624 321 l 1,77,78
 634 316 634 316 634 308 c 128,-1,79
 634 300 634 300 630 295 c 0,80,81
 571.351351351 230.675675676 571.351351351 230.675675676 535.675675676 192.837837838 c 128,-1,82
 500 155 500 155 484.5 137 c 0,83,84
 457.643564356 105.811881188 457.643564356 105.811881188 452 87 c 1,85,86
 444 73 444 73 444 62 c 0,0,1
EndSplineSet
EndChar

StartChar: n
Encoding: 110 110 8
Width: 460
Flags: HMW
HStem: -32 21G<253 270> 311 20G<205.5 221.5>
VStem: 193 85<15.5 91.5>
LayerCount: 2
Fore
SplineSet
219 331 m 0,0,1
 227 331 227 331 245.5 323 c 128,-1,2
 264 315 264 315 264 305 c 0,3,4
 264 298 264 298 259 291 c 2,5,-1
 184 187 l 1,6,7
 171 171 171 171 171 169 c 128,-1,8
 171 167 171 167 172 167 c 2,9,-1
 177 170 l 1,10,11
 293 251 293 251 368 312 c 1,12,13
 382 322 382 322 391.5 322 c 128,-1,14
 401 322 401 322 404 320 c 1,15,-1
 432 312 l 1,16,17
 442 307 442 307 442 299 c 128,-1,18
 442 291 442 291 438 286 c 0,19,20
 419 265 419 265 394.5 238.5 c 128,-1,21
 370 212 370 212 358 198.5 c 128,-1,22
 346 185 346 185 331 168 c 128,-1,23
 316 151 316 151 309.5 142 c 128,-1,24
 303 133 303 133 295 121.5 c 128,-1,25
 287 110 287 110 284.5 101.5 c 0,26,27
 278 79.4 278 79.4 278 62 c 0,28,29
 278 53 278 53 289.5 53 c 128,-1,30
 301 53 301 53 331.5 67 c 128,-1,31
 362 81 362 81 404.5 110 c 128,-1,32
 447 139 447 139 517.5 192.5 c 128,-1,33
 588 246 588 246 641 283 c 1,34,35
 650 276 650 276 650 266 c 128,-1,36
 650 256 650 256 641 248 c 0,37,38
 609 217 609 217 560 170.5 c 128,-1,39
 511 124 511 124 410.5 46 c 128,-1,40
 310 -32 310 -32 270 -32 c 0,41,42
 193 -32 193 -32 193 50 c 0,43,44
 193 81 193 81 217 115 c 2,45,-1
 260 174 l 2,46,47
 266 183 266 183 266 184.4 c 128,-1,48
 266 185.8 266 185.8 260 181 c 0,49,50
 86 36 86 36 38 11 c 0,51,52
 30 6 30 6 18 6 c 0,53,54
 -15 6 -15 6 -15 36 c 0,55,56
 -15 46 -15 46 -10 54 c 1,57,58
 64 122 64 122 94 165 c 1,59,60
 118 189 118 189 144.5 232 c 128,-1,61
 171 275 171 275 189.5 303 c 128,-1,62
 208 331 208 331 219 331 c 0,0,1
EndSplineSet
EndChar

StartChar: p
Encoding: 112 112 9
Width: 436
Flags: HMW
HStem: -339 21G<-244.5 -237> -21 51<140.5 143 106 209> 218 60<355.5 381> 218 234<355.5 369.5 328.5 381>
VStem: 383 72<197 216>
LayerCount: 2
Fore
SplineSet
108 30 m 0,0,1
 141 30 141 30 208.5 68.5 c 128,-1,2
 276 107 276 107 329.5 152 c 128,-1,3
 383 197 383 197 383 215 c 0,4,5
 383 218 383 218 380 218 c 0,6,7
 358 218 358 218 287.5 173.5 c 128,-1,8
 217 129 217 129 157 83.5 c 128,-1,9
 97 38 97 38 97 34 c 128,-1,10
 97 30 97 30 108 30 c 0,0,1
362 452 m 0,11,12
 373 452 373 452 386 435.5 c 128,-1,13
 399 419 399 419 399 411 c 128,-1,14
 399 403 399 403 396 400 c 0,15,16
 327 340 327 340 262 274 c 128,-1,17
 197 208 197 208 166.5 172 c 2,18,-1
 136 136 l 2,19,20
 128 128 128 128 128 125 c 128,-1,21
 128 122 128 122 130 122 c 128,-1,22
 132 122 132 122 135 125 c 2,23,-1
 143.5 132.5 l 2,24,25
 308.4 278 308.4 278 399 278 c 0,26,27
 411 278 411 278 421 271 c 0,28,29
 455 243 455 243 455 207.5 c 128,-1,30
 455 172 455 172 404.5 117 c 128,-1,31
 354 62 354 62 280 20.5 c 128,-1,32
 206 -21 206 -21 156.5 -21 c 128,-1,33
 107 -21 107 -21 91 5 c 1,34,-1
 80 21 l 2,35,36
 79 22 79 22 77 22 c 0,37,38
 55 22 55 22 -68.5 -118 c 128,-1,39
 -192 -258 -192 -258 -227 -321 c 1,40,41
 -231 -339 -231 -339 -243 -339 c 0,42,43
 -249 -339 -249 -339 -254 -335 c 2,44,-1
 -299 -300 l 2,45,46
 -303 -298 -303 -298 -303 -291 c 0,47,48
 -303 -279 -303 -279 -151.5 -94.5 c 128,-1,49
 0 90 0 90 166 271 c 128,-1,50
 332 452 332 452 362 452 c 0,11,12
EndSplineSet
EndChar

StartChar: q
Encoding: 113 113 10
Width: 314
Flags: HMW
HStem: -413 83<-98 -84 -98 -77.5> 38 89<21 103> 274 60<281 314>
VStem: -171 71<-328 -310 -328 -266.5> 139 22<-81.5 -48.5 -142 -32.5>
LayerCount: 2
Fore
SplineSet
378 291 m 1,0,-1
 372 281 l 1,1,2
 372 279 372 279 377 275 c 128,-1,3
 382 271 382 271 382 264 c 128,-1,4
 382 257 382 257 295 163.5 c 128,-1,5
 208 70 208 70 142 -1 c 1,6,7
 161 -26 161 -26 161 -73.5 c 128,-1,8
 161 -121 161 -121 127.5 -184 c 128,-1,9
 94 -247 94 -247 49.5 -296 c 128,-1,10
 5 -345 5 -345 -40 -379 c 128,-1,11
 -85 -413 -85 -413 -109.5 -413 c 128,-1,12
 -134 -413 -134 -413 -152.5 -386 c 128,-1,13
 -171 -359 -171 -359 -171 -319 c 0,14,15
 -171 -206 -171 -206 16 -29 c 1,16,-1
 189 126 l 2,17,18
 195 132 195 132 199 137 c 128,-1,19
 203 142 203 142 205.5 145 c 128,-1,20
 208 148 208 148 206.5 148 c 128,-1,21
 205 148 205 148 190.5 135.5 c 128,-1,22
 176 123 176 123 151 104 c 128,-1,23
 126 85 126 85 87 61.5 c 128,-1,24
 48 38 48 38 29 38 c 0,25,26
 -12 38 -12 38 -14 93 c 1,27,28
 -13 137 -13 137 42 194 c 128,-1,29
 97 251 97 251 179.5 292.5 c 128,-1,30
 262 334 262 334 334 334 c 0,31,32
 341 334 341 334 358.5 319 c 128,-1,33
 376 304 376 304 378 291 c 1,0,-1
-97 -330 m 0,34,35
 -83 -330 -83 -330 -26 -276.5 c 128,-1,36
 31 -223 31 -223 85 -150 c 128,-1,37
 139 -77 139 -77 139 -36 c 1,38,-1
 138 -25 l 1,39,40
 135 -15 135 -15 132 -15 c 1,41,42
 88.5384615385 -58.4615384615 88.5384615385 -58.4615384615 -5.73076923077 -181.230769231 c 128,-1,43
 -100 -304 -100 -304 -100 -327 c 0,44,45
 -100 -330 -100 -330 -97 -330 c 0,34,35
87 127 m 0,46,47
 111 127 111 127 214 192.5 c 128,-1,48
 317 258 317 258 317 272 c 0,49,50
 317 274 317 274 313 274 c 0,51,52
 270 274 270 274 177.5 209.5 c 128,-1,53
 85 145 85 145 85 128 c 0,54,55
 85 127 85 127 87 127 c 0,46,47
EndSplineSet
EndChar

StartChar: r
Encoding: 114 114 11
Width: 415
Flags: HMW
HStem: -21 94<223.5 243> 335 20G<146 175>
LayerCount: 2
Fore
SplineSet
37 187 m 1,0,1
 92 225 92 225 152 269 c 1,2,3
 120 291 120 291 111 312 c 0,4,5
 108 319 108 319 108 322 c 0,6,7
 108 342 108 342 121 348.5 c 128,-1,8
 134 355 134 355 163 355 c 0,9,10
 174 355 174 355 228 328 c 128,-1,11
 282 301 282 301 296.5 301 c 128,-1,12
 311 301 311 301 337 309.5 c 128,-1,13
 363 318 363 318 378.5 318 c 128,-1,14
 394 318 394 318 401 311 c 1,15,16
 426 278 426 278 426 271 c 128,-1,17
 426 264 426 264 419.5 259.5 c 128,-1,18
 413 255 413 255 378.5 231 c 128,-1,19
 344 207 344 207 311 182 c 128,-1,20
 278 157 278 157 249 126 c 128,-1,21
 220 95 220 95 220 76 c 0,22,23
 220 73 220 73 225 73 c 0,24,25
 279 73 279 73 589 292 c 1,26,27
 596 292 596 292 596 279.5 c 128,-1,28
 596 267 596 267 517 193.5 c 128,-1,29
 438 120 438 120 338.5 49.5 c 128,-1,30
 239 -21 239 -21 194 -21 c 0,31,32
 124 -21 124 -21 124 49 c 0,33,34
 124 87 124 87 149.5 122.5 c 128,-1,35
 175 158 175 158 257 218 c 1,36,37
 240 218 240 218 211 226.5 c 128,-1,38
 182 235 182 235 174 247 c 1,39,40
 148 224 148 224 84 170 c 1,41,42
 69 159 69 159 45 159 c 128,-1,43
 21 159 21 159 21 166.5 c 128,-1,44
 21 174 21 174 37 187 c 1,0,1
EndSplineSet
EndChar

StartChar: s
Encoding: 115 115 12
Width: 348
Flags: HMW
HStem: -14 87<86 156.5 86 171.5> -14 137<35.5 171.5> 359 20G
VStem: 236 98<250.5 362>
LayerCount: 2
Fore
SplineSet
182.5 115.5 m 128,-1,1
 212 158 212 158 224 201.5 c 128,-1,2
 236 245 236 245 236 271 c 0,3,4
 236 278 236 278 225.5 278 c 128,-1,5
 215 278 215 278 201 267 c 2,6,-1
 70 166 l 1,7,8
 56 158 56 158 38 158 c 128,-1,9
 20 158 20 158 20 171 c 0,10,11
 20 180 20 180 22.5 183 c 128,-1,12
 25 186 25 186 37 193 c 1,13,14
 111 244 111 244 239 359 c 1,15,16
 254 379 254 379 266 379 c 128,-1,17
 278 379 278 379 306 371.5 c 128,-1,18
 334 364 334 364 334 354 c 0,19,20
 334 294 334 294 323 245 c 128,-1,21
 312 196 312 196 300.5 170.5 c 128,-1,22
 289 145 289 145 289 143 c 128,-1,23
 289 141 289 141 291 141 c 128,-1,24
 293 141 293 141 299 144 c 0,25,26
 374 182 374 182 490 268 c 2,27,-1
 514 286 l 1,28,29
 523 279 523 279 523 269 c 128,-1,30
 523 259 523 259 514 251 c 1,31,32
 512 251 512 251 462.5 209 c 128,-1,33
 413 167 413 167 352.5 117.5 c 128,-1,34
 292 68 292 68 223 27 c 128,-1,35
 154 -14 154 -14 116 -14 c 0,36,37
 22 -14 22 -14 22 99 c 0,38,39
 22 108 22 108 29.5 115.5 c 128,-1,40
 37 123 37 123 49 123 c 1,41,42
 49 117.777777778 49 117.777777778 54.5 107.388888889 c 128,-1,43
 60 97 60 97 66.5 90.5 c 0,44,45
 84 73 84 73 118.5 73 c 128,-1,0
 153 73 153 73 182.5 115.5 c 128,-1,1
EndSplineSet
EndChar

StartChar: t
Encoding: 116 116 13
Width: 313
Flags: HMW
HStem: -39 21G<58 85.5> 376 81 376 185
VStem: 6 77<55 81.5>
LayerCount: 2
Fore
SplineSet
459 462 m 2,0,-1
 509.625 462.75 l 1,1,2
 608.90625 462.75 608.90625 462.75 654 435 c 1,3,4
 676 428 676 428 676 417 c 0,5,6
 676 409 676 409 656.5 406 c 128,-1,7
 637 403 637 403 521.5 390.5 c 128,-1,8
 406 378 406 378 363 376 c 0,9,10
 344 375 344 375 275.5 310 c 128,-1,11
 207 245 207 245 145 167 c 128,-1,12
 83 89 83 89 83 58 c 0,13,14
 83 53 83 53 88 49.5 c 128,-1,15
 93 46 93 46 100.25 46 c 128,-1,16
 107.5 46 107.5 46 124 52 c 1,17,18
 314 164 314 164 493 297 c 1,19,20
 502 290 502 290 502 280 c 128,-1,21
 502 270 502 270 492 260.5 c 128,-1,22
 482 251 482 251 462.5 233 c 128,-1,23
 443 215 443 215 390 168 c 128,-1,24
 337 121 337 121 290.5 83.5 c 0,25,26
 164.067264574 -18.4618834081 164.067264574 -18.4618834081 114 -34 c 0,27,28
 96 -39 96 -39 71.5 -39 c 128,-1,29
 47 -39 47 -39 26.5 -14 c 128,-1,30
 6 11 6 11 6 54 c 128,-1,31
 6 97 6 97 61.5 178 c 128,-1,32
 117 259 117 259 213 344 c 0,33,34
 222 351 222 351 222 357 c 128,-1,35
 222 363 222 363 201 363 c 2,36,-1
 138 361 l 1,37,38
 5 361 5 361 1 391 c 1,39,40
 -30 397 -30 397 -30 409 c 0,41,42
 -30 412.666666667 -30 412.666666667 -26 413.333333333 c 128,-1,43
 -22 414 -22 414 -19 414.5 c 128,-1,44
 -16 415 -16 415 -9 416 c 128,-1,45
 -2 417 -2 417 101.5 432 c 128,-1,46
 205 447 205 447 337 457 c 1,47,-1
 406 549 l 1,48,49
 412 561 412 561 448 561 c 128,-1,50
 484 561 484 561 484 546 c 0,51,52
 484 541 484 541 476 528 c 1,53,-1
 451 493 l 1,54,55
 446 477 446 477 445 469 c 0,56,57
 445 462 445 462 459 462 c 2,0,-1
EndSplineSet
EndChar

StartChar: u
Encoding: 117 117 14
Width: 404
Flags: HMW
HStem: -18 21G<171 192.5> 304 20G<370.5 393.5>
LayerCount: 2
Fore
SplineSet
264 89 m 0,0,1
 413 169 413 169 592 302 c 1,2,3
 601 295 601 295 601 285 c 128,-1,4
 601 275 601 275 591 266 c 128,-1,5
 581 257 581 257 562.5 240 c 128,-1,6
 544 223 544 223 492 179 c 128,-1,7
 440 135 440 135 395 99 c 0,8,9
 276.549295775 4.23943661972 276.549295775 4.23943661972 221 -13 c 0,10,11
 203 -18 203 -18 182 -18 c 0,12,13
 148 -18 148 -18 148 35 c 0,14,15
 148 46 148 46 157.5 68 c 128,-1,16
 167 90 167 90 168.5 93.5 c 128,-1,17
 170 97 170 97 171 99 c 128,-1,18
 172 101 172 101 173 102.5 c 128,-1,19
 174 104 174 104 174 106 c 128,-1,20
 174 108 174 108 168 108 c 0,21,22
 162.944444444 108 162.944444444 108 134.972222222 81.5 c 128,-1,23
 107 55 107 55 88.5 39 c 128,-1,24
 70 23 70 23 46.5 9 c 128,-1,25
 23 -5 23 -5 8 -5 c 0,26,27
 -32 -5 -32 -5 -32 32 c 0,28,29
 -32 54 -32 54 -17 86 c 0,30,31
 18 160 18 160 88 234 c 128,-1,32
 158 308 158 308 188 309 c 0,33,34
 199 309 199 309 208 301 c 128,-1,35
 217 293 217 293 217 283 c 128,-1,36
 217 273 217 273 197 253 c 128,-1,37
 177 233 177 233 146.5 201.5 c 128,-1,38
 116 170 116 170 103.5 149 c 128,-1,39
 91 128 91 128 91 121 c 128,-1,40
 91 114 91 114 99 114 c 128,-1,41
 107 114 107 114 128 127 c 1,42,43
 185 166 185 166 258.5 223 c 128,-1,44
 332 280 332 280 353 306 c 1,45,46
 358 324 358 324 383 324 c 0,47,48
 431 324 431 324 431 307 c 0,49,50
 431 300 431 300 384 255 c 0,51,52
 243 120 243 120 243 88 c 0,53,54
 243 83 243 83 247.5 83 c 128,-1,55
 252 83 252 83 264 89 c 0,0,1
EndSplineSet
EndChar

StartChar: v
Encoding: 118 118 15
Width: 290
Flags: HMW
HStem: -17 73<73 81> 373 20G<352 355>
LayerCount: 2
Fore
SplineSet
197 330 m 128,-1,1
 208 330 208 330 224 324.5 c 128,-1,2
 240 319 240 319 240 308.5 c 128,-1,3
 240 298 240 298 230 288 c 0,4,5
 126 180 126 180 79 93 c 1,6,7
 70 74 70 74 70 65 c 128,-1,8
 70 56 70 56 75 56 c 0,9,10
 94 56 94 56 157.5 111 c 128,-1,11
 221 166 221 166 282.5 244.5 c 128,-1,12
 344 323 344 323 349 376 c 1,13,14
 349 393 349 393 354 393 c 0,15,16
 357 393 357 393 361 385 c 0,17,18
 383 349 383 349 383 321 c 0,19,20
 383 268 383 268 316 186 c 128,-1,21
 249 104 249 104 164.5 43.5 c 128,-1,22
 80 -17 80 -17 29.5 -17 c 128,-1,23
 -21 -17 -21 -17 -21 33 c 0,24,25
 -21 57 -21 57 -1.5 94.5 c 128,-1,26
 18 132 18 132 45 167.5 c 0,27,28
 100.588235294 240.588235294 100.588235294 240.588235294 146.5 286.5 c 2,29,-1
 166 306 l 1,30,0
 186 330 186 330 197 330 c 128,-1,1
EndSplineSet
EndChar

StartChar: w
Encoding: 119 119 16
Width: 458
Flags: HMW
HStem: -19 21G<205 273.5> 348 20G<504.5 512.5>
LayerCount: 2
Fore
SplineSet
98 259 m 1,0,1
 186 305 186 305 203.5 322 c 128,-1,2
 221 339 221 339 237 339 c 0,3,4
 287 339 287 339 287 327 c 128,-1,5
 287 315.2 287 315.2 224 258.5 c 2,6,-1
 209 245 l 1,7,8
 195 231 195 231 163.5 193.5 c 128,-1,9
 132 156 132 156 132 145 c 0,10,11
 132 143 132 143 134 143 c 0,12,13
 150 143 150 143 221.5 199 c 128,-1,14
 293 255 293 255 313.5 277.5 c 128,-1,15
 334 300 334 300 341 300 c 0,16,17
 351.6 300 351.6 300 357 291 c 1,18,19
 379 287 379 287 379 274 c 0,20,21
 379 268 379 268 374 261.5 c 128,-1,22
 369 255 369 255 325 203 c 128,-1,23
 281 151 281 151 269 132 c 128,-1,24
 257 113 257 113 244.5 84.5 c 128,-1,25
 232 56 232 56 232 47 c 128,-1,26
 232 38 232 38 237 38 c 0,27,28
 245 38 245 38 270 57 c 0,29,30
 322 98 322 98 400 197 c 128,-1,31
 478 296 478 296 488 332 c 0,32,33
 499 368 499 368 507.5 368 c 128,-1,34
 516 368 516 368 525 346 c 128,-1,35
 534 324 534 324 534 294.5 c 128,-1,36
 534 265 534 265 479.5 189 c 128,-1,37
 425 113 425 113 347 47 c 128,-1,38
 269 -19 269 -19 217 -19 c 0,39,40
 158 -19 158 -19 158 40 c 0,41,42
 158 74 158 74 176 108 c 0,43,44
 177 111 177 111 177 113.5 c 128,-1,45
 177 116 177 116 174.5 116 c 128,-1,46
 172 116 172 116 165 112 c 1,47,-1
 69 38 l 1,48,49
 60 28 60 28 43.5 28 c 128,-1,50
 27 28 27 28 13.5 42.75 c 128,-1,51
 0 57.5 0 57.5 0 71 c 0,52,53
 0 124 0 124 112 234 c 1,54,55
 83 234 83 234 83 243 c 0,56,57
 83 249 83 249 98 259 c 1,0,1
EndSplineSet
EndChar

StartChar: x
Encoding: 120 120 17
Width: 422
Flags: HMW
HStem: -17 75<201.5 226> 322 20G<266 271.5>
LayerCount: 2
Fore
SplineSet
195 79 m 0,0,1
 195 58 195 58 216 58 c 0,2,3
 284 58 284 58 566 259 c 0,4,5
 577 267 577 267 599.5 283 c 128,-1,6
 622 299 622 299 626 302 c 1,7,8
 635 295 635 295 635 285 c 128,-1,9
 635 275 635 275 626 267 c 0,10,11
 552 193 552 193 396.5 88 c 128,-1,12
 241 -17 241 -17 186 -17 c 0,13,14
 118 -17 118 -17 118 71 c 1,15,16
 113 69 113 69 82 49.5 c 0,17,18
 -1.46153846154 -3 -1.46153846154 -3 -25 -3 c 0,19,20
 -36 -3 -36 -3 -45.5 6.5 c 128,-1,21
 -55 16 -55 16 -55 29.5 c 128,-1,22
 -55 43 -55 43 -37.5 52 c 128,-1,23
 -20 61 -20 61 28 81.5 c 128,-1,24
 76 102 76 102 124 135 c 1,25,26
 125 138 125 138 126 148 c 128,-1,27
 127 158 127 158 129.5 166.5 c 0,28,29
 138.666666667 197.666666667 138.666666667 197.666666667 162 246 c 1,30,31
 162 249 162 249 158 249 c 0,32,33
 132 249 132 249 132 257 c 0,34,35
 132 262 132 262 144 269 c 0,36,37
 170.222222222 284.296296296 170.222222222 284.296296296 194 316 c 1,38,39
 217 339 217 339 266 342 c 0,40,41
 282 342 282 342 282 331 c 0,42,43
 282 317 282 317 256 287 c 1,44,45
 224 231 224 231 224 213 c 0,46,47
 224 211 224 211 226 211 c 0,48,49
 242 211 242 211 324 260 c 128,-1,50
 406 309 406 309 415.5 319 c 128,-1,51
 425 329 425 329 430.5 329 c 128,-1,52
 436 329 436 329 443 319.5 c 128,-1,53
 450 310 450 310 450 303.5 c 128,-1,54
 450 297 450 297 444 292 c 128,-1,55
 438 287 438 287 392 254.5 c 0,56,57
 231.621621622 141.189189189 231.621621622 141.189189189 200 118 c 1,58,59
 199 114 199 114 198 107 c 2,60,-1
 196.5 96.5 l 2,61,62
 195 86 195 86 195 79 c 0,0,1
EndSplineSet
EndChar

StartChar: y
Encoding: 121 121 18
Width: 329
Flags: HMW
HStem: -373 21G<-232.5 -127> 303 20G<372.5 379>
VStem: -283 48<-327 -301.5 -327 -260.5> 2 104<34 141>
LayerCount: 2
Fore
SplineSet
379 323 m 1,0,1
 426 318 426 318 426 302 c 0,2,3
 426 295 426 295 418 286 c 0,4,5
 276.695852535 128.995391705 276.695852535 128.995391705 94.5 -114.5 c 0,6,7
 41 -186 41 -186 -14 -250 c 128,-1,8
 -69 -314 -69 -314 -117 -343.5 c 128,-1,9
 -165 -373 -165 -373 -217 -373 c 0,10,11
 -243 -373 -243 -373 -263 -359 c 128,-1,12
 -283 -345 -283 -345 -283 -321 c 0,13,14
 -283 -265 -283 -265 -229 -205 c 128,-1,15
 -175 -145 -175 -145 -108 -107.5 c 128,-1,16
 -41 -70 -41 -70 8 -64 c 1,17,-1
 29 -67 l 1,18,19
 39 -66 39 -66 102.5 10 c 128,-1,20
 166 86 166 86 166.5 90.5 c 128,-1,21
 167 95 167 95 165 95 c 1,22,-1
 146 80 l 1,23,24
 71 10 71 10 29 10 c 0,25,26
 2 10 2 10 2 48 c 0,27,28
 2 99 2 99 85 209 c 128,-1,29
 168 319 168 319 207 319 c 0,30,31
 210 319 210 319 214 317 c 0,32,33
 242 310 242 310 242 297 c 0,34,35
 242 292 242 292 239.5 289.5 c 128,-1,36
 237 287 237 287 219.5 270 c 128,-1,37
 202 253 202 253 185 234.5 c 128,-1,38
 168 216 168 216 149 194 c 0,39,40
 106 144.210526316 106 144.210526316 106 119 c 0,41,42
 106 113 106 113 112.5 113 c 128,-1,43
 119 113 119 113 137 124 c 1,44,45
 279 221 279 221 359 309 c 1,46,47
 366 323 366 323 379 323 c 1,0,1
-231 -329 m 1,48,49
 -196 -318 -196 -318 -137 -260.5 c 128,-1,50
 -78 -203 -78 -203 -36 -151.5 c 2,51,-1
 6 -100 l 2,52,53
 12 -92 12 -92 12 -90 c 128,-1,54
 12 -88 12 -88 9 -88 c 0,55,56
 -23 -88 -23 -88 -82.5 -137 c 128,-1,57
 -142 -186 -142 -186 -188.5 -244 c 128,-1,58
 -235 -302 -235 -302 -235 -326 c 0,59,60
 -235 -329 -235 -329 -231 -329 c 1,48,49
EndSplineSet
EndChar

StartChar: h
Encoding: 104 104 19
Width: 410
Flags: HMW
HStem: -18 21G<171 192.5> 608 20G
LayerCount: 2
Fore
SplineSet
248 83 m 128,-1,1
 252 83 252 83 264 89 c 0,2,3
 413 169 413 169 592 302 c 1,4,5
 601 295 601 295 601 285 c 128,-1,6
 601 275 601 275 591 266 c 128,-1,7
 581 257 581 257 562.5 240 c 128,-1,8
 544 223 544 223 492 179 c 128,-1,9
 440 135 440 135 395 99 c 0,10,11
 276.549295775 4.23943661972 276.549295775 4.23943661972 221 -13 c 0,12,13
 203 -18 203 -18 182 -18 c 0,14,15
 148 -18 148 -18 148 35 c 0,16,17
 148 53 148 53 170 94.5 c 128,-1,18
 192 136 192 136 192 155 c 0,19,20
 192 157 192 157 189 157 c 128,-1,21
 186 157 186 157 174 148 c 0,22,23
 35 40 35 40 5 -2 c 0,24,25
 -1 -11 -1 -11 -11 -11 c 0,26,27
 -33 -11 -33 -11 -39 10 c 1,28,29
 -39 40 -39 40 45.5 162 c 128,-1,30
 130 284 130 284 244 418.5 c 128,-1,31
 358 553 358 553 430 608 c 1,32,33
 451 628 451 628 528 628 c 1,34,35
 540 625 540 625 540 618 c 128,-1,36
 540 611 540 611 533 604 c 0,37,38
 245 326 245 326 167 219 c 0,39,40
 163 215 163 215 156.5 204.5 c 128,-1,41
 150 194 150 194 150 191 c 1,42,-1
 151 190 l 1,43,44
 155 190 155 190 214 234.5 c 128,-1,45
 273 279 273 279 302 298 c 1,46,47
 311 307 311 307 340 307 c 1,48,49
 365 304 365 304 365 291 c 0,50,51
 365 287 365 287 363 284 c 0,52,53
 289 179 289 179 274 150 c 1,54,55
 244 103 244 103 244 88 c 0,56,0
 244 83 244 83 248 83 c 128,-1,1
EndSplineSet
EndChar

StartChar: z
Encoding: 122 122 20
Width: 367
Flags: HMW
HStem: -10 96<63.5 143> 28 81<220 300> 241 101<190 328>
LayerCount: 2
Fore
SplineSet
297 260 m 1,0,-1
 293 259 l 1,1,2
 201 241 201 241 191.5 241 c 128,-1,3
 182 241 182 241 173 250 c 1,4,5
 145 290 145 290 145 304.5 c 128,-1,6
 145 319 145 319 161 323 c 0,7,8
 248 342 248 342 304.5 342 c 128,-1,9
 361 342 361 342 373 329 c 0,10,11
 410 292 410 292 410 284 c 128,-1,12
 410 276 410 276 400 270 c 0,13,14
 322.338912134 229.481171548 322.338912134 229.481171548 239.669456067 174.740585774 c 128,-1,15
 157 120 157 120 127 87 c 0,16,17
 127 86 127 86 132.5 86 c 128,-1,18
 138 86 138 86 176.5 97.5 c 128,-1,19
 215 109 215 109 247 109 c 128,-1,20
 279 109 279 109 290 98 c 1,21,22
 341 39 341 39 341 18 c 0,23,24
 341 10 341 10 333 10 c 0,25,26
 328 10 328 10 315.5 19 c 128,-1,27
 303 28 303 28 285 28 c 128,-1,28
 267 28 267 28 255 24 c 0,29,30
 139 -10 139 -10 69 -10 c 0,31,32
 58 -10 58 -10 38 10.5 c 128,-1,33
 18 31 18 31 18 51 c 0,34,35
 18 83 18 83 62 117.5 c 128,-1,36
 106 152 106 152 188 196 c 0,37,38
 285.105263158 248.105263158 285.105263158 248.105263158 297 260 c 1,0,-1
EndSplineSet
EndChar

StartChar: i
Encoding: 105 105 21
Width: 300
Flags: HMW
HStem: -18 21G<78 105.5> 475 20G<338 351>
LayerCount: 2
Fore
SplineSet
351 495 m 0,0,1
 361 495 361 495 364 491 c 0,2,3
 378 474 378 474 378 463.5 c 128,-1,4
 378 453 378 453 372 445.5 c 128,-1,5
 366 438 366 438 357.5 428.5 c 128,-1,6
 349 419 349 419 323.5 402.5 c 128,-1,7
 298 386 298 386 274 386 c 1,8,9
 256 389 256 389 256 408 c 0,10,11
 256 438 256 438 292 466.5 c 128,-1,12
 328 495 328 495 351 495 c 0,0,1
111 101 m 1,13,14
 103 87 103 87 103 76 c 128,-1,15
 103 65 103 65 115 65 c 0,16,17
 122.5 65 122.5 65 139 71 c 1,18,19
 326 169 326 169 505 302 c 1,20,21
 514 295 514 295 514 285 c 128,-1,22
 514 275 514 275 504 266 c 128,-1,23
 494 257 494 257 475.5 240 c 128,-1,24
 457 223 457 223 405 179 c 128,-1,25
 353 135 353 135 308 99 c 0,26,27
 189.549295775 4.23943661972 189.549295775 4.23943661972 134 -13 c 0,28,29
 116 -18 116 -18 95 -18 c 0,30,31
 18 -18 18 -18 18 64 c 0,32,33
 18 96 18 96 53 155.5 c 128,-1,34
 88 215 88 215 125 260.5 c 128,-1,35
 162 306 162 306 174 311 c 1,36,37
 192 322 192 322 213 322 c 128,-1,38
 234 322 234 322 253 314 c 0,39,40
 259 311 259 311 259 306 c 128,-1,41
 259 301 259 301 249.5 291 c 128,-1,42
 240 281 240 281 220.5 260 c 128,-1,43
 201 239 201 239 162.5 187.5 c 128,-1,44
 124 136 124 136 111 101 c 1,13,14
EndSplineSet
EndChar

StartChar: j
Encoding: 106 106 22
Width: 160
Flags: HMW
HStem: -370 60<-355 -334 -355 -281.5> 497 20G<320 333>
VStem: -421 64<-308 -285 -308 -282.5>
LayerCount: 2
Fore
SplineSet
199 341 m 2,0,-1
 242 339 l 2,1,2
 255 338 255 338 255 330 c 0,3,4
 255 325.5 255 325.5 223.5 283.25 c 128,-1,5
 192 241 192 241 126.5 149 c 128,-1,6
 61 57 61 57 19 -2.5 c 128,-1,7
 -23 -62 -23 -62 -70.5 -127 c 128,-1,8
 -118 -192 -118 -192 -152.5 -231.5 c 128,-1,9
 -187 -271 -187 -271 -224 -305.5 c 0,10,11
 -293.173913043 -370 -293.173913043 -370 -363 -370 c 0,12,13
 -376 -370 -376 -370 -398.5 -355 c 128,-1,14
 -421 -340 -421 -340 -421 -311.5 c 128,-1,15
 -421 -283 -421 -283 -368 -217.5 c 128,-1,16
 -315 -152 -315 -152 -241.5 -97 c 128,-1,17
 -168 -42 -168 -42 -120 -42 c 0,18,19
 -116 -42 -116 -42 -116 -44 c 0,20,21
 -115 -46 -115 -46 -113.5 -46 c 128,-1,22
 -112 -46 -112 -46 -109 -43 c 2,23,-1
 171 326 l 1,24,25
 178 341 178 341 199 341 c 2,0,-1
-354 -310 m 0,26,27
 -328 -310 -328 -310 -226 -189.5 c 128,-1,28
 -124 -69 -124 -69 -124 -59 c 0,29,30
 -124 -57 -124 -57 -126 -57 c 0,31,32
 -148 -57 -148 -57 -252.5 -166.5 c 128,-1,33
 -357 -276 -357 -276 -357 -307 c 0,34,35
 -357 -310 -357 -310 -354 -310 c 0,26,27
333 517 m 0,36,37
 343 517 343 517 346 513 c 0,38,39
 360 496 360 496 360 485.5 c 128,-1,40
 360 475 360 475 354 467.5 c 128,-1,41
 348 460 348 460 339.5 450.5 c 128,-1,42
 331 441 331 441 305.5 424.5 c 128,-1,43
 280 408 280 408 256 408 c 1,44,45
 238 411 238 411 238 430 c 0,46,47
 238 460 238 460 274 488.5 c 128,-1,48
 310 517 310 517 333 517 c 0,36,37
EndSplineSet
EndChar

StartChar: l
Encoding: 108 108 23
Width: 329
Flags: HMW
HStem: -18 84<95 171.5> 592 20G<554.5 573>
VStem: 35 82<84.5 110 84.5 127.5>
LayerCount: 2
Fore
SplineSet
134 66 m 0,0,1
 167 66 167 66 264.5 125 c 128,-1,2
 362 184 362 184 442.5 243 c 2,3,-1
 523 302 l 1,4,5
 532 295 532 295 532 285 c 128,-1,6
 532 275 532 275 522 266 c 128,-1,7
 512 257 512 257 493.5 240 c 128,-1,8
 475 223 475 223 423 179 c 128,-1,9
 371 135 371 135 326 99 c 0,10,11
 207.549295775 4.23943661972 207.549295775 4.23943661972 152 -13 c 0,12,13
 134 -18 134 -18 115 -18 c 128,-1,14
 96 -18 96 -18 85 -15 c 128,-1,15
 74 -12 74 -12 61 -1.5 c 0,16,17
 35 19.5 35 19.5 35 96 c 0,18,19
 35 117 35 117 53 160 c 128,-1,20
 71 203 71 203 112.5 264 c 128,-1,21
 154 325 154 325 209.5 386 c 128,-1,22
 265 447 265 447 350.5 508 c 128,-1,23
 436 569 436 569 533 607 c 0,24,25
 548 612 548 612 560 612 c 128,-1,26
 572 612 572 612 582 601.5 c 128,-1,27
 592 591 592 591 596.5 580.5 c 2,28,-1
 601 570 l 1,29,30
 601 546.865671642 601 546.865671642 530.5 469 c 0,31,32
 457.304794521 388.157534247 457.304794521 388.157534247 361.65239726 314.578767123 c 128,-1,33
 266 241 266 241 184 189 c 1,34,35
 117 145 117 145 117 97 c 0,36,37
 117 66 117 66 134 66 c 0,0,1
224 273 m 0,38,39
 249 273 249 273 375.5 396 c 128,-1,40
 502 519 502 519 502 533 c 1,41,-1
 501 535 l 1,42,-1
 484 527 l 1,43,44
 432 493 432 493 345.5 411 c 128,-1,45
 259 329 259 329 226 283 c 0,46,47
 222 278 222 278 222 275.5 c 128,-1,48
 222 273 222 273 224 273 c 0,38,39
EndSplineSet
EndChar

StartChar: b
Encoding: 98 98 24
Width: 353
Flags: HMW
HStem: -21 56<56 86> 109 250<287 343.5> 299 60<263.5 343.5> 661 20G<413 460>
VStem: -35 86<40.5 63.5 40.5 100> 323 72<278 297>
LayerCount: 2
Fore
SplineSet
460 681 m 0,0,1
 512 681 512 681 512 653 c 0,2,3
 512 612 512 612 433.5 529 c 128,-1,4
 355 446 355 446 276.5 383.5 c 2,5,-1
 198 321 l 1,6,7
 192 314 192 314 192 310 c 128,-1,8
 192 306 192 306 197 306 c 1,9,10
 276 357 276 357 339 359 c 0,11,12
 351 359 351 359 361 352 c 0,13,14
 395 324 395 324 395 287 c 128,-1,15
 395 250 395 250 319 162 c 1,16,17
 351 170 351 170 406.5 203.5 c 128,-1,18
 462 237 462 237 501 267 c 2,19,-1
 540 297 l 1,20,21
 549 290 549 290 549 280 c 128,-1,22
 549 270 549 270 540 262 c 0,23,24
 375 109 375 109 290 109 c 0,25,26
 284 109 284 109 272 111 c 1,27,-1
 274 114 l 1,28,29
 215 56 215 56 156 17.5 c 128,-1,30
 97 -21 97 -21 59 -21 c 0,31,32
 -35 -21 -35 -21 -35 43 c 0,33,34
 -35 75 -35 75 -14.5 118.5 c 128,-1,35
 6 162 6 162 35 201.5 c 128,-1,36
 64 241 64 241 93.5 276 c 128,-1,37
 123 311 123 311 143.5 332 c 128,-1,38
 164 353 164 353 164 352 c 1,39,40
 235 434 235 434 287.5 503.5 c 128,-1,41
 340 573 340 573 357 602.5 c 128,-1,42
 374 632 374 632 391 653 c 128,-1,43
 408 674 408 674 419.5 677.5 c 128,-1,44
 431 681 431 681 460 681 c 0,0,1
58 35 m 0,45,46
 99 35 99 35 164.5 93 c 128,-1,47
 230 151 230 151 276.5 214 c 128,-1,48
 323 277 323 277 323 296 c 0,49,50
 323 299 323 299 320 299 c 0,51,52
 268 299 268 299 202 243 c 128,-1,53
 136 187 136 187 93.5 126 c 128,-1,54
 51 65 51 65 51 42 c 0,55,56
 51 35 51 35 58 35 c 0,45,46
EndSplineSet
EndChar

StartChar: d
Encoding: 100 100 25
Width: 447
Flags: HMW
HStem: -19 103<2 92> -18 21G<227 237.5> 287 66<285 327> 649 20G<668.5 730>
VStem: -42 119<12.5 102> 174 78<15 94.5>
LayerCount: 2
Fore
SplineSet
79 84 m 0,0,1
 91 84 91 84 152.5 133 c 128,-1,2
 214 182 214 182 269.5 231 c 2,3,-1
 325 280 l 2,4,5
 329 284 329 284 329 285.5 c 128,-1,6
 329 287 329 287 326 287 c 0,7,8
 288 287 288 287 227 243.5 c 128,-1,9
 166 200 166 200 121.5 151.5 c 128,-1,10
 77 103 77 103 77 86 c 0,11,12
 77 84 77 84 79 84 c 0,0,1
252 69 m 0,13,14
 252 66 252 66 258.5 66 c 128,-1,15
 265 66 265 66 317 95.5 c 0,16,17
 453.444444444 172.905982906 453.444444444 172.905982906 637 302 c 1,18,19
 646 295 646 295 646 285 c 128,-1,20
 646 275 646 275 636 266 c 128,-1,21
 626 257 626 257 607.5 240 c 128,-1,22
 589 223 589 223 537 179 c 128,-1,23
 485 135 485 135 440 99 c 0,24,25
 321.549295775 4.23943661972 321.549295775 4.23943661972 266 -13 c 0,26,27
 248 -18 248 -18 227 -18 c 1,28,29
 207 -15 207 -15 190.5 -3 c 128,-1,30
 174 9 174 9 174 25 c 128,-1,31
 174 41 174 41 181.5 72.5 c 128,-1,32
 189 104 189 104 189 106.5 c 128,-1,33
 189 109 189 109 187.5 109 c 128,-1,34
 186 109 186 109 182 105 c 0,35,36
 169 91 169 91 149 70.5 c 128,-1,37
 129 50 129 50 80.5 15.5 c 128,-1,38
 32 -19 32 -19 2 -19 c 1,39,40
 -3 -18 -3 -18 -10.5 -15.5 c 128,-1,41
 -18 -13 -18 -13 -30 1 c 128,-1,42
 -42 15 -42 15 -42 41 c 128,-1,43
 -42 67 -42 67 -3 120.5 c 128,-1,44
 36 174 36 174 92 225.5 c 128,-1,45
 148 277 148 277 215 315 c 128,-1,46
 282 353 282 353 332 353 c 0,47,48
 350 353 350 353 362 326 c 1,49,50
 361 333 361 333 427 416.5 c 128,-1,51
 493 500 493 500 583.5 584.5 c 128,-1,52
 674 669 674 669 724 669 c 0,53,54
 741 669 741 669 741 653 c 0,55,56
 741 628 741 628 707.5 585 c 128,-1,57
 674 542 674 542 635.5 505 c 128,-1,58
 597 468 597 468 536 412.5 c 0,59,60
 394.888823414 284.111962286 394.888823414 284.111962286 323.444411707 194.055981143 c 128,-1,61
 252 104 252 104 252 69 c 0,13,14
EndSplineSet
EndChar

StartChar: f
Encoding: 102 102 26
Width: 238
Flags: HMW
HStem: -387 88<-193 -164 -193 -155.5> 648 20G<466 496>
VStem: 23 40<-71 -57 -135.5 -22>
LayerCount: 2
Fore
SplineSet
44 -9 m 1,0,1
 44 -11 44 -11 49 -19 c 0,2,3
 63 -41.4 63 -41.4 63 -87.2 c 128,-1,4
 63 -133 63 -133 15.5 -206.5 c 128,-1,5
 -32 -280 -32 -280 -94.5 -333.5 c 128,-1,6
 -157 -387 -157 -387 -197 -387 c 0,7,8
 -247 -387 -247 -387 -260 -297 c 1,9,10
 -260 -173 -260 -173 -79 31 c 2,11,-1
 466 648 l 1,12,13
 472 668 472 668 496 668 c 0,14,15
 533 668 533 668 545 659 c 128,-1,16
 557 650 557 650 557 637.5 c 128,-1,17
 557 625 557 625 536 601 c 2,18,-1
 48 68 l 1,19,20
 49 67 49 67 54.5 67 c 128,-1,21
 60 67 60 67 66 70 c 0,22,23
 251 169 251 169 430 302 c 1,24,25
 439 295 439 295 439 285 c 128,-1,26
 439 275 439 275 429.5 266 c 128,-1,27
 420 257 420 257 403 240.5 c 128,-1,28
 386 224 386 224 337 180.5 c 128,-1,29
 288 137 288 137 242.5 101.5 c 128,-1,30
 197 66 197 66 141 33 c 128,-1,31
 85 0 85 0 44 -9 c 1,0,1
-191 -299 m 0,32,33
 -165 -299 -165 -299 -113 -248 c 128,-1,34
 -61 -197 -61 -197 -19 -133 c 128,-1,35
 23 -69 23 -69 23 -35.5 c 128,-1,36
 23 -2 23 -2 2 -2 c 0,37,38
 -7 -2 -7 -2 -19 -12 c 1,39,40
 -67 -58 -67 -58 -111 -126 c 128,-1,41
 -155 -194 -155 -194 -176 -239 c 128,-1,42
 -197 -284 -197 -284 -197 -291.5 c 128,-1,43
 -197 -299 -197 -299 -191 -299 c 0,32,33
EndSplineSet
EndChar

StartChar: g
Encoding: 103 103 27
Width: 320
Flags: HMW
HStem: -374 21G<-196.5 -187> -87 74<-7 3.5> 312 20G<294 294>
VStem: -269 41<-326 -304.5 -326 -260>
LayerCount: 2
Fore
SplineSet
390 271.5 m 128,-1,1
 390 262 390 262 381.5 254 c 128,-1,2
 373 246 373 246 288 131.5 c 128,-1,3
 203 17 203 17 173.5 -26 c 128,-1,4
 144 -69 144 -69 132 -88.5 c 128,-1,5
 120 -108 120 -108 82.5 -158 c 128,-1,6
 45 -208 45 -208 7 -248.5 c 128,-1,7
 -31 -289 -31 -289 -84.5 -326.5 c 128,-1,8
 -138 -364 -138 -364 -187 -374 c 1,9,10
 -208.461538462 -374 -208.461538462 -374 -229.230769231 -365 c 0,11,12
 -269 -347.766666667 -269 -347.766666667 -269 -302 c 0,13,14
 -269 -244 -269 -244 -160.5 -165.5 c 128,-1,15
 -52 -87 -52 -87 1 -87 c 0,16,17
 9 -87 9 -87 9 -90 c 128,-1,18
 9 -93 9 -93 -1 -100 c 0,19,20
 -87 -159 -87 -159 -157.5 -227.5 c 128,-1,21
 -228 -296 -228 -296 -228 -325 c 0,22,23
 -228 -329 -228 -329 -222 -329 c 128,-1,24
 -216 -329 -216 -329 -196.5 -315.5 c 0,25,26
 -147.901554404 -281.85492228 -147.901554404 -281.85492228 -60 -192 c 1,27,28
 37 -84 37 -84 59 -54 c 0,29,30
 98.0746268657 -0.716417910448 98.0746268657 -0.716417910448 152.5 56.5 c 2,31,-1
 172 77 l 2,32,33
 173 79 173 79 175 81 c 128,-1,34
 177 83 177 83 180.5 88.5 c 0,35,36
 188.454545455 101 188.454545455 101 187 101 c 0,37,38
 184 101 184 101 174 91 c 128,-1,39
 164 81 164 81 145.5 63.5 c 128,-1,40
 127 46 127 46 83 16.5 c 128,-1,41
 39 -13 39 -13 12 -13 c 128,-1,42
 -15 -13 -15 -13 -30 5 c 128,-1,43
 -45 23 -45 23 -45 43.5 c 128,-1,44
 -45 64 -45 64 -19 105 c 128,-1,45
 7 146 7 146 49 194 c 128,-1,46
 91 242 91 242 157.5 283 c 128,-1,47
 224 324 224 324 294 332 c 1,48,49
 335 323 335 323 347 303 c 1,50,51
 349 304 349 304 355 304 c 128,-1,52
 361 304 361 304 375.5 292.5 c 128,-1,0
 390 281 390 281 390 271.5 c 128,-1,1
65 81 m 0,53,54
 91 83 91 83 155.5 129 c 128,-1,55
 220 175 220 175 272.5 221 c 128,-1,56
 325 267 325 267 325 274 c 0,57,58
 325 276 325 276 321 276 c 0,59,60
 269 265 269 265 205 221 c 128,-1,61
 141 177 141 177 101 136 c 128,-1,62
 61 95 61 95 61 84 c 0,63,64
 61 81 61 81 65 81 c 0,53,54
EndSplineSet
EndChar

StartChar: P
Encoding: 80 80 28
Width: 578
Flags: HMW
HStem: -41 21G<98.5 108.5> 207 69<385 388 331.5 473.5> 589 99<408.5 560.5 357.5 585.5>
VStem: -24 53<363.5 378.5 362.5 448> 744 38<467 549>
LayerCount: 2
Fore
SplineSet
684 639.5 m 0,0,1
 727 616 727 616 754.5 575 c 128,-1,2
 782 534 782 534 782 483 c 128,-1,3
 782 432 782 432 718 366 c 128,-1,4
 654 300 654 300 562.5 253.5 c 128,-1,5
 471 207 471 207 403.5 207 c 128,-1,6
 336 207 336 207 306 263 c 1,7,8
 134 32 134 32 112 -17 c 1,9,10
 113 -22 113 -22 113 -31.5 c 128,-1,11
 113 -41 113 -41 102 -41 c 128,-1,12
 91 -41 91 -41 73.5 -22.5 c 128,-1,13
 56 -4 56 -4 56 30 c 0,14,15
 56 40 56 40 57 46 c 0,16,17
 66 112 66 112 240.5 306 c 128,-1,18
 415 500 415 500 492 542 c 0,19,20
 508 550 508 550 516 550 c 128,-1,21
 524 550 524 550 532.5 545 c 128,-1,22
 541 540 541 540 541 533 c 128,-1,23
 541 526 541 526 537 522 c 0,24,25
 462 444 462 444 447 427 c 2,26,-1
 328 289 l 2,27,28
 326 286 326 286 326 283 c 0,29,30
 326 276 326 276 335 276 c 0,31,32
 375 276 375 276 443.5 299 c 128,-1,33
 512 322 512 322 579 356.5 c 128,-1,34
 646 391 646 391 695 437.5 c 128,-1,35
 744 484 744 484 744 524 c 0,36,37
 744 557 744 557 681 573 c 128,-1,38
 618 589 618 589 545.5 589 c 128,-1,39
 473 589 473 589 389 568.5 c 128,-1,40
 305 548 305 548 242.5 518 c 128,-1,41
 180 488 180 488 130 455.5 c 128,-1,42
 80 423 80 423 54.5 398.5 c 128,-1,43
 29 374 29 374 29 366.5 c 128,-1,44
 29 359 29 359 36 359 c 128,-1,45
 43 359 43 359 73.5 369 c 0,46,47
 174.395908544 402.080625752 174.395908544 402.080625752 270 458 c 0,48,49
 277 462 277 462 279.5 462 c 128,-1,50
 282 462 282 462 282 459.5 c 128,-1,51
 282 457 282 457 269.5 440.5 c 128,-1,52
 257 424 257 424 235 400.5 c 128,-1,53
 213 377 213 377 187 355 c 128,-1,54
 161 333 161 333 128.5 317.5 c 128,-1,55
 96 302 96 302 65.5 302 c 128,-1,56
 35 302 35 302 5.5 326.5 c 128,-1,57
 -24 351 -24 351 -24 393.5 c 128,-1,58
 -24 436 -24 436 18 486 c 128,-1,59
 60 536 60 536 128.5 581 c 128,-1,60
 197 626 197 626 299 657 c 128,-1,61
 401 688 401 688 498.127659574 688 c 128,-1,62
 595.255319149 688 595.255319149 688 684 639.5 c 0,0,1
EndSplineSet
EndChar

StartChar: Q
Encoding: 81 81 29
Width: 554
Flags: HMW
HStem: -87 21G<611.5 622> -41 91<77 339.5> 228 64<103.5 186> 537 90<514 544 344 565>
VStem: 624 55<402 467.5 388.5 499.5>
LayerCount: 2
Fore
SplineSet
42 356 m 0,0,1
 43 409 43 409 100.5 472 c 128,-1,2
 158 535 158 535 253.5 581 c 128,-1,3
 349 627 349 627 443 627 c 0,4,5
 500 627 500 627 544.5 612.5 c 128,-1,6
 589 598 589 598 613.5 577 c 128,-1,7
 638 556 638 556 653.5 529 c 0,8,9
 679 484.580645161 679 484.580645161 679 440 c 0,10,11
 679 365 679 365 579.5 271.5 c 128,-1,12
 480 178 480 178 310 84 c 0,13,14
 286 70 286 70 286 64 c 0,15,16
 286 61 286 61 319.5 61 c 128,-1,17
 353 61 353 61 408.5 50 c 128,-1,18
 464 39 464 39 524 6 c 128,-1,19
 584 -27 584 -27 622 -78 c 0,20,21
 625 -81 625 -81 625 -84 c 128,-1,22
 625 -87 625 -87 621.5 -87 c 128,-1,23
 618 -87 618 -87 564.5 -75.5 c 128,-1,24
 511 -64 511 -64 419 -52.5 c 128,-1,25
 327 -41 327 -41 242.5 -41 c 128,-1,26
 158 -41 158 -41 109.5 -42.5 c 128,-1,27
 61 -44 61 -44 23.5 -48.5 c 128,-1,28
 -14 -53 -14 -53 -30 -56 c 128,-1,29
 -46 -59 -46 -59 -84 -69 c 0,30,31
 -141 -84 -141 -84 -152 -84 c 128,-1,32
 -163 -84 -163 -84 -194 -69.5 c 128,-1,33
 -225 -55 -225 -55 -225 -36 c 0,34,35
 -225 -27 -225 -27 -213 -19 c 0,36,37
 -184 -1 -184 -1 -82 23 c 128,-1,38
 20 47 20 47 77 50 c 0,39,40
 88 50 88 50 172.5 95 c 128,-1,41
 257 140 257 140 358.5 203.5 c 128,-1,42
 460 267 460 267 542 348 c 128,-1,43
 624 429 624 429 624 488 c 0,44,45
 624 537 624 537 523 537 c 0,46,47
 487.142857143 537 487.142857143 537 434.571428571 525 c 128,-1,48
 382 513 382 513 337 495 c 128,-1,49
 292 477 292 477 232.5 438.5 c 128,-1,50
 173 400 173 400 120 347 c 0,51,52
 93 319 93 319 93 303 c 0,53,54
 93 292 93 292 109 292 c 0,55,56
 147 293 147 293 234.5 331.5 c 128,-1,57
 322 370 322 370 371 426 c 0,58,59
 389 448 389 448 395 448 c 1,60,61
 401 444 401 444 401 440 c 0,62,63
 401 376 401 376 306 302 c 128,-1,64
 211 228 211 228 142 228 c 0,65,66
 130.375 228 130.375 228 110.1875 237.5 c 128,-1,67
 90 247 90 247 77 259 c 128,-1,68
 64 271 64 271 53 296.5 c 128,-1,69
 42 322 42 322 42 356 c 0,0,1
EndSplineSet
EndChar

StartChar: R
Encoding: 82 82 30
Width: 650
Flags: HMW
HStem: -41 21G<636 665> 285 57<15 29 15 80.5> 592 98<566.5 629.5 406.5 704.5>
VStem: 804 46<537.5 560.5>
LayerCount: 2
Fore
SplineSet
-51 371 m 1,0,1
 -51 402 -51 402 -27 431 c 128,-1,2
 -3 460 -3 460 26 487 c 128,-1,3
 55 514 55 514 111.5 551.5 c 128,-1,4
 168 589 168 589 232 618.5 c 128,-1,5
 296 648 296 648 389 669 c 128,-1,6
 482 690 482 690 581 690 c 0,7,8
 667.058823529 690 667.058823529 690 751.5 657 c 0,9,10
 795 640 795 640 822.5 607.5 c 128,-1,11
 850 575 850 575 850 532 c 0,12,13
 850 465 850 465 769 398 c 128,-1,14
 688 331 688 331 486 249 c 1,15,16
 466 244 466 244 466 235 c 0,17,18
 466 232 466 232 470 228 c 0,19,20
 612 64 612 64 704 -1 c 1,21,22
 715 -10 715 -10 715 -19 c 0,23,24
 715 -41 715 -41 650 -41 c 128,-1,25
 585 -41 585 -41 542 1 c 1,26,27
 360 194 360 194 313 259 c 1,28,29
 312 263 312 263 309.5 263 c 128,-1,30
 307 263 307 263 304 259 c 0,31,32
 142 60 142 60 117 -2 c 1,33,34
 117 -18 117 -18 111.5 -18 c 128,-1,35
 106 -18 106 -18 94 -12 c 128,-1,36
 82 -6 82 -6 69 11 c 128,-1,37
 56 28 56 28 56 52.5 c 128,-1,38
 56 77 56 77 76 113 c 1,39,40
 218.475262369 318.797601199 218.475262369 318.797601199 376.5 459 c 0,41,42
 443 518 443 518 502 551 c 1,43,44
 511 559 511 559 518.5 559 c 128,-1,45
 526 559 526 559 536.5 552 c 128,-1,46
 547 545 547 545 547 535.5 c 128,-1,47
 547 526 547 526 539 519 c 0,48,49
 408 387 408 387 359 322 c 1,50,51
 346 308 346 308 346 303 c 128,-1,52
 346 298 346 298 351 298 c 2,53,-1
 355 298 l 1,54,55
 475.12 330.76 475.12 330.76 548.56 363.88 c 0,56,57
 705.912 434.842666667 705.912 434.842666667 787 514 c 0,58,59
 804 530 804 530 804 545 c 0,60,61
 804 568 804 568 765.5 580 c 128,-1,62
 727 592 727 592 643.5 592 c 128,-1,63
 560 592 560 592 439 567 c 128,-1,64
 318 542 318 542 198 486.5 c 128,-1,65
 78 431 78 431 20 358 c 0,66,67
 12 349 12 349 12 345.5 c 128,-1,68
 12 342 12 342 23 342 c 128,-1,69
 34 342 34 342 91.5 367 c 128,-1,70
 149 392 149 392 190 416 c 1,71,72
 254 459 254 459 270 459 c 0,73,74
 276 459 276 459 276 456.5 c 128,-1,75
 276 454 276 454 263.5 439 c 128,-1,76
 251 424 251 424 228.5 401 c 128,-1,77
 206 378 206 378 173 349.5 c 0,78,79
 98.3157894737 285 98.3157894737 285 35 285 c 0,80,81
 1 285 1 285 -20.5 306.5 c 128,-1,82
 -42 328 -42 328 -46.5 349.5 c 2,83,-1
 -51 371 l 1,0,1
EndSplineSet
EndChar

StartChar: S
Encoding: 83 83 31
Width: 566
Flags: HMW
HStem: -63 98<-50 -20> 243 61<321.5 332> 537 96<579 699.5>
VStem: 49 96<322 347.5 322 380.5> 465 75<175.5 232.5> 726 80<495.5 527.5>
LayerCount: 2
Fore
SplineSet
413 247 m 1,0,-1
 311 243 l 1,1,2
 217 243 217 243 184.5 249.5 c 128,-1,3
 152 256 152 256 126.5 265 c 128,-1,4
 101 274 101 274 85.5 286 c 0,5,6
 49 314.258064516 49 314.258064516 49 361 c 0,7,8
 49 375 49 375 66 403 c 128,-1,9
 83 431 83 431 124.5 469.5 c 128,-1,10
 166 508 166 508 223.5 542.5 c 128,-1,11
 281 577 281 577 375 603 c 128,-1,12
 469 629 469 629 579 633 c 1,13,14
 618.3125 633 618.3125 633 661.65625 623.5 c 128,-1,15
 705 614 705 614 733.5 601 c 128,-1,16
 762 588 762 588 784 561.5 c 128,-1,17
 806 535 806 535 806 500 c 0,18,19
 806 471.692307692 806 471.692307692 752 439.5 c 0,20,21
 692.451612903 404 692.451612903 404 593.725806452 404 c 128,-1,22
 495 404 495 404 495 418 c 0,23,24
 495 429 495 429 552.5 444 c 128,-1,25
 610 459 610 459 668 479 c 128,-1,26
 726 499 726 499 726 524 c 0,27,28
 726 537 726 537 682 537 c 0,29,30
 392 537 392 537 184 387 c 0,31,32
 145 358 145 358 145 337 c 0,33,34
 145 304 145 304 353 304 c 1,35,36
 540 302 540 302 540 204 c 0,37,38
 540 134 540 134 445 71 c 128,-1,39
 350 8 350 8 221.5 -27 c 128,-1,40
 93 -62 93 -62 -20 -63 c 0,41,42
 -73 -63 -73 -63 -132 -35 c 128,-1,43
 -191 -7 -191 -7 -191 33 c 0,44,45
 -191 46 -191 46 -169 47 c 1,46,47
 -51 60 -51 60 -18 75 c 1,48,49
 -10 77 -10 77 -5 77 c 128,-1,50
 0 77 0 77 0 75 c 0,51,52
 0 71 0 71 -12 62 c 1,53,54
 -23 56 -23 56 -36.5 51 c 0,55,56
 -64 40.8148148148 -64 40.8148148148 -64 37.9074074074 c 128,-1,57
 -64 35 -64 35 -44 35 c 128,-1,58
 -24 35 -24 35 57 51 c 128,-1,59
 138 67 138 67 230.5 92 c 128,-1,60
 323 117 323 117 394 154 c 128,-1,61
 465 191 465 191 465 225 c 0,62,63
 465 247 465 247 413 247 c 1,0,-1
EndSplineSet
EndChar

StartChar: O
Encoding: 79 79 32
Width: 497
Flags: HMW
HStem: -52 76<80.5 138 80.5 227> 605 34 605 76<659 678>
VStem: -18 92<47 51.5 33.5 177.5> 681 65<567 603>
LayerCount: 2
Fore
SplineSet
562 635 m 1,0,1
 634 681 634 681 684 681 c 0,2,3
 730.333333333 681 730.333333333 681 742 646 c 0,4,5
 746 634 746 634 746 627 c 0,6,7
 746 589 746 589 703 508 c 128,-1,8
 660 427 660 427 589 332.5 c 128,-1,9
 518 238 518 238 436 151 c 128,-1,10
 354 64 354 64 265 6 c 128,-1,11
 176 -52 176 -52 109 -52 c 0,12,13
 62 -52 62 -52 22 -12 c 128,-1,14
 -18 28 -18 28 -18 85.5 c 128,-1,15
 -18 143 -18 143 14 214.5 c 128,-1,16
 46 286 46 286 102.5 359 c 128,-1,17
 159 432 159 432 227 495.5 c 128,-1,18
 295 559 295 559 375.5 599 c 128,-1,19
 456 639 456 639 529 639 c 0,20,21
 549 639 549 639 562 635 c 1,0,1
83 24 m 0,22,23
 134 24 134 24 282 154 c 128,-1,24
 430 284 430 284 555.5 425.5 c 128,-1,25
 681 567 681 567 681 602 c 0,26,27
 681 605 681 605 677 605 c 0,28,29
 643 605 643 605 581.5 565 c 128,-1,30
 520 525 520 525 464 475 c 128,-1,31
 408 425 408 425 367.5 386 c 128,-1,32
 327 347 327 347 321 338 c 128,-1,33
 315 329 315 329 311 329 c 0,34,35
 309 329 309 329 309 334 c 2,36,-1
 311 349 l 1,37,38
 321.51212938 384.741239892 321.51212938 384.741239892 378 466.5 c 2,39,-1
 397 494 l 1,40,41
 404 507 404 507 404 509.5 c 128,-1,42
 404 512 404 512 401.5 512 c 0,43,44
 393.888888889 512 393.888888889 512 375 495 c 0,45,46
 300 427 300 427 242 357.5 c 128,-1,47
 184 288 184 288 153.5 237.5 c 128,-1,48
 123 187 123 187 103.5 141 c 0,49,50
 74 71.4102564103 74 71.4102564103 74 47.7051282051 c 128,-1,51
 74 24 74 24 83 24 c 0,22,23
EndSplineSet
EndChar

StartChar: M
Encoding: 77 77 33
Width: 667
Flags: HMW
HStem: -119 21G<505.5 524.5> 657 20G<621 634>
VStem: 440 87<-21 45.5>
LayerCount: 2
Fore
SplineSet
909 649 m 1,0,-1
 923 645 l 1,1,2
 930 645 930 645 940 655.5 c 128,-1,3
 950 666 950 666 957.5 666 c 128,-1,4
 965 666 965 666 979 657.5 c 128,-1,5
 993 649 993 649 993 642 c 0,6,7
 993 626 993 626 920 537.5 c 128,-1,8
 847 449 847 449 760 348 c 128,-1,9
 673 247 673 247 600 144.5 c 128,-1,10
 527 42 527 42 527 2.5 c 0,11,12
 527 -66.5 527 -66.5 537 -101.5 c 2,13,-1
 540 -112 l 1,14,15
 540 -119 540 -119 523 -119 c 128,-1,16
 506 -119 506 -119 496.5 -116.5 c 128,-1,17
 487 -114 487 -114 474.5 -106 c 0,18,19
 450.214285714 -90.4571428571 450.214285714 -90.4571428571 440 -21 c 1,20,21
 440 12 440 12 446 40.5 c 128,-1,22
 452 69 452 69 474.5 109 c 128,-1,23
 497 149 497 149 518.5 181 c 128,-1,24
 540 213 540 213 594 277.5 c 0,25,26
 665.225576585 362.574994254 665.225576585 362.574994254 753.112788292 461.287497127 c 128,-1,27
 841 560 841 560 849.5 569.5 c 128,-1,28
 858 579 858 579 858 581 c 128,-1,29
 858 583 858 583 801.5 532.5 c 128,-1,30
 745 482 745 482 606.5 352 c 128,-1,31
 468 222 468 222 435 183 c 0,32,33
 304 33 304 33 274 -12 c 1,34,35
 269 -25 269 -25 256.5 -25 c 128,-1,36
 244 -25 244 -25 234 -8 c 0,37,38
 217 20.9 217 20.9 217 65 c 1,39,40
 237 138 237 138 295 249.5 c 128,-1,41
 353 361 353 361 424 469 c 1,42,-1
 471 530 l 1,43,44
 478 541 478 541 478 544 c 1,45,-1
 477 545 l 2,46,47
 476 545 476 545 400 463 c 128,-1,48
 324 381 324 381 310 365 c 2,49,-1
 96 131 l 2,50,51
 -31 -8 -31 -8 -87 -37 c 1,52,53
 -184 -69 -184 -69 -204 -73 c 1,54,55
 -215 -73 -215 -73 -215 -69 c 128,-1,56
 -215 -65 -215 -65 -205 -56 c 0,57,58
 -59 93 -59 93 -22 129 c 1,59,60
 -14 134 -14 134 109 254.5 c 128,-1,61
 232 375 232 375 372.5 504 c 128,-1,62
 513 633 513 633 572 665 c 1,63,64
 611 677 611 677 630.5 677 c 128,-1,65
 650 677 650 677 650 666 c 0,66,67
 650 659 650 659 641 650 c 1,68,69
 490 434 490 434 464 377 c 1,70,-1
 403 262 l 2,71,72
 400 255 400 255 400 252.5 c 0,73,74
 400 246 400 246 402 248 c 0,75,76
 481 312 481 312 609.5 428 c 128,-1,77
 738 544 738 544 806 596.5 c 128,-1,78
 874 649 874 649 909 649 c 1,0,-1
EndSplineSet
EndChar

StartChar: L
Encoding: 76 76 34
Width: 595
Flags: HMW
HStem: -147 52<-133 -48> -10 110<25 422> 652 20G<718.5 829.5>
VStem: 837 58<607 627>
LayerCount: 2
Fore
SplineSet
189 100 m 1,0,1
 261.1 182.4 261.1 182.4 375.05 320.2 c 128,-1,2
 489 458 489 458 543 516 c 128,-1,3
 597 574 597 574 636 603.5 c 0,4,5
 726.559322034 672 726.559322034 672 821 672 c 0,6,7
 842 672 842 672 868.5 655 c 128,-1,8
 895 638 895 638 895 602 c 0,9,10
 895 567.090909091 895 567.090909091 828 494 c 0,11,12
 795 458 795 458 732.5 420.5 c 128,-1,13
 670 383 670 383 593 360 c 1,14,15
 564 355 564 355 550.5 355 c 128,-1,16
 537 355 537 355 537 358 c 128,-1,17
 537 361 537 361 544 365 c 0,18,19
 628 411 628 411 732.5 504 c 128,-1,20
 837 597 837 597 837 626 c 0,21,22
 837 630 837 630 831.5 630 c 128,-1,23
 826 630 826 630 819.5 628 c 128,-1,24
 813 626 813 626 805 624 c 128,-1,25
 797 622 797 622 771 607.5 c 128,-1,26
 745 593 745 593 716.5 571.5 c 128,-1,27
 688 550 688 550 645.5 505.5 c 128,-1,28
 603 461 603 461 560 403 c 1,29,30
 395 172 395 172 346 119 c 0,31,32
 338 110 338 110 326 97 c 1,33,34
 351 94 351 94 401 90 c 128,-1,35
 451 86 451 86 468.5 83.5 c 128,-1,36
 486 81 486 81 520 73 c 128,-1,37
 554 65 554 65 573.5 53 c 0,38,39
 626.3125 20.5 626.3125 20.5 674 -34 c 0,40,41
 685 -46 685 -46 685 -50 c 128,-1,42
 685 -54 685 -54 682 -54 c 0,43,44
 677 -54 677 -54 669 -50 c 1,45,46
 654 -46 654 -46 625.5 -39 c 128,-1,47
 597 -32 597 -32 503 -21 c 128,-1,48
 409 -10 409 -10 330.5 -10 c 128,-1,49
 252 -10 252 -10 216 -11 c 1,50,51
 163 -61 163 -61 67 -104 c 128,-1,52
 -29 -147 -29 -147 -77.5 -147 c 128,-1,53
 -126 -147 -126 -147 -169 -121.5 c 128,-1,54
 -212 -96 -212 -96 -212 -53 c 0,55,56
 -212 -21.9285714286 -212 -21.9285714286 -165 15 c 0,57,58
 -56.8181818182 100 -56.8181818182 100 189 100 c 1,0,1
-157 -82 m 0,59,60
 -157 -92 -157 -92 -133 -95 c 1,61,62
 -102 -95 -102 -95 -80 -91.5 c 128,-1,63
 -58 -88 -58 -88 -15.5 -69 c 128,-1,64
 27 -50 27 -50 74 -13 c 1,65,66
 10 -13 10 -13 -73.5 -36 c 128,-1,67
 -157 -59 -157 -59 -157 -82 c 0,59,60
EndSplineSet
EndChar

StartChar: K
Encoding: 75 75 35
Width: 496
Flags: HMW
HStem: -82 21G<369.5 437.5> 651 20G<776.5 786>
VStem: 637 189<535 545.5>
LayerCount: 2
Fore
SplineSet
439 638 m 1,0,1
 444 644 444 644 452 644 c 128,-1,2
 460 644 460 644 467 636 c 2,3,-1
 477 625 l 1,4,5
 482 621 482 621 482 616.5 c 128,-1,6
 482 612 482 612 470.5 599 c 128,-1,7
 459 586 459 586 387.5 507 c 0,8,9
 231.034482759 334.122015915 231.034482759 334.122015915 208 304 c 1,10,11
 196 292 196 292 196 289.5 c 128,-1,12
 196 287 196 287 198 287 c 128,-1,13
 200 287 200 287 208 290 c 0,14,15
 307 318 307 318 472 413.5 c 128,-1,16
 637 509 637 509 637 545 c 0,17,18
 637 547 637 547 632.5 547 c 128,-1,19
 628 547 628 547 617 542 c 128,-1,20
 606 537 606 537 596 537 c 128,-1,21
 586 537 586 537 586 548 c 0,22,23
 586 556 586 556 600 561 c 0,24,25
 638 575 638 575 766 664 c 1,26,27
 773 671 773 671 782 671 c 128,-1,28
 791 671 791 671 808.5 652 c 128,-1,29
 826 633 826 633 826 615 c 0,30,31
 826 500.329411765 826 500.329411765 649 403.5 c 0,32,33
 497.102815177 320.403304774 497.102815177 320.403304774 251 243 c 0,34,35
 234 238 234 238 234 233 c 0,36,37
 234 216 234 216 277.5 161 c 128,-1,38
 321 106 321 106 380.5 50 c 128,-1,39
 440 -6 440 -6 474.5 -18.5 c 128,-1,40
 509 -31 509 -31 509 -51 c 0,41,42
 509 -55 509 -55 501 -59 c 0,43,44
 454 -82 454 -82 423 -82 c 128,-1,45
 392 -82 392 -82 361.5 -63.5 c 128,-1,46
 331 -45 331 -45 301.5 -9.5 c 128,-1,47
 272 26 272 26 249.5 58 c 128,-1,48
 227 90 227 90 197 136.5 c 128,-1,49
 167 183 167 183 155.5 198.5 c 128,-1,50
 144 214 144 214 138.5 214 c 128,-1,51
 133 214 133 214 130 210 c 0,52,53
 56 122 56 122 20 70.5 c 128,-1,54
 -16 19 -16 19 -40 -40 c 1,55,56
 -41 -49 -41 -49 -48 -49 c 0,57,58
 -57 -49 -57 -49 -77.5 -27 c 128,-1,59
 -98 -5 -98 -5 -102 19 c 1,60,61
 -102 72.2148760331 -102 72.2148760331 21.5 234.5 c 0,62,63
 82 314 82 314 192.5 422.5 c 128,-1,64
 303 531 303 531 439 638 c 1,0,1
EndSplineSet
EndChar

StartChar: H
Encoding: 72 72 36
Width: 555
Flags: HMW
HStem: -16 21G<304.5 316> 233 85 681 20G<865 870.5>
LayerCount: 2
Fore
SplineSet
373 359 m 1,0,-1
 474 370 l 1,1,-1
 476 370 l 2,2,3
 502 370 502 370 519 387 c 0,4,5
 772 647 772 647 853 695 c 1,6,7
 861 701 861 701 868 701 c 128,-1,8
 875 701 875 701 879 697 c 0,9,10
 901 681 901 681 901 676.5 c 128,-1,11
 901 672 901 672 898 669 c 0,12,13
 637 413 637 413 637 393 c 0,14,15
 637 388 637 388 645 388 c 0,16,17
 705 387 705 387 711 381 c 128,-1,18
 717 375 717 375 729 373 c 1,19,20
 745 373 745 373 778 361.5 c 128,-1,21
 811 350 811 350 811 331 c 0,22,23
 811 326 811 326 806.5 324.5 c 128,-1,24
 802 323 802 323 767 318 c 128,-1,25
 732 313 732 313 677 306 c 128,-1,26
 622 299 622 299 589.5 295 c 128,-1,27
 557 291 557 291 544 288.5 c 128,-1,28
 531 286 531 286 524 274 c 1,29,30
 378 84 378 84 322 -5 c 1,31,32
 320 -16 320 -16 310 -16 c 128,-1,33
 300 -16 300 -16 289.5 3 c 128,-1,34
 279 22 279 22 279 45 c 0,35,36
 279 103 279 103 398 254 c 1,37,38
 405 260 405 260 405 264 c 0,39,40
 405 266 405 266 401 266 c 2,41,-1
 396 266 l 1,42,-1
 266 244 l 1,43,44
 252 244 252 244 243 232 c 0,45,46
 109.580645161 50.064516129 109.580645161 50.064516129 91 16 c 1,47,48
 88 4 88 4 77.5 4 c 128,-1,49
 67 4 67 4 52 19.5 c 128,-1,50
 37 35 37 35 37 55 c 128,-1,51
 37 75 37 75 63.5 128.5 c 128,-1,52
 90 182 90 182 119 217 c 0,53,54
 124 224 124 224 124 228 c 128,-1,55
 124 232 124 232 117 232 c 2,56,-1
 70 234 l 2,57,58
 53 235 53 235 21.5 264.5 c 128,-1,59
 -10 294 -10 294 -10 317 c 0,60,61
 -10 326 -10 326 0 326 c 1,62,63
 72 318 72 318 97.5 318 c 128,-1,64
 123 318 123 318 215 334 c 1,65,66
 224 337 224 337 239 354 c 0,67,68
 541.195488722 668 541.195488722 668 578 668 c 0,69,70
 584 668 584 668 593.5 658 c 128,-1,71
 603 648 603 648 603 642.5 c 128,-1,72
 603 637 603 637 599 633 c 0,73,74
 394 409 394 409 378 390.5 c 128,-1,75
 362 372 362 372 362 365.5 c 128,-1,76
 362 359 362 359 373 359 c 1,0,-1
EndSplineSet
EndChar

StartChar: I
Encoding: 73 73 37
Width: 385
Flags: HMW
HStem: -61 21G<-79 -38> 218 72<104 122.5 104 160> 657 64<550.5 574 471.5 603>
VStem: 33 69<291.5 348 291.5 398.5> 608 38<603.5 651.5>
LayerCount: 2
Fore
SplineSet
552 721 m 0,0,1
 646 721 646 721 646 648 c 0,2,3
 646 581 646 581 549.5 454 c 128,-1,4
 453 327 453 327 326 206 c 0,5,6
 175.99695586 63.0837138508 175.99695586 63.0837138508 62.5 -11.5 c 0,7,8
 45 -23 45 -23 1.5 -42 c 128,-1,9
 -42 -61 -42 -61 -74 -61 c 0,10,11
 -91 -61 -91 -61 -141 -34 c 1,12,13
 -151 -27 -151 -27 -151 -19 c 0,14,15
 -151 -6 -151 -6 -115 -2 c 0,16,17
 -64 3 -64 3 58 93.5 c 128,-1,18
 180 184 180 184 301 295 c 128,-1,19
 422 406 422 406 515 511 c 128,-1,20
 608 616 608 616 608 649 c 0,21,22
 608 657 608 657 600 657 c 0,23,24
 550 657 550 657 430 590 c 128,-1,25
 310 523 310 523 206 433.5 c 128,-1,26
 102 344 102 344 102 292 c 0,27,28
 102 290 102 290 105 290 c 0,29,30
 130 290 130 290 213.5 352 c 128,-1,31
 297 414 297 414 334 456 c 0,32,33
 344 466 344 466 350 466 c 0,34,35
 358 465 358 465 358 459 c 128,-1,36
 358 453 358 453 343.5 427.5 c 128,-1,37
 329 402 329 402 302.5 367 c 128,-1,38
 276 332 276 332 244 298.5 c 128,-1,39
 212 265 212 265 172 241.5 c 128,-1,40
 132 218 132 218 97.5 218 c 128,-1,41
 63 218 63 218 48 246 c 128,-1,42
 33 274 33 274 33 303 c 0,43,44
 33 371 33 371 91.5 448.5 c 128,-1,45
 150 526 150 526 232 584.5 c 128,-1,46
 314 643 314 643 403 682 c 128,-1,47
 492 721 492 721 552 721 c 0,0,1
EndSplineSet
EndChar

StartChar: J
Encoding: 74 74 38
Width: 420
Flags: HMW
HStem: -245 33<-136.5 -91.5 -136.5 -46> 650 68<532.5 606 455.5 624.5>
VStem: -193 54<-209 -185.5 -209 -149.5> 58 73<248 290.5 248 329>
LayerCount: 2
Fore
SplineSet
587 718 m 0,0,1
 620 718 620 718 645 701.5 c 128,-1,2
 670 685 670 685 670 658.5 c 128,-1,3
 670 632 670 632 657 606 c 0,4,5
 623 537 623 537 496 346 c 128,-1,6
 369 155 369 155 273 44 c 0,7,8
 269 40 269 40 238.5 5.5 c 128,-1,9
 208 -29 208 -29 183.5 -55 c 128,-1,10
 159 -81 159 -81 116.5 -119 c 128,-1,11
 74 -157 74 -157 37.5 -182.5 c 128,-1,12
 1 -208 1 -208 -44.5 -226.5 c 128,-1,13
 -90 -245 -90 -245 -130 -245 c 0,14,15
 -193 -245 -193 -245 -193 -201 c 0,16,17
 -193 -152 -193 -152 -134.5 -89.5 c 128,-1,18
 -76 -27 -76 -27 -0.5 16 c 128,-1,19
 75 59 75 59 124 59 c 0,20,21
 130 59 130 59 130 54 c 128,-1,22
 130 49 130 49 126 46 c 128,-1,23
 122 43 122 43 101 33 c 0,24,25
 42 3 42 3 -48.5 -86 c 128,-1,26
 -139 -175 -139 -175 -139 -208 c 0,27,28
 -139 -212 -139 -212 -135 -212 c 0,29,30
 -92.847826087 -212 -92.847826087 -212 45.5 -64 c 0,31,32
 179.633217993 79.491349481 179.633217993 79.491349481 276.316608997 196.74567474 c 0,33,34
 420 371 420 371 514.5 487.5 c 128,-1,35
 609 604 609 604 619 627 c 1,36,37
 628 639 628 639 628 644.5 c 128,-1,38
 628 650 628 650 623 650 c 0,39,40
 559 650 559 650 470.5 599 c 128,-1,41
 382 548 382 548 308.5 480.5 c 128,-1,42
 235 413 235 413 183 346.5 c 128,-1,43
 131 280 131 280 131 249 c 0,44,45
 131 245 131 245 134 245 c 0,46,47
 166 245 166 245 358 407 c 1,48,49
 377 427 377 427 382 427 c 128,-1,50
 387 427 387 427 387 423.5 c 128,-1,51
 387 420 387 420 374 401 c 0,52,53
 216 172 216 172 127 172 c 0,54,55
 95 172 95 172 76.5 198.5 c 128,-1,56
 58 225 58 225 58 269.5 c 128,-1,57
 58 314 58 314 104.5 390 c 128,-1,58
 151 466 151 466 223 539 c 128,-1,59
 295 612 295 612 394.5 665 c 128,-1,60
 494 718 494 718 587 718 c 0,0,1
EndSplineSet
EndChar

StartChar: T
Encoding: 84 84 39
Width: 228
Flags: HMW
HStem: -46 21G<-5.5 8.5> 488 172 556 104
LayerCount: 2
Fore
SplineSet
-27.5 515 m 128,-1,1
 -63 542 -63 542 -63 559 c 128,-1,2
 -63 576 -63 576 -39 585 c 1,3,4
 7 605 7 605 53.5 615.5 c 2,5,-1
 69 619 l 2,6,7
 74 621 74 621 78 621 c 0,8,9
 85 621 85 621 85 613.5 c 128,-1,10
 85 606 85 606 93 606 c 128,-1,11
 101 606 101 606 166 619.5 c 0,12,13
 361 660 361 660 535 660 c 0,14,15
 637 660 637 660 708.5 635.5 c 128,-1,16
 780 611 780 611 780 566 c 0,17,18
 780 556 780 556 752.5 556 c 128,-1,19
 725 556 725 556 686.5 555 c 128,-1,20
 648 554 648 554 589.5 551.5 c 0,21,22
 454 545.709401709 454 545.709401709 454 525 c 0,23,24
 454 521 454 521 456 519 c 1,25,26
 456 514 456 514 445 502.5 c 128,-1,27
 434 491 434 491 411 466 c 128,-1,28
 388 441 388 441 325 370.5 c 128,-1,29
 262 300 262 300 209 237.5 c 0,30,31
 71.8896746818 75.8132956153 71.8896746818 75.8132956153 20 -12 c 1,32,33
 17 -46 17 -46 0 -46 c 0,34,35
 -13 -46 -13 -46 -34.5 -26 c 128,-1,36
 -56 -6 -56 -6 -56 23 c 0,37,38
 -56 77 -56 77 25 175 c 128,-1,39
 106 273 106 273 345 490 c 0,40,41
 356 501 356 501 365 508 c 0,42,43
 379 518.888888889 379 518.888888889 379 520.944444444 c 128,-1,44
 379 523 379 523 373 523 c 128,-1,45
 367 523 367 523 349 521 c 2,46,-1
 43 491 l 1,47,48
 36 488 36 488 22 488 c 128,-1,0
 8 488 8 488 -27.5 515 c 128,-1,1
EndSplineSet
EndChar

StartChar: V
Encoding: 86 86 40
Width: 456
Flags: HMW
HStem: -68 21G<59 115> 551 81<742.5 932> 590 69<348 355.5 249.5 372>
LayerCount: 2
Fore
SplineSet
333 659 m 0,0,1
 465 659 465 659 465 551 c 0,2,3
 465 532 465 532 446 479 c 128,-1,4
 427 426 427 426 375 339.5 c 128,-1,5
 323 253 323 253 253 182 c 1,6,7
 213 134.978204617 213 134.978204617 213 131.489102309 c 128,-1,8
 213 128 213 128 216 128 c 1,9,10
 268.369668246 189.611374408 268.369668246 189.611374408 365.684834123 289.805687204 c 128,-1,11
 463 390 463 390 537.5 456.5 c 128,-1,12
 612 523 612 523 698.5 577.5 c 128,-1,13
 785 632 785 632 833 632 c 128,-1,14
 881 632 881 632 910 616 c 128,-1,15
 939 600 939 600 939 569 c 0,16,17
 939 551 939 551 927 551 c 0,18,19
 855 549 855 549 764 502.5 c 128,-1,20
 673 456 673 456 589.5 387.5 c 128,-1,21
 506 319 506 319 419.5 239 c 128,-1,22
 333 159 333 159 265 91 c 0,23,24
 106 -68 106 -68 61 -68 c 0,25,26
 54 -68 54 -68 48 -65 c 1,27,28
 42 -60 42 -60 29 -51.5 c 128,-1,29
 16 -43 16 -43 8 -37.5 c 128,-1,30
 0 -32 0 -32 0 -25.5 c 128,-1,31
 0 -19 0 -19 12 -6 c 0,32,33
 128 114 128 114 207 240 c 0,34,35
 282.952380952 361.523809524 282.952380952 361.523809524 338 478.5 c 2,36,-1
 358 521 l 2,37,38
 377 561 377 561 377 575.5 c 128,-1,39
 377 590 377 590 369 590 c 0,40,41
 346 590 346 590 272.5 549 c 128,-1,42
 199 508 199 508 116.5 441 c 128,-1,43
 34 374 34 374 4 317 c 1,44,45
 -4 309 -4 309 -7.5 309 c 128,-1,46
 -11 309 -11 309 -11 315 c 0,47,48
 -11 346 -11 346 20 403 c 128,-1,49
 51 460 51 460 98 517.5 c 128,-1,50
 145 575 145 575 209.5 617 c 128,-1,51
 274 659 274 659 333 659 c 0,0,1
EndSplineSet
EndChar

StartChar: U
Encoding: 85 85 41
Width: 573
Flags: HMW
HStem: -156 21G<478 528.5> -29 124<103.5 133> 630 59<367 438.5 346 440>
VStem: -53 154<98 129.5> 388 106<14 90.5> 450 90<620 623>
LayerCount: 2
Fore
SplineSet
494 44 m 0,0,1
 494 -12 494 -12 507 -75.5 c 128,-1,2
 520 -139 520 -139 534 -153 c 1,3,4
 534 -156 534 -156 527 -156 c 0,5,6
 481 -156 481 -156 448 -119.5 c 0,7,8
 388 -53.1363636364 388 -53.1363636364 388 56 c 0,9,10
 388 108.090909091 388 108.090909091 412.5 166 c 0,11,12
 418 179 418 179 431.5 209 c 128,-1,13
 445 239 445 239 452 257 c 0,14,15
 452 258 452 258 450 258 c 0,16,17
 445 258 445 258 419 228.5 c 128,-1,18
 393 199 393 199 352 157 c 128,-1,19
 311 115 311 115 262 72.5 c 128,-1,20
 213 30 213 30 150 0.5 c 128,-1,21
 87 -29 87 -29 29 -29 c 0,22,23
 -27.4166666667 -29 -27.4166666667 -29 -42 -4 c 0,24,25
 -53 14.8571428571 -53 14.8571428571 -53 39 c 0,26,27
 -53 89 -53 89 -1.5 160 c 128,-1,28
 50 231 50 231 124 299.5 c 128,-1,29
 198 368 198 368 271.5 432 c 128,-1,30
 345 496 345 496 397 547.5 c 128,-1,31
 449 599 449 599 450 620 c 0,32,33
 450 630 450 630 435 630 c 0,34,35
 338 630 338 630 220 563.5 c 128,-1,36
 102 497 102 497 5 398 c 0,37,38
 -4 389 -4 389 -9 389 c 0,39,40
 -12 389 -12 389 -12 394 c 2,41,-1
 -10 404 l 1,42,43
 18 478 18 478 73 536.5 c 128,-1,44
 128 595 128 595 188.5 626 c 0,45,46
 311.451612903 689 311.451612903 689 387 689 c 0,47,48
 540 689 540 689 540 593 c 0,49,50
 540 537.930232558 540 537.930232558 385.5 399 c 0,51,52
 321 341 321 341 256.5 284 c 0,53,54
 101 146.581395349 101 146.581395349 101 99 c 0,55,56
 101 95 101 95 105 95 c 0,57,58
 160 95 160 95 337.5 228.5 c 128,-1,59
 515 362 515 362 706 546 c 2,60,-1
 829 665 l 1,61,62
 838 683 838 683 850 683 c 0,63,64
 854.727272727 683 854.727272727 683 867.863636364 674.5 c 128,-1,65
 881 666 881 666 886.5 663 c 128,-1,66
 892 660 892 660 897.5 655.5 c 0,67,68
 909 646.090909091 909 646.090909091 909 639.045454545 c 128,-1,69
 909 632 909 632 899 623 c 2,70,-1
 663 380 l 1,71,-1
 643 358 l 2,72,73
 494 194.1 494 194.1 494 44 c 0,0,1
EndSplineSet
EndChar

StartChar: A
Encoding: 65 65 42
Width: 454
Flags: HMW
HStem: -156 21G<352 402.5> 625 20G<425.5 586>
VStem: -51 85<57.5 98.5 57.5 163.5> 262 106<14 71.5>
LayerCount: 2
Fore
SplineSet
281 152 m 0,0,1
 282 156 282 156 282 158 c 128,-1,2
 282 160 282 160 280.5 160 c 128,-1,3
 279 160 279 160 274.5 155 c 128,-1,4
 270 150 270 150 263 141 c 128,-1,5
 256 132 256 132 233.5 107 c 128,-1,6
 211 82 211 82 187 59.5 c 0,7,8
 121.683544304 -1.73417721519 121.683544304 -1.73417721519 57 -35 c 0,9,10
 41 -43 41 -43 22 -43 c 0,11,12
 -51 -43 -51 -43 -51 67 c 0,13,14
 -51 165.436781609 -51 165.436781609 42.5 303 c 0,15,16
 86 367 86 367 147.5 428.5 c 128,-1,17
 209 490 209 490 278 538 c 128,-1,18
 347 586 347 586 428 615.5 c 128,-1,19
 509 645 509 645 586 645 c 0,20,21
 599.25 645 599.25 645 620.625 636 c 0,22,23
 658 620.263157895 658 620.263157895 658 602 c 0,24,25
 658 592 658 592 645 591 c 0,26,27
 640 591 640 591 640 587 c 128,-1,28
 640 583 640 583 654.5 571.5 c 128,-1,29
 669 560 669 560 669 549.5 c 128,-1,30
 669 539 669 539 662 531 c 0,31,32
 612 476 612 476 582 439.5 c 128,-1,33
 552 403 552 403 536.5 385 c 128,-1,34
 521 367 521 367 501.5 343.5 c 128,-1,35
 482 320 482 320 458 284.5 c 128,-1,36
 434 249 434 249 414.5 213.5 c 0,37,38
 368 128.846153846 368 128.846153846 368 58.4230769231 c 128,-1,39
 368 -12 368 -12 381 -75.5 c 128,-1,40
 394 -139 394 -139 408 -153 c 1,41,42
 408 -156 408 -156 401 -156 c 0,43,44
 355 -156 355 -156 322 -119.5 c 0,45,46
 262 -53.1363636364 262 -53.1363636364 262 56 c 0,47,48
 262 95 262 95 281 152 c 0,0,1
412 377 m 2,49,-1
 604 570 l 2,50,51
 611 577 611 577 611 580 c 128,-1,52
 611 583 611 583 606 583 c 0,53,54
 529 571 529 571 443 520 c 128,-1,55
 357 469 357 469 287 402 c 128,-1,56
 217 335 217 335 158 265 c 128,-1,57
 99 195 99 195 66.5 139 c 128,-1,58
 34 83 34 83 34 59 c 0,59,60
 34 54.8888888889 34 54.8888888889 39.4444444444 54.8888888889 c 128,-1,61
 44.8888888889 54.8888888889 44.8888888889 54.8888888889 60.9444444444 62.4444444444 c 128,-1,62
 77 70 77 70 171.5 150.5 c 128,-1,63
 266 231 266 231 412 377 c 2,49,-1
EndSplineSet
EndChar

StartChar: B
Encoding: 66 66 43
Width: 691
Flags: HMW
HStem: -44 21G<77.5 92> -13 69<226.5 263.5> 281 72<358.5 402> 317 59<39.5 65.5 39.5 83.5> 317 234 586 90<423.5 579>
VStem: 621 49<252.5 287 171.5 306.5> 707 34<516 548 494 568.5>
LayerCount: 2
Fore
SplineSet
297 637 m 128,-1,1
 421 676 421 676 502 676 c 128,-1,2
 583 676 583 676 632.5 658.5 c 128,-1,3
 682 641 682 641 703.5 614.5 c 0,4,5
 741 568.279069767 741 568.279069767 741 534 c 0,6,7
 741 492.6 741 492.6 684 437.5 c 0,8,9
 655.438356164 409.890410959 655.438356164 409.890410959 601.5 376.5 c 2,10,-1
 591 370 l 1,11,12
 584 368 584 368 584 364 c 1,13,-1
 590 359 l 1,14,15
 629 343 629 343 649.5 321 c 128,-1,16
 670 299 670 299 670 256 c 0,17,18
 670 197 670 197 617.5 143.5 c 128,-1,19
 565 90 565 90 494 57.5 c 128,-1,20
 423 25 423 25 361 6 c 128,-1,21
 299 -13 299 -13 272.5 -13 c 128,-1,22
 246 -13 246 -13 225 -6.5 c 128,-1,23
 204 0 204 0 191 9 c 0,24,25
 163.896226415 27.7641509434 163.896226415 27.7641509434 153 48 c 1,26,27
 149 53 149 53 146 53 c 0,28,29
 139 53 139 53 120 9 c 128,-1,30
 101 -35 101 -35 100 -35 c 1,31,-1
 100 -34 l 1,32,33
 97 -44 97 -44 90 -44 c 0,34,35
 74 -44 74 -44 59.5 -14.5 c 128,-1,36
 45 15 45 15 45 31.5 c 128,-1,37
 45 48 45 48 65 87.5 c 128,-1,38
 85 127 85 127 105 155 c 2,39,-1
 125 183 l 1,40,41
 148 233 148 233 315 392 c 128,-1,42
 482 551 482 551 504 551 c 0,43,44
 514 551 514 551 520.5 544.5 c 128,-1,45
 527 538 527 538 531 525 c 1,46,47
 531 517 531 517 522 512 c 1,48,-1
 381 360 l 1,49,50
 379 356 379 356 379 354.5 c 128,-1,51
 379 353 379 353 382 353 c 0,52,53
 404 353 404 353 482 387 c 128,-1,54
 560 421 560 421 633.5 470 c 128,-1,55
 707 519 707 519 707 551 c 0,56,57
 707 586 707 586 567 586 c 0,58,59
 478 586 478 586 391.5 566.5 c 128,-1,60
 305 547 305 547 243.5 519.5 c 128,-1,61
 182 492 182 492 133 462 c 128,-1,62
 84 432 84 432 60 410 c 128,-1,63
 36 388 36 388 36 382 c 128,-1,64
 36 376 36 376 41 376 c 0,65,66
 73 376 73 376 146.5 410.5 c 128,-1,67
 220 445 220 445 236 456.5 c 128,-1,68
 252 468 252 468 256.5 468 c 128,-1,69
 261 468 261 468 264 463 c 1,70,71
 227 402 227 402 162.5 359.5 c 128,-1,72
 98 317 98 317 62 317 c 128,-1,73
 26 317 26 317 2.5 346.5 c 128,-1,74
 -21 376 -21 376 -21 398 c 0,75,76
 -21 465 -21 465 76 531.5 c 128,-1,0
 173 598 173 598 297 637 c 128,-1,1
621 295 m 0,77,78
 621 305 621 305 608.5 311 c 128,-1,79
 596 317 596 317 583 317.5 c 2,80,-1
 570 318 l 1,81,82
 507.473684211 318 507.473684211 318 410.5 290.5 c 0,83,84
 377 281 377 281 369 281 c 128,-1,85
 361 281 361 281 355.5 287 c 128,-1,86
 350 293 350 293 347.5 298.5 c 128,-1,87
 345 304 345 304 340 304 c 0,88,89
 334 304 334 304 327 297 c 1,90,-1
 154 66 l 1,91,-1
 154 65 l 1,92,93
 159 56 159 56 174 56 c 2,94,-1
 186 56 l 2,95,96
 261 56 261 56 365 97.5 c 128,-1,97
 469 139 469 139 545 196.5 c 128,-1,98
 621 254 621 254 621 295 c 0,77,78
EndSplineSet
EndChar

StartChar: D
Encoding: 68 68 44
Width: 776
Flags: HMW
HStem: -76 21G<72 82.5> -67 102<326 419.5> 250 62<74.5 89 67 150.5> 551 93<468.5 698.5>
VStem: -4 69<314 336 314 427> 839 56<368 434 354.5 448>
LayerCount: 2
Fore
SplineSet
895 434 m 1,0,1
 895 374 895 374 846.5 289 c 128,-1,2
 798 204 798 204 722 125 c 128,-1,3
 646 46 646 46 538 -10 c 128,-1,4
 430 -66 430 -66 326 -67 c 0,5,6
 319.888888889 -67 319.888888889 -67 306.444444444 -61.5 c 128,-1,7
 293 -56 293 -56 284.5 -48 c 0,8,9
 262 -26.8235294118 262 -26.8235294118 262 14 c 1,10,11
 269 51 269 51 293 74 c 0,12,13
 301 82 301 82 301 84 c 1,14,-1
 300 84 l 2,15,16
 298 84 298 84 290 79 c 2,17,-1
 109 -56 l 1,18,19
 91 -76 91 -76 74 -76 c 0,20,21
 69 -76 69 -76 63 -73 c 1,22,-1
 39 -50 l 2,23,24
 36 -48 36 -48 36 -39.5 c 128,-1,25
 36 -31 36 -31 46 -12 c 128,-1,26
 56 7 56 7 87 52.5 c 128,-1,27
 118 98 118 98 176.5 174 c 128,-1,28
 235 250 235 250 328.5 342.5 c 128,-1,29
 422 435 422 435 527 513 c 1,30,31
 548 533 548 533 567 533 c 0,32,33
 572 533 572 533 584 526.5 c 0,34,35
 600 517.833333333 600 517.833333333 600 509.916666667 c 128,-1,36
 600 502 600 502 595 498 c 2,37,-1
 525 430 l 1,38,39
 279 176 279 176 213 85 c 1,40,41
 205 76 205 76 205 72.5 c 128,-1,42
 205 69 205 69 207.5 69 c 128,-1,43
 210 69 210 69 213 72 c 0,44,45
 292 125 292 125 387 169 c 0,46,47
 394 173 394 173 399.5 173 c 128,-1,48
 405 173 405 173 408 169 c 2,49,-1
 427 146 l 2,50,51
 431 140 431 140 431 134.5 c 128,-1,52
 431 129 431 129 427 126 c 2,53,-1
 415.5 114.5 l 2,54,55
 357.333333333 56.3333333333 357.333333333 56.3333333333 355 40 c 1,56,57
 356 35 356 35 360 35 c 0,58,59
 419 35 419 35 534 106 c 128,-1,60
 649 177 649 177 744 274.5 c 128,-1,61
 839 372 839 372 839 436 c 0,62,63
 839 457.636363636 839 457.636363636 816.5 480.818181818 c 128,-1,64
 794 504 794 504 769 517.5 c 0,65,66
 706.962962963 551 706.962962963 551 614.981481481 551 c 128,-1,67
 523 551 523 551 439 530.5 c 128,-1,68
 355 510 355 510 290.5 480 c 128,-1,69
 226 450 226 450 173.5 416.5 c 128,-1,70
 121 383 121 383 93 355.5 c 128,-1,71
 65 328 65 328 65 315 c 0,72,73
 65 312 65 312 68 312 c 0,74,75
 99 312 99 312 185.5 355 c 128,-1,76
 272 398 272 398 300 425 c 1,77,78
 325 443 325 443 332 443 c 0,79,80
 336 443 336 443 336 435.5 c 128,-1,81
 336 428 336 428 323 409 c 128,-1,82
 310 390 310 390 285 363.5 c 128,-1,83
 260 337 260 337 230 311.5 c 128,-1,84
 200 286 200 286 161 268 c 128,-1,85
 122 250 122 250 92 250 c 128,-1,86
 62 250 62 250 29 276.5 c 128,-1,87
 -4 303 -4 303 -4 343 c 0,88,89
 -4 422 -4 422 97 494 c 128,-1,90
 198 566 198 566 331.5 605 c 128,-1,91
 465 644 465 644 559 644 c 128,-1,92
 653 644 653 644 713 626 c 128,-1,93
 773 608 773 608 805.5 583 c 128,-1,94
 838 558 838 558 859.5 526.5 c 0,95,96
 892.393712575 478.306886228 892.393712575 478.306886228 895 434 c 1,0,1
EndSplineSet
EndChar

StartChar: E
Encoding: 69 69 45
Width: 493
Flags: HMW
HStem: -61 21G<64.5 77> -60 115 237 107 465 164
LayerCount: 2
Fore
SplineSet
16 514 m 1,0,1
 16 529 16 529 36 540 c 1,2,-1
 153 586 l 2,3,4
 157 588 157 588 164.5 588 c 128,-1,5
 172 588 172 588 178 581 c 128,-1,6
 184 574 184 574 191 574 c 128,-1,7
 198 574 198 574 220.5 579.5 c 128,-1,8
 243 585 243 585 281 593.5 c 128,-1,9
 319 602 319 602 365.5 610 c 0,10,11
 475.9375 629 475.9375 629 595 629 c 0,12,13
 736.294117647 629 736.294117647 629 797 607.5 c 0,14,15
 821 599 821 599 837.5 583.5 c 128,-1,16
 854 568 854 568 854 546 c 0,17,18
 854 533 854 533 836 533 c 0,19,20
 586 526 586 526 427 501 c 0,21,22
 411 499 411 499 411 490 c 0,23,24
 411 487 411 487 411.5 484.5 c 128,-1,25
 412 482 412 482 404 473 c 2,26,-1
 291 352 l 2,27,28
 284 345 284 345 284 341.5 c 128,-1,29
 284 338 284 338 286.5 338 c 128,-1,30
 289 338 289 338 299 340 c 1,31,32
 364 344 364 344 419 344 c 128,-1,33
 474 344 474 344 482 338 c 0,34,35
 526 305 526 305 533.5 295 c 128,-1,36
 541 285 541 285 541 279 c 0,37,38
 541 266 541 266 519 263 c 0,39,40
 255 237 255 237 234 237.5 c 128,-1,41
 213 238 213 238 207 238 c 0,42,43
 191 238 191 238 171 213 c 2,44,-1
 49 51 l 2,45,46
 44 43 44 43 44 39.5 c 128,-1,47
 44 36 44 36 48 36 c 128,-1,48
 52 36 52 36 60 40 c 1,49,50
 154 55 154 55 235.5 55 c 128,-1,51
 317 55 317 55 357 50 c 1,52,53
 412 50 412 50 475 -31 c 0,54,55
 480 -38 480 -38 480 -44 c 128,-1,56
 480 -50 480 -50 465 -50 c 0,57,58
 216 -50 216 -50 86 -60 c 0,59,60
 81 -61 81 -61 73 -61 c 0,61,62
 30 -61 30 -61 14 -41 c 1,63,64
 11 -35 11 -35 4 -35 c 128,-1,65
 -3 -35 -3 -35 -8.5 -42 c 128,-1,66
 -14 -49 -14 -49 -17 -49 c 128,-1,67
 -20 -49 -20 -49 -29 -43 c 128,-1,68
 -38 -37 -38 -37 -47.5 -22.5 c 128,-1,69
 -57 -8 -57 -8 -57 8.5 c 128,-1,70
 -57 25 -57 25 -50.5 39 c 128,-1,71
 -44 53 -44 53 -33.5 75 c 128,-1,72
 -23 97 -23 97 13.5 150.5 c 128,-1,73
 50 204 50 204 90 242 c 0,74,75
 95 247 95 247 95 251.5 c 128,-1,76
 95 256 95 256 84.5 256 c 128,-1,77
 74 256 74 256 63.5 263.5 c 128,-1,78
 53 271 53 271 53 284.5 c 128,-1,79
 53 298 53 298 88 307 c 2,80,-1
 142 321 l 2,81,82
 142.695652174 320.956521739 142.695652174 320.956521739 143.393194707 320.956521739 c 0,83,84
 158.739130435 320.956521739 158.739130435 320.956521739 175 342 c 1,85,86
 291 455 291 455 317 468 c 1,87,88
 326 474 326 474 326 477.5 c 128,-1,89
 326 481 326 481 320 481 c 128,-1,90
 314 481 314 481 310 480 c 0,91,92
 217 465 217 465 162 465 c 128,-1,93
 107 465 107 465 82 470 c 128,-1,94
 57 475 57 475 45 482.5 c 0,95,96
 19.0571428571 498.714285714 19.0571428571 498.714285714 17 509 c 2,97,-1
 16 514 l 1,0,1
EndSplineSet
EndChar

StartChar: F
Encoding: 70 70 46
Width: 442
Flags: HMW
HStem: -63 21G<-7 -1.5> 324 135 459 152
LayerCount: 2
Fore
SplineSet
-4 508 m 128,-1,1
 -4 523 -4 523 5 530.5 c 128,-1,2
 14 538 14 538 29 545 c 128,-1,3
 44 552 44 552 61 558.5 c 128,-1,4
 78 565 78 565 98 570.5 c 128,-1,5
 118 576 118 576 132.5 580 c 0,6,7
 172.375 591 172.375 591 183.1875 591 c 128,-1,8
 194 591 194 591 194 587 c 128,-1,9
 194 583 194 583 187 577 c 128,-1,10
 180 571 180 571 180 570 c 128,-1,11
 180 569 180 569 183.5 569 c 128,-1,12
 187 569 187 569 193 571 c 0,13,14
 385 611 385 611 564.5 611 c 128,-1,15
 744 611 744 611 813 553 c 0,16,17
 815 551 815 551 825.5 541.5 c 0,18,19
 851 518.428571429 851 518.428571429 851 515 c 0,20,21
 851 506 851 506 830 506 c 0,22,23
 587 506 587 506 427 489 c 1,24,25
 411 489 411 489 411 484 c 0,26,27
 411 482 411 482 418 477.5 c 128,-1,28
 425 473 425 473 425 464 c 128,-1,29
 425 455 425 455 412 447 c 1,30,-1
 285 330 l 1,31,32
 277 325 277 325 277 321.5 c 128,-1,33
 277 318 277 318 284 318 c 2,34,-1
 299.5 319.5 l 2,35,36
 346 324 346 324 387 324 c 0,37,38
 537 324 537 324 537 257 c 0,39,40
 537 252 537 252 535.5 250.5 c 128,-1,41
 534 249 534 249 509.5 247.5 c 128,-1,42
 485 246 485 246 345.390475035 225.779898516 c 128,-1,43
 205.78095007 205.559797031 205.78095007 205.559797031 183.779572686 198.972054937 c 128,-1,44
 161.778195301 192.384312842 161.778195301 192.384312842 150 179 c 1,45,46
 21 10 21 10 5 -31 c 0,47,48
 4 -31 4 -31 1.5 -47 c 128,-1,49
 -1 -63 -1 -63 -3 -63 c 0,50,51
 -12 -63 -12 -63 -39 -45.5 c 128,-1,52
 -66 -28 -66 -28 -66 -14 c 128,-1,53
 -66 0 -66 0 -62.5 13 c 128,-1,54
 -59 26 -59 26 -53.5 42.5 c 128,-1,55
 -48 59 -48 59 -20.5 106.5 c 128,-1,56
 7 154 7 154 48 197 c 1,57,58
 50 197 50 197 50 200.5 c 128,-1,59
 50 204 50 204 38 226.5 c 128,-1,60
 26 249 26 249 26 253 c 0,61,62
 26 273 26 273 40 278.5 c 128,-1,63
 54 284 54 284 123 296 c 1,64,-1
 136 298 l 1,65,-1
 137 298 l 2,66,67
 145 298 145 298 168 321 c 1,68,69
 323 459 323 459 350 473 c 0,70,71
 360 478 360 478 360 481 c 128,-1,72
 360 484 360 484 354 484 c 128,-1,73
 348 484 348 484 344 483 c 0,74,75
 174 459 174 459 59 459 c 0,76,77
 28.7857142857 459 28.7857142857 459 12.3928571429 476 c 128,-1,0
 -4 493 -4 493 -4 508 c 128,-1,1
EndSplineSet
EndChar

StartChar: G
Encoding: 71 71 47
Width: 551
Flags: HMW
HStem: -416 21G<-121.5 -107> -73 92<6.5 50 6.5 61> 552 70<662 663 663 687 662 699.5>
VStem: -181 50
LayerCount: 2
Fore
SplineSet
737 556 m 1,0,1
 767 546 767 546 770 535.5 c 2,2,-1
 771 532 l 1,3,4
 771 511 771 511 729 473 c 1,5,6
 558 281 558 281 486 176 c 0,7,8
 465 146 465 146 427 88.5 c 128,-1,9
 389 31 389 31 365.5 -3.5 c 128,-1,10
 342 -38 342 -38 303.5 -90.5 c 128,-1,11
 265 -143 265 -143 235.5 -177 c 128,-1,12
 206 -211 206 -211 163.5 -253 c 128,-1,13
 121 -295 121 -295 82 -323 c 0,14,15
 -6.27046263345 -386.37366548 -6.27046263345 -386.37366548 -107 -416 c 1,16,17
 -133 -416 -133 -416 -156.5 -403.5 c 128,-1,18
 -180 -391 -180 -391 -181 -368 c 1,19,20
 -180 -314 -180 -314 -97 -234.5 c 128,-1,21
 -14 -155 -14 -155 126 -113 c 0,22,23
 145.578947368 -108.105263158 145.578947368 -108.105263158 154 -98 c 2,24,-1
 440 243 l 1,25,-1
 455 263 l 2,26,27
 457 267 457 267 457 268.5 c 128,-1,28
 457 270 457 270 455.5 270 c 128,-1,29
 454 270 454 270 411 226.5 c 128,-1,30
 368 183 368 183 336.5 149 c 128,-1,31
 305 115 305 115 254 67.5 c 128,-1,32
 203 20 203 20 129.5 -26.5 c 128,-1,33
 56 -73 56 -73 6 -73 c 0,34,35
 -59.7948717949 -73 -59.7948717949 -73 -75.5 14.5 c 0,36,37
 -79 34 -79 34 -79 54 c 0,38,39
 -79 144 -79 144 -1.5 247.5 c 128,-1,40
 76 351 76 351 188.5 431.5 c 128,-1,41
 301 512 301 512 431 566.5 c 128,-1,42
 561 621 561 621 662 622 c 1,43,-1
 663 622 l 2,44,45
 695 622 695 622 716.5 600.5 c 128,-1,46
 738 579 738 579 738 563 c 0,47,48
 738 558 738 558 737 556 c 1,0,1
-131 -364 m 0,49,50
 -131 -370 -131 -370 -126 -370 c 2,51,-1
 -124 -370 l 2,52,53
 -99 -370 -99 -370 2.5 -274.5 c 128,-1,54
 104 -179 104 -179 122 -133 c 0,55,56
 122 -131 122 -131 120 -131 c 0,57,58
 53 -155 53 -155 -39 -247.5 c 128,-1,59
 -131 -340 -131 -340 -131 -364 c 0,49,50
700 539 m 0,60,61
 706 545 706 545 706 548.5 c 128,-1,62
 706 552 706 552 697 552 c 0,63,64
 636 552 636 552 541.5 510.5 c 128,-1,65
 447 469 447 469 348.5 401 c 128,-1,66
 250 333 250 333 155.5 233.5 c 128,-1,67
 61 134 61 134 6 30 c 0,68,69
 3 26 3 26 3 22.5 c 128,-1,70
 3 19 3 19 8 19 c 0,71,72
 64 19 64 19 273.5 182.5 c 128,-1,73
 483 346 483 346 700 539 c 0,60,61
EndSplineSet
EndChar

StartChar: W
Encoding: 87 87 48
Width: 820
Flags: HMW
HStem: -32 52<412 436.5 408.5 525.5> 620 57<397.5 449.5> 673 20G<1071.5 1083.5>
VStem: 329 74<34 78>
LayerCount: 2
Fore
SplineSet
-24 348 m 128,-1,1
 -30 348 -30 348 -30 363 c 128,-1,2
 -30 378 -30 378 -4 416.5 c 128,-1,3
 22 455 22 455 71.5 499.5 c 128,-1,4
 121 544 121 544 182 584 c 128,-1,5
 243 624 243 624 323.5 650.5 c 128,-1,6
 404 677 404 677 483 677 c 1,7,8
 491 674 491 674 503.5 669.5 c 128,-1,9
 516 665 516 665 536.5 650.5 c 128,-1,10
 557 636 557 636 557 624 c 128,-1,11
 557 612 557 612 552 606 c 1,12,13
 474.95 535.65 474.95 535.65 379.475 436.825 c 128,-1,14
 284 338 284 338 233 272 c 2,15,-1
 161 178 l 2,16,17
 155 169 155 169 155 164 c 2,18,-1
 155 163 l 1,19,-1
 171.296836274 171.219273947 l 2,20,21
 172.603878116 172.069252078 172.603878116 172.069252078 174 173 c 0,22,23
 539 430 539 430 663 537 c 1,24,25
 666 541 666 541 671 541 c 128,-1,26
 676 541 676 541 678 538 c 128,-1,27
 680 535 680 535 697 519.5 c 128,-1,28
 714 504 714 504 714 496.5 c 128,-1,29
 714 489 714 489 708 484 c 0,30,31
 609 390 609 390 506 248 c 128,-1,32
 403 106 403 106 403 29 c 0,33,34
 403 20 403 20 412 20 c 0,35,36
 432 20 432 20 506 74 c 128,-1,37
 580 128 580 128 674.5 211 c 128,-1,38
 769 294 769 294 874.5 414.5 c 128,-1,39
 980 535 980 535 1047 649 c 1,40,41
 1056 668 1056 668 1061 680.5 c 128,-1,42
 1066 693 1066 693 1076.5 693 c 128,-1,43
 1087 693 1087 693 1098.5 663.5 c 128,-1,44
 1110 634 1110 634 1110 612 c 0,45,46
 1110 577 1110 577 1030 472 c 128,-1,47
 950 367 950 367 843 255 c 128,-1,48
 736 143 736 143 616 55.5 c 128,-1,49
 496 -32 496 -32 427 -32 c 0,50,51
 394 -32 394 -32 361.5 -6 c 128,-1,52
 329 20 329 20 329 78 c 0,53,54
 329 150.117647059 329 150.117647059 372 226 c 0,55,56
 389 256 389 256 413 280 c 1,57,-1
 436 307 l 1,58,-1
 439.862825789 314.604938272 l 1,59,-1
 440 316 l 2,60,61
 440 318 440 318 439 318 c 0,62,63
 436 318 436 318 430 312 c 0,64,65
 207 116 207 116 128 51.5 c 128,-1,66
 49 -13 49 -13 35 -13 c 128,-1,67
 21 -13 21 -13 12 1 c 0,68,69
 8 6 8 6 3.5 11.5 c 128,-1,70
 -1 17 -1 17 -3 19.5 c 128,-1,71
 -5 22 -5 22 -7 24.5 c 128,-1,72
 -9 27 -9 27 -9.5 28.5 c 0,73,74
 -11 33 -11 33 -11 43 c 128,-1,75
 -11 53 -11 53 -4 72 c 128,-1,76
 3 91 3 91 9.5 108.5 c 128,-1,77
 16 126 16 126 47 182.5 c 128,-1,78
 78 239 78 239 121 296.5 c 128,-1,79
 164 354 164 354 247 437 c 128,-1,80
 330 520 330 520 433 597 c 0,81,82
 452 612 452 612 452 616 c 128,-1,83
 452 620 452 620 448 620 c 0,84,85
 373 620 373 620 198.5 520 c 128,-1,86
 24 420 24 420 -15 357 c 1,87,0
 -18 348 -18 348 -24 348 c 128,-1,1
EndSplineSet
EndChar

StartChar: X
Encoding: 88 88 49
Width: 449
Flags: HMW
HStem: -170 21G<317 367.5> 607 69<438.5 464>
VStem: 227 111<0 52 -20 57.5>
LayerCount: 2
Fore
SplineSet
463 300 m 0,0,1
 455 293 455 293 435.5 278.5 c 0,2,3
 398.859872611 251.25477707 398.859872611 251.25477707 385 227 c 1,4,5
 338 137 338 137 338 21 c 128,-1,6
 338 -95 338 -95 373 -167 c 1,7,8
 373 -170 373 -170 366 -170 c 0,9,10
 320 -170 320 -170 287 -133.5 c 0,11,12
 227 -67.1363636364 227 -67.1363636364 227 42 c 0,13,14
 227 81 227 81 246 138 c 0,15,16
 247 142 247 142 247 144 c 128,-1,17
 247 146 247 146 245.5 146 c 128,-1,18
 244 146 244 146 239 141 c 1,19,20
 235 141 235 141 229 135 c 1,21,22
 229 137 229 137 200 115 c 128,-1,23
 171 93 171 93 125.5 59 c 128,-1,24
 80 25 80 25 30 -9.5 c 128,-1,25
 -20 -44 -20 -44 -69.5 -68.5 c 128,-1,26
 -119 -93 -119 -93 -142 -93 c 128,-1,27
 -165 -93 -165 -93 -195 -74.5 c 128,-1,28
 -225 -56 -225 -56 -225 -50 c 0,29,30
 -225 -42 -225 -42 -211 -32 c 0,31,32
 -57 68 -57 68 -40 93 c 1,33,34
 -32 98 -32 98 -28 98 c 128,-1,35
 -24 98 -24 98 -24 95 c 0,36,37
 -24 85 -24 85 -50.5 59.5 c 128,-1,38
 -77 34 -77 34 -106 13 c 1,39,40
 -111 8 -111 8 -111 5.5 c 128,-1,41
 -111 3 -111 3 -109 3 c 128,-1,42
 -107 3 -107 3 -101 6 c 0,43,44
 154 163 154 163 229 218 c 1,45,46
 260 233 260 233 266 257 c 0,47,48
 270.444444444 274.777777778 270.444444444 274.777777778 291.222222222 324.888888889 c 128,-1,49
 312 375 312 375 332.5 414 c 0,50,51
 390.04972805 523.484848485 390.04972805 523.484848485 456 593 c 1,52,53
 466 601 466 601 466 604 c 128,-1,54
 466 607 466 607 463 607 c 0,55,56
 435 607 435 607 349 572.5 c 128,-1,57
 263 538 263 538 162.5 476 c 128,-1,58
 62 414 62 414 21 354 c 1,59,60
 13 347 13 347 8.5 347 c 128,-1,61
 4 347 4 347 4 352 c 0,62,63
 4 388 4 388 49 443 c 128,-1,64
 94 498 94 498 161.5 550 c 128,-1,65
 229 602 229 602 320.5 639 c 128,-1,66
 412 676 412 676 494 676 c 0,67,68
 536.125 676 536.125 676 555.5 645 c 0,69,70
 563 633 563 633 563 619 c 128,-1,71
 563 605 563 605 538 567 c 0,72,73
 453.253565769 438.185419968 453.253565769 438.185419968 435 375 c 0,74,75
 433 370 433 370 433 366 c 128,-1,76
 433 362 433 362 435 362 c 128,-1,77
 437 362 437 362 444 367 c 0,78,79
 777 610 777 610 826 666 c 1,80,81
 833 676 833 676 839.75 676 c 128,-1,82
 846.5 676 846.5 676 851 673 c 1,83,84
 872 652 872 652 872 646 c 128,-1,85
 872 640 872 640 864 632 c 0,86,87
 633 435 633 435 463 300 c 0,0,1
EndSplineSet
EndChar

StartChar: Y
Encoding: 89 89 50
Width: 602
Flags: HMW
HStem: -387 21G<-78 31.5> -27 83<82 121.5 82 139> 638 20G<342.5 428>
VStem: -124 42<-343 -334 -350.5 -271.5> -13 93<57.5 76>
LayerCount: 2
Fore
SplineSet
905 637 m 2,0,1
 912 631 912 631 912 622.5 c 128,-1,2
 912 614 912 614 906 608 c 2,3,-1
 791 484 l 1,4,5
 625 289 625 289 417 -4 c 1,6,7
 363.669144981 -92.8847583643 363.669144981 -92.8847583643 235 -222.5 c 0,8,9
 167 -291 167 -291 83.5 -339 c 128,-1,10
 0 -387 0 -387 -71 -387 c 0,11,12
 -86 -387 -86 -387 -105 -369 c 128,-1,13
 -124 -351 -124 -351 -124 -318 c 0,14,15
 -124 -274 -124 -274 -65.5 -215.5 c 128,-1,16
 -7 -157 -7 -157 72 -116 c 128,-1,17
 151 -75 151 -75 206 -75 c 2,18,-1
 210 -75 l 1,19,20
 399 144 399 144 443 193 c 2,21,-1
 602 368 l 2,22,23
 603 369 603 369 604.5 371 c 128,-1,24
 606 373 606 373 609.5 377.5 c 0,25,26
 617.666666667 388 617.666666667 388 616 388 c 0,27,28
 614 388 614 388 599 374 c 2,29,-1
 454 231.5 l 2,30,31
 190.431372549 -27 190.431372549 -27 69 -27 c 0,32,33
 40 -27 40 -27 13.5 -4 c 128,-1,34
 -13 19 -13 19 -13 61 c 0,35,36
 -13 141 -13 141 134 288 c 1,37,-1
 401 526 l 1,38,39
 449 571 449 571 449 585 c 0,40,41
 449 589 449 589 443 589 c 128,-1,42
 437 589 437 589 414 585 c 128,-1,43
 391 581 391 581 342.5 565.5 c 128,-1,44
 294 550 294 550 240.5 526 c 128,-1,45
 187 502 187 502 117.5 456 c 128,-1,46
 48 410 48 410 -15 352 c 1,47,48
 -25 338 -25 338 -37 338 c 2,49,-1
 -40 338 l 1,50,51
 -44 339 -44 339 -44 343 c 0,52,53
 -44 353 -44 353 -29 368 c 1,54,55
 60 496 60 496 184 577 c 128,-1,56
 308 658 308 658 407 658 c 0,57,58
 449 658 449 658 484 635.5 c 128,-1,59
 519 613 519 613 519 560 c 0,60,61
 519 523 519 523 474 465.5 c 128,-1,62
 429 408 429 408 364.5 349 c 128,-1,63
 300 290 300 290 235 233.5 c 0,64,65
 80 98.7692307692 80 98.7692307692 80 58 c 0,66,67
 80 56 80 56 89.5 56 c 128,-1,68
 99 56 99 56 129.5 71 c 128,-1,69
 160 86 160 86 201 114 c 128,-1,70
 242 142 242 142 282.5 171.5 c 128,-1,71
 323 201 323 201 372.5 240 c 128,-1,72
 422 279 422 279 455.5 305.5 c 0,73,74
 550.322033898 380.508474576 550.322033898 380.508474576 579 406 c 2,75,-1
 791 587 l 1,76,-1
 850 645 l 2,77,78
 860 656 860 656 869 656 c 128,-1,79
 878 656 878 656 882 653 c 2,80,-1
 905 637 l 2,0,1
184 -101 m 1,81,82
 192 -93 192 -93 192 -91.5 c 128,-1,83
 192 -90 192 -90 190 -90 c 2,84,-1
 173 -96 l 1,85,86
 76 -148 76 -148 -3 -234 c 128,-1,87
 -82 -320 -82 -320 -82 -349 c 0,88,89
 -82 -352 -82 -352 -79 -352 c 2,90,-1
 -73 -350 l 1,91,92
 -22 -320 -22 -320 42.5 -258 c 128,-1,93
 107 -196 107 -196 145.5 -148.5 c 2,94,-1
 184 -101 l 1,81,82
EndSplineSet
EndChar

StartChar: Z
Encoding: 90 90 51
Width: 500
Flags: HMW
HStem: -31 21G<-80 -70.5> 6 129<230 317.5> 468 137<158 169.5> 468 176
LayerCount: 2
Fore
SplineSet
645 554 m 2,0,-1
 632 552 l 1,1,2
 450 526 450 526 337.5 497 c 128,-1,3
 225 468 225 468 146 468 c 0,4,5
 90.6842105263 468 90.6842105263 468 67 490.5 c 0,6,7
 46.2610837438 510.201970443 46.2610837438 510.201970443 41 533 c 1,8,9
 41 543 41 543 59 557 c 1,10,11
 139 605 139 605 177 605 c 0,12,13
 181 605 181 605 181 602.5 c 128,-1,14
 181 600 181 600 178 594 c 1,15,16
 178 591 178 591 181 591 c 0,17,18
 205.923076923 599.307692308 205.923076923 599.307692308 235.461538462 607.153846154 c 128,-1,19
 265 615 265 615 366.5 629.5 c 128,-1,20
 468 644 468 644 565.5 644 c 128,-1,21
 663 644 663 644 687 626 c 1,22,-1
 754 584 l 2,23,24
 765 576 765 576 765 566.5 c 128,-1,25
 765 557 765 557 750 552 c 128,-1,26
 735 547 735 547 710 536.5 c 128,-1,27
 685 526 685 526 608.5 487.5 c 128,-1,28
 532 449 532 449 455.5 403.5 c 128,-1,29
 379 358 379 358 273 282.5 c 128,-1,30
 167 207 167 207 72 123 c 1,31,32
 49 104 49 104 49 100 c 128,-1,33
 49 96 49 96 51 96 c 128,-1,34
 53 96 53 96 63 98 c 1,35,36
 174 135 174 135 276 135 c 128,-1,37
 378 135 378 135 450 90.5 c 128,-1,38
 522 46 522 46 522 -16 c 0,39,40
 522 -22 522 -22 517 -22 c 1,41,-1
 509 -20 l 1,42,43
 505 -9 505 -9 426.5 -1.5 c 128,-1,44
 348 6 348 6 278 6 c 0,45,46
 47 6 47 6 -59 -28 c 0,47,48
 -66 -31 -66 -31 -75 -31 c 0,49,50
 -97 -31 -97 -31 -109 -9 c 1,51,52
 -132 -4 -132 -4 -132 20 c 0,53,54
 -132 79 -132 79 -2.5 183.5 c 128,-1,55
 127 288 127 288 305.5 387 c 128,-1,56
 484 486 484 486 640 545 c 1,57,58
 649 550 649 550 649 552 c 128,-1,59
 649 554 649 554 645 554 c 2,0,-1
EndSplineSet
EndChar

StartChar: acute
Encoding: 180 180 53
Width: 300
Flags: HMW
HStem: 394 21G<265 275.5> 562 20G<422 441>
LayerCount: 2
Fore
SplineSet
255 409 m 0,0,1
 255 418 255 418 272 435 c 1,2,3
 316 461 316 461 349 494.5 c 128,-1,4
 382 528 382 528 393 548 c 2,5,-1
 404 568 l 1,6,7
 414 582 414 582 430 582 c 128,-1,8
 446 582 446 582 456.5 564 c 128,-1,9
 467 546 467 546 467 527 c 1,10,-1
 465 504 l 1,11,12
 444 465 444 465 396 437.5 c 0,13,14
 320.072727273 394 320.072727273 394 270 394 c 0,15,16
 255 394 255 394 255 409 c 0,0,1
EndSplineSet
EndChar

StartChar: dieresis
Encoding: 168 168 54
Width: 500
Flags: HMW
HStem: 386 109<173 250 237 366.5>
LayerCount: 2
Fore
SplineSet
250 495 m 0,0,1
 260 495 260 495 263 491 c 0,2,3
 277 474 277 474 277 463.5 c 0,4,5
 277 453 277 453 271 445.5 c 0,6,7
 265 438 265 438 256.5 428.5 c 128,-1,8
 248 419 248 419 222.5 402.5 c 128,-1,9
 197 386 197 386 173 386 c 1,10,11
 155 389 155 389 155 408 c 0,12,13
 155 438 155 438 191 466.5 c 128,-1,14
 227 495 227 495 250 495 c 0,0,1
417 495 m 0,15,16
 427 495 427 495 430 491 c 0,17,18
 444 474 444 474 444 463.5 c 0,19,20
 444 453 444 453 438 445.5 c 0,21,22
 432 438 432 438 423.5 428.5 c 128,-1,23
 415 419 415 419 389.5 402.5 c 128,-1,24
 364 386 364 386 340 386 c 1,25,26
 322 389 322 389 322 408 c 0,27,28
 322 438 322 438 358 466.5 c 128,-1,29
 394 495 394 495 417 495 c 0,15,16
EndSplineSet
EndChar

StartChar: aacute
Encoding: 225 225 55
Width: 397
Flags: HMW
HStem: -19 103<-1 89> 287 66 562 20G<488 507>
VStem: -45 119<12.5 102>
LayerCount: 2
Fore
SplineSet
178 42 m 1,0,-1
 186 106 l 2,1,2
 186 109 186 109 184.5 109 c 128,-1,3
 183 109 183 109 179 105 c 0,4,5
 166 91 166 91 146 70.5 c 128,-1,6
 126 50 126 50 77.5 15.5 c 128,-1,7
 29 -19 29 -19 -1 -19 c 1,8,9
 -6 -18 -6 -18 -13.5 -15.5 c 128,-1,10
 -21 -13 -21 -13 -33 1 c 128,-1,11
 -45 15 -45 15 -45 41 c 128,-1,12
 -45 67 -45 67 -5.5 120.5 c 128,-1,13
 34 174 34 174 89 225.5 c 128,-1,14
 144 277 144 277 211.5 315 c 128,-1,15
 279 353 279 353 329 353 c 1,16,17
 348 352 348 352 359 326 c 1,18,19
 369 336 369 336 377 336 c 128,-1,20
 385 336 385 336 396 324 c 1,21,22
 402 323 402 323 408 317.5 c 128,-1,23
 414 312 414 312 414 302 c 128,-1,24
 414 292 414 292 400 280 c 1,25,26
 379 254 379 254 351 221 c 128,-1,27
 323 188 323 188 311 173.5 c 128,-1,28
 299 159 299 159 286 141 c 0,29,30
 263.946428571 110.464285714 263.946428571 110.464285714 262 91 c 1,31,32
 364 140 364 140 583 302 c 1,33,34
 592 295 592 295 592 285 c 128,-1,35
 592 275 592 275 584 268 c 128,-1,36
 576 261 576 261 564.5 251 c 128,-1,37
 553 241 553 241 519 212 c 128,-1,38
 485 183 485 183 453.5 156.5 c 128,-1,39
 422 130 422 130 381.5 97.5 c 128,-1,40
 341 65 341 65 309 42 c 0,41,42
 232.47826087 -13 232.47826087 -13 213.239130435 -13 c 128,-1,43
 194 -13 194 -13 186 -1 c 128,-1,44
 178 11 178 11 178 42 c 1,0,-1
76 84 m 0,45,46
 88 84 88 84 149.5 133 c 128,-1,47
 211 182 211 182 266.5 231 c 2,48,-1
 322 280 l 2,49,50
 326 284 326 284 326 285.5 c 128,-1,51
 326 287 326 287 323 287 c 0,52,53
 285 287 285 287 224 243.5 c 128,-1,54
 163 200 163 200 118.5 151.5 c 128,-1,55
 74 103 74 103 74 86 c 0,56,57
 74 84 74 84 76 84 c 0,45,46
321 409 m 0,58,59
 321 418 321 418 338 435 c 1,60,61
 382 461 382 461 415 494.5 c 128,-1,62
 448 528 448 528 459 548 c 2,63,-1
 470 568 l 1,64,65
 480 582 480 582 496 582 c 128,-1,66
 512 582 512 582 522.5 564 c 128,-1,67
 533 546 533 546 533 527 c 1,68,-1
 531 504 l 1,69,70
 510 465 510 465 462 437.5 c 0,71,72
 386.072727273 394 386.072727273 394 336 394 c 0,73,74
 321 394 321 394 321 409 c 0,58,59
EndSplineSet
EndChar

StartChar: adieresis
Encoding: 228 228 56
Width: 396
Flags: HMW
HStem: -19 103<-1 89> 287 66 386 109<254 331 318 447.5>
VStem: -45 119<12.5 102>
LayerCount: 2
Fore
SplineSet
178 42 m 1,0,-1
 186 106 l 2,1,2
 186 109 186 109 184.5 109 c 128,-1,3
 183 109 183 109 179 105 c 0,4,5
 166 91 166 91 146 70.5 c 128,-1,6
 126 50 126 50 77.5 15.5 c 128,-1,7
 29 -19 29 -19 -1 -19 c 1,8,9
 -6 -18 -6 -18 -13.5 -15.5 c 128,-1,10
 -21 -13 -21 -13 -33 1 c 128,-1,11
 -45 15 -45 15 -45 41 c 128,-1,12
 -45 67 -45 67 -5.5 120.5 c 128,-1,13
 34 174 34 174 89 225.5 c 128,-1,14
 144 277 144 277 211.5 315 c 128,-1,15
 279 353 279 353 329 353 c 1,16,17
 348 352 348 352 359 326 c 1,18,19
 369 336 369 336 377 336 c 128,-1,20
 385 336 385 336 396 324 c 1,21,22
 402 323 402 323 408 317.5 c 128,-1,23
 414 312 414 312 414 302 c 128,-1,24
 414 292 414 292 400 280 c 1,25,26
 379 254 379 254 351 221 c 128,-1,27
 323 188 323 188 311 173.5 c 128,-1,28
 299 159 299 159 286 141 c 0,29,30
 263.946428571 110.464285714 263.946428571 110.464285714 262 91 c 1,31,32
 364 140 364 140 583 302 c 1,33,34
 592 295 592 295 592 285 c 128,-1,35
 592 275 592 275 584 268 c 128,-1,36
 576 261 576 261 564.5 251 c 128,-1,37
 553 241 553 241 519 212 c 128,-1,38
 485 183 485 183 453.5 156.5 c 128,-1,39
 422 130 422 130 381.5 97.5 c 128,-1,40
 341 65 341 65 309 42 c 0,41,42
 232.47826087 -13 232.47826087 -13 213.239130435 -13 c 128,-1,43
 194 -13 194 -13 186 -1 c 128,-1,44
 178 11 178 11 178 42 c 1,0,-1
76 84 m 0,45,46
 88 84 88 84 149.5 133 c 128,-1,47
 211 182 211 182 266.5 231 c 2,48,-1
 322 280 l 2,49,50
 326 284 326 284 326 285.5 c 128,-1,51
 326 287 326 287 323 287 c 0,52,53
 285 287 285 287 224 243.5 c 128,-1,54
 163 200 163 200 118.5 151.5 c 128,-1,55
 74 103 74 103 74 86 c 0,56,57
 74 84 74 84 76 84 c 0,45,46
331 495 m 0,58,59
 341 495 341 495 344 491 c 0,60,61
 358 474 358 474 358 463.5 c 128,-1,62
 358 453 358 453 352 445.5 c 128,-1,63
 346 438 346 438 337.5 428.5 c 128,-1,64
 329 419 329 419 303.5 402.5 c 128,-1,65
 278 386 278 386 254 386 c 1,66,67
 236 389 236 389 236 408 c 0,68,69
 236 438 236 438 272 466.5 c 128,-1,70
 308 495 308 495 331 495 c 0,58,59
498 495 m 0,71,72
 508 495 508 495 511 491 c 0,73,74
 525 474 525 474 525 463.5 c 128,-1,75
 525 453 525 453 519 445.5 c 128,-1,76
 513 438 513 438 504.5 428.5 c 128,-1,77
 496 419 496 419 470.5 402.5 c 128,-1,78
 445 386 445 386 421 386 c 1,79,80
 403 389 403 389 403 408 c 0,81,82
 403 438 403 438 439 466.5 c 128,-1,83
 475 495 475 495 498 495 c 0,71,72
EndSplineSet
EndChar

StartChar: grave
Encoding: 96 96 57
Width: 300
Flags: HMW
HStem: 373 21G<301 305> 576 20G
LayerCount: 2
Fore
SplineSet
307 413 m 1,0,1
 317 399 317 399 317 384 c 1,2,3
 313 373 313 373 301 373 c 1,4,5
 288 376 288 376 257.5 392.5 c 128,-1,6
 227 409 227 409 187.5 448 c 128,-1,7
 148 487 148 487 139 530 c 1,8,-1
 144.022539444 556.889556724 l 1,9,10
 156.596508387 596 156.596508387 596 186 596 c 0,11,12
 205 596 205 596 214 576 c 1,13,14
 221.442231076 542.509960159 221.442231076 542.509960159 246.721115538 496.25498008 c 128,-1,15
 272 450 272 450 307 413 c 1,0,1
EndSplineSet
EndChar

StartChar: agrave
Encoding: 224 224 58
Width: 394
Flags: HMW
HStem: -19 103<-1 89> 287 66 576 20G
VStem: -45 119<12.5 102> 74 104<21 102>
LayerCount: 2
Fore
SplineSet
178 42 m 1,0,-1
 186 106 l 2,1,2
 186 109 186 109 184.5 109 c 128,-1,3
 183 109 183 109 179 105 c 0,4,5
 166 91 166 91 146 70.5 c 128,-1,6
 126 50 126 50 77.5 15.5 c 128,-1,7
 29 -19 29 -19 -1 -19 c 1,8,9
 -6 -18 -6 -18 -13.5 -15.5 c 128,-1,10
 -21 -13 -21 -13 -33 1 c 128,-1,11
 -45 15 -45 15 -45 41 c 128,-1,12
 -45 67 -45 67 -5.5 120.5 c 128,-1,13
 34 174 34 174 89 225.5 c 128,-1,14
 144 277 144 277 211.5 315 c 128,-1,15
 279 353 279 353 329 353 c 1,16,17
 348 352 348 352 359 326 c 1,18,19
 369 336 369 336 377 336 c 128,-1,20
 385 336 385 336 396 324 c 1,21,22
 402 323 402 323 408 317.5 c 128,-1,23
 414 312 414 312 414 302 c 128,-1,24
 414 292 414 292 400 280 c 1,25,26
 379 254 379 254 351 221 c 128,-1,27
 323 188 323 188 311 173.5 c 128,-1,28
 299 159 299 159 286 141 c 0,29,30
 263.946428571 110.464285714 263.946428571 110.464285714 262 91 c 1,31,32
 364 140 364 140 583 302 c 1,33,34
 592 295 592 295 592 285 c 128,-1,35
 592 275 592 275 584 268 c 128,-1,36
 576 261 576 261 564.5 251 c 128,-1,37
 553 241 553 241 519 212 c 128,-1,38
 485 183 485 183 453.5 156.5 c 128,-1,39
 422 130 422 130 381.5 97.5 c 128,-1,40
 341 65 341 65 309 42 c 0,41,42
 232.47826087 -13 232.47826087 -13 213.239130435 -13 c 128,-1,43
 194 -13 194 -13 186 -1 c 128,-1,44
 178 11 178 11 178 42 c 1,0,-1
76 84 m 0,45,46
 88 84 88 84 149.5 133 c 128,-1,47
 211 182 211 182 266.5 231 c 2,48,-1
 322 280 l 2,49,50
 326 284 326 284 326 285.5 c 128,-1,51
 326 287 326 287 323 287 c 0,52,53
 285 287 285 287 224 243.5 c 128,-1,54
 163 200 163 200 118.5 151.5 c 128,-1,55
 74 103 74 103 74 86 c 0,56,57
 74 84 74 84 76 84 c 0,45,46
369 413 m 1,58,59
 379 399 379 399 379 384 c 1,60,61
 375 373 375 373 363 373 c 1,62,63
 350 376 350 376 319.5 392.5 c 128,-1,64
 289 409 289 409 249.5 448 c 128,-1,65
 210 487 210 487 201 530 c 1,66,-1
 206.022539444 556.889556724 l 1,67,68
 218.596508387 596 218.596508387 596 248 596 c 0,69,70
 267 596 267 596 276 576 c 1,71,72
 283.442231076 542.509960159 283.442231076 542.509960159 308.721115538 496.25498008 c 128,-1,73
 334 450 334 450 369 413 c 1,58,59
EndSplineSet
EndChar

StartChar: circumflex
Encoding: 710 710 59
Width: 500
Flags: HMW
HStem: 371 21G<440.5 459.5> 373 172
LayerCount: 2
Fore
SplineSet
456 484 m 1,0,1
 456 445.833333333 456 445.833333333 485 383 c 1,2,3
 484 371 484 371 454 371 c 0,4,5
 436 371 436 371 407.5 409.5 c 128,-1,6
 379 448 379 448 379 457 c 1,7,8
 338 424 338 424 271.5 398.5 c 128,-1,9
 205 373 205 373 172 373 c 0,10,11
 161 373 161 373 154.5 378 c 128,-1,12
 148 383 148 383 148 388 c 0,13,14
 148 407 148 407 161 407 c 1,15,16
 207 417 207 417 257.5 451.5 c 128,-1,17
 308 486 308 486 341 515.5 c 128,-1,18
 374 545 374 545 381.5 545 c 128,-1,19
 389 545 389 545 397.5 541.5 c 0,20,21
 416 533.882352941 416 533.882352941 416 531 c 1,22,23
 422 533 422 533 434 533 c 1,24,25
 463 530 463 530 463 515 c 1,26,-1
 456 484 l 1,0,1
EndSplineSet
EndChar

StartChar: acircumflex
Encoding: 226 226 60
Width: 397
Flags: HMW
HStem: -19 103<-1 89> 287 66 373 172
VStem: -45 119<12.5 102>
LayerCount: 2
Fore
SplineSet
178 42 m 1,0,-1
 186 106 l 2,1,2
 186 109 186 109 184.5 109 c 128,-1,3
 183 109 183 109 179 105 c 0,4,5
 166 91 166 91 146 70.5 c 128,-1,6
 126 50 126 50 77.5 15.5 c 128,-1,7
 29 -19 29 -19 -1 -19 c 1,8,9
 -6 -18 -6 -18 -13.5 -15.5 c 128,-1,10
 -21 -13 -21 -13 -33 1 c 128,-1,11
 -45 15 -45 15 -45 41 c 128,-1,12
 -45 67 -45 67 -5.5 120.5 c 128,-1,13
 34 174 34 174 89 225.5 c 128,-1,14
 144 277 144 277 211.5 315 c 128,-1,15
 279 353 279 353 329 353 c 1,16,17
 348 352 348 352 359 326 c 1,18,19
 369 336 369 336 377 336 c 128,-1,20
 385 336 385 336 396 324 c 1,21,22
 402 323 402 323 408 317.5 c 128,-1,23
 414 312 414 312 414 302 c 128,-1,24
 414 292 414 292 400 280 c 1,25,26
 379 254 379 254 351 221 c 128,-1,27
 323 188 323 188 311 173.5 c 128,-1,28
 299 159 299 159 286 141 c 0,29,30
 263.946428571 110.464285714 263.946428571 110.464285714 262 91 c 1,31,32
 364 140 364 140 583 302 c 1,33,34
 592 295 592 295 592 285 c 128,-1,35
 592 275 592 275 584 268 c 128,-1,36
 576 261 576 261 564.5 251 c 128,-1,37
 553 241 553 241 519 212 c 128,-1,38
 485 183 485 183 453.5 156.5 c 128,-1,39
 422 130 422 130 381.5 97.5 c 128,-1,40
 341 65 341 65 309 42 c 0,41,42
 232.47826087 -13 232.47826087 -13 213.239130435 -13 c 128,-1,43
 194 -13 194 -13 186 -1 c 128,-1,44
 178 11 178 11 178 42 c 1,0,-1
76 84 m 0,45,46
 88 84 88 84 149.5 133 c 128,-1,47
 211 182 211 182 266.5 231 c 2,48,-1
 322 280 l 2,49,50
 326 284 326 284 326 285.5 c 128,-1,51
 326 287 326 287 323 287 c 0,52,53
 285 287 285 287 224 243.5 c 128,-1,54
 163 200 163 200 118.5 151.5 c 128,-1,55
 74 103 74 103 74 86 c 0,56,57
 74 84 74 84 76 84 c 0,45,46
454 484 m 1,58,59
 454 445.833333333 454 445.833333333 483 383 c 1,60,61
 482 371 482 371 452 371 c 0,62,63
 434 371 434 371 405.5 409.5 c 128,-1,64
 377 448 377 448 377 457 c 1,65,66
 336 424 336 424 269.5 398.5 c 128,-1,67
 203 373 203 373 170 373 c 0,68,69
 159 373 159 373 152.5 378 c 128,-1,70
 146 383 146 383 146 388 c 0,71,72
 146 407 146 407 159 407 c 1,73,74
 205 417 205 417 255.5 451.5 c 128,-1,75
 306 486 306 486 339 515.5 c 128,-1,76
 372 545 372 545 379.5 545 c 128,-1,77
 387 545 387 545 395.5 541.5 c 0,78,79
 414 533.882352941 414 533.882352941 414 531 c 1,80,81
 420 533 420 533 432 533 c 1,82,83
 461 530 461 530 461 515 c 1,84,-1
 454 484 l 1,58,59
EndSplineSet
EndChar

StartChar: tilde
Encoding: 732 732 61
Width: 500
Flags: HMW
HStem: 385 54<472.5 494.5> 423 58
LayerCount: 2
Fore
SplineSet
226 417 m 128,-1,1
 234 424 234 424 248 434.5 c 128,-1,2
 262 445 262 445 298 463 c 128,-1,3
 334 481 334 481 354 481 c 128,-1,4
 374 481 374 481 421 460 c 128,-1,5
 468 439 468 439 509 439 c 0,6,7
 526 439 526 439 551.5 463 c 2,8,-1
 560 471 l 1,9,10
 575 471 575 471 575 461 c 0,11,12
 575 449.8 575 449.8 561 434.4 c 128,-1,13
 547 419 547 419 533 409 c 0,14,15
 499.4 385 499.4 385 448 385 c 0,16,17
 430 385 430 385 384.634146341 404.024390244 c 128,-1,18
 339.268292683 423.048780488 339.268292683 423.048780488 309.966091612 423.048780488 c 0,19,20
 295.041463415 423.048780488 295.041463415 423.048780488 264.520731707 412.524390244 c 128,-1,21
 234 402 234 402 226 402 c 128,-1,22
 218 402 218 402 218 404 c 0,23,0
 218 410 218 410 226 417 c 128,-1,1
EndSplineSet
EndChar

StartChar: atilde
Encoding: 227 227 62
Width: 396
Flags: HMW
HStem: -19 103<-1 89> 287 66 385 54<465.5 487.5> 423 58
VStem: -45 119<12.5 102> 74 104<21 102>
LayerCount: 2
Fore
SplineSet
178 42 m 1,0,-1
 186 106 l 2,1,2
 186 109 186 109 184.5 109 c 128,-1,3
 183 109 183 109 179 105 c 0,4,5
 166 91 166 91 146 70.5 c 128,-1,6
 126 50 126 50 77.5 15.5 c 128,-1,7
 29 -19 29 -19 -1 -19 c 1,8,9
 -6 -18 -6 -18 -13.5 -15.5 c 128,-1,10
 -21 -13 -21 -13 -33 1 c 128,-1,11
 -45 15 -45 15 -45 41 c 128,-1,12
 -45 67 -45 67 -5.5 120.5 c 128,-1,13
 34 174 34 174 89 225.5 c 128,-1,14
 144 277 144 277 211.5 315 c 128,-1,15
 279 353 279 353 329 353 c 1,16,17
 348 352 348 352 359 326 c 1,18,19
 369 336 369 336 377 336 c 128,-1,20
 385 336 385 336 396 324 c 1,21,22
 402 323 402 323 408 317.5 c 128,-1,23
 414 312 414 312 414 302 c 128,-1,24
 414 292 414 292 400 280 c 1,25,26
 379 254 379 254 351 221 c 128,-1,27
 323 188 323 188 311 173.5 c 128,-1,28
 299 159 299 159 286 141 c 0,29,30
 263.946428571 110.464285714 263.946428571 110.464285714 262 91 c 1,31,32
 364 140 364 140 583 302 c 1,33,34
 592 295 592 295 592 285 c 128,-1,35
 592 275 592 275 584 268 c 128,-1,36
 576 261 576 261 564.5 251 c 128,-1,37
 553 241 553 241 519 212 c 128,-1,38
 485 183 485 183 453.5 156.5 c 128,-1,39
 422 130 422 130 381.5 97.5 c 128,-1,40
 341 65 341 65 309 42 c 0,41,42
 232.47826087 -13 232.47826087 -13 213.239130435 -13 c 128,-1,43
 194 -13 194 -13 186 -1 c 128,-1,44
 178 11 178 11 178 42 c 1,0,-1
76 84 m 0,45,46
 88 84 88 84 149.5 133 c 128,-1,47
 211 182 211 182 266.5 231 c 2,48,-1
 322 280 l 2,49,50
 326 284 326 284 326 285.5 c 128,-1,51
 326 287 326 287 323 287 c 0,52,53
 285 287 285 287 224 243.5 c 128,-1,54
 163 200 163 200 118.5 151.5 c 128,-1,55
 74 103 74 103 74 86 c 0,56,57
 74 84 74 84 76 84 c 0,45,46
219 417 m 128,-1,59
 227 424 227 424 241 434.5 c 128,-1,60
 255 445 255 445 291 463 c 128,-1,61
 327 481 327 481 355 481 c 0,62,63
 366 481 366 481 413 460 c 128,-1,64
 460 439 460 439 502 439 c 0,65,66
 519 439 519 439 544.5 463 c 2,67,-1
 553 471 l 1,68,69
 568 471 568 471 568 461 c 0,70,71
 568 449.8 568 449.8 554 434.4 c 128,-1,72
 540 419 540 419 526 409 c 0,73,74
 492.4 385 492.4 385 441 385 c 0,75,76
 423 385 423 385 377.634146341 404.024390244 c 128,-1,77
 332.268292683 423.048780488 332.268292683 423.048780488 302.966091612 423.048780488 c 0,78,79
 288.041463415 423.048780488 288.041463415 423.048780488 257.520731707 412.524390244 c 128,-1,80
 227 402 227 402 219 402 c 128,-1,81
 211 402 211 402 211 404 c 0,82,58
 211 410 211 410 219 417 c 128,-1,59
EndSplineSet
EndChar

StartChar: ring
Encoding: 730 730 63
Width: 300
Flags: HMW
HStem: 372 38<309 335 309 345.5> 485 37<322 357 310.5 357.5>
VStem: 254 40<425.5 437> 373 38<445 464.5>
LayerCount: 2
Fore
SplineSet
357 522 m 0,0,1
 389.727272727 522 389.727272727 522 405 494 c 0,2,3
 411 483 411 483 411 468 c 0,4,5
 411 427 411 427 386.5 399.5 c 128,-1,6
 362 372 362 372 302 372 c 0,7,8
 282 372 282 372 268 385.5 c 128,-1,9
 254 399 254 399 254 418 c 128,-1,10
 254 437 254 437 257.5 451 c 128,-1,11
 261 465 261 465 270.5 482.5 c 0,12,13
 291.942857143 522 291.942857143 522 357 522 c 0,0,1
360.5 419 m 128,-1,15
 373 428 373 428 373 456.5 c 128,-1,16
 373 485 373 485 347 485 c 0,17,18
 311 485 311 485 302.5 474.5 c 128,-1,19
 294 464 294 464 294 431 c 0,20,21
 294 414 294 414 309 410 c 1,22,14
 348 410 348 410 360.5 419 c 128,-1,15
EndSplineSet
EndChar

StartChar: aring
Encoding: 229 229 64
Width: 402
Flags: HMW
HStem: -19 103<-1 89> 287 66 372 38<377 403 377 413.5> 485 37<390 425 378.5 425.5>
VStem: -45 119<12.5 102> 322 40<425.5 437> 441 38<445 464.5>
LayerCount: 2
Fore
SplineSet
178 42 m 1,0,-1
 186 106 l 2,1,2
 186 109 186 109 184.5 109 c 128,-1,3
 183 109 183 109 179 105 c 0,4,5
 166 91 166 91 146 70.5 c 128,-1,6
 126 50 126 50 77.5 15.5 c 128,-1,7
 29 -19 29 -19 -1 -19 c 1,8,9
 -6 -18 -6 -18 -13.5 -15.5 c 128,-1,10
 -21 -13 -21 -13 -33 1 c 128,-1,11
 -45 15 -45 15 -45 41 c 128,-1,12
 -45 67 -45 67 -5.5 120.5 c 128,-1,13
 34 174 34 174 89 225.5 c 128,-1,14
 144 277 144 277 211.5 315 c 128,-1,15
 279 353 279 353 329 353 c 1,16,17
 348 352 348 352 359 326 c 1,18,19
 369 336 369 336 377 336 c 128,-1,20
 385 336 385 336 396 324 c 1,21,22
 402 323 402 323 408 317.5 c 128,-1,23
 414 312 414 312 414 302 c 128,-1,24
 414 292 414 292 400 280 c 1,25,26
 379 254 379 254 351 221 c 128,-1,27
 323 188 323 188 311 173.5 c 128,-1,28
 299 159 299 159 286 141 c 0,29,30
 263.946428571 110.464285714 263.946428571 110.464285714 262 91 c 1,31,32
 364 140 364 140 583 302 c 1,33,34
 592 295 592 295 592 285 c 128,-1,35
 592 275 592 275 584 268 c 128,-1,36
 576 261 576 261 564.5 251 c 128,-1,37
 553 241 553 241 519 212 c 128,-1,38
 485 183 485 183 453.5 156.5 c 128,-1,39
 422 130 422 130 381.5 97.5 c 128,-1,40
 341 65 341 65 309 42 c 0,41,42
 232.47826087 -13 232.47826087 -13 213.239130435 -13 c 128,-1,43
 194 -13 194 -13 186 -1 c 128,-1,44
 178 11 178 11 178 42 c 1,0,-1
76 84 m 0,45,46
 88 84 88 84 149.5 133 c 128,-1,47
 211 182 211 182 266.5 231 c 2,48,-1
 322 280 l 2,49,50
 326 284 326 284 326 285.5 c 128,-1,51
 326 287 326 287 323 287 c 0,52,53
 285 287 285 287 224 243.5 c 128,-1,54
 163 200 163 200 118.5 151.5 c 128,-1,55
 74 103 74 103 74 86 c 0,56,57
 74 84 74 84 76 84 c 0,45,46
425 522 m 0,58,59
 457.727272727 522 457.727272727 522 473 494 c 0,60,61
 479 483 479 483 479 468 c 0,62,63
 479 427 479 427 454.5 399.5 c 128,-1,64
 430 372 430 372 370 372 c 0,65,66
 350 372 350 372 336 385.5 c 128,-1,67
 322 399 322 399 322 418 c 128,-1,68
 322 437 322 437 325.5 451 c 128,-1,69
 329 465 329 465 338.5 482.5 c 0,70,71
 359.942857143 522 359.942857143 522 425 522 c 0,58,59
428.5 419 m 128,-1,73
 441 428 441 428 441 456.5 c 128,-1,74
 441 485 441 485 415 485 c 0,75,76
 379 485 379 485 370.5 474.5 c 128,-1,77
 362 464 362 464 362 431 c 0,78,79
 362 414 362 414 377 410 c 1,80,72
 416 410 416 410 428.5 419 c 128,-1,73
EndSplineSet
EndChar

StartChar: eacute
Encoding: 233 233 65
Width: 364
Flags: HMW
HStem: -18 76<106 158 106 168> 130 51<163 177.5 162 183.5> 562 20G<492 511>
VStem: 20 74<71.5 89.5 71.5 138> 316 66<285 299>
LayerCount: 2
Fore
SplineSet
310 302 m 0,0,1
 316 302 316 302 316 297 c 0,2,3
 316 279 316 279 250.5 230 c 128,-1,4
 185 181 185 181 163 181 c 0,5,6
 160 181 160 181 160 183 c 0,7,8
 160 195 160 195 222 248.5 c 128,-1,9
 284 302 284 302 310 302 c 0,0,1
97 -18 m 0,10,11
 162 -18 162 -18 265 37.5 c 128,-1,12
 368 93 368 93 447.5 155 c 128,-1,13
 527 217 527 217 577 267 c 0,14,15
 586 275 586 275 586 282 c 0,16,17
 586 294.8 586 294.8 577 302 c 1,18,19
 573 299 573 299 550.5 283 c 128,-1,20
 528 267 528 267 517 259 c 0,21,22
 360 147 360 147 271 102.5 c 128,-1,23
 182 58 182 58 106 58 c 1,24,25
 94 62 94 62 94 78.5 c 128,-1,26
 94 95 94 95 110 121.5 c 128,-1,27
 126 148 126 148 134 148 c 1,28,-1
 144 145 l 1,29,30
 152 130 152 130 168.5 130 c 128,-1,31
 185 130 185 130 236.5 155.5 c 128,-1,32
 288 181 288 181 335 222.5 c 128,-1,33
 382 264 382 264 382 297 c 0,34,35
 382 315 382 315 361.5 334 c 128,-1,36
 341 353 341 353 317 353 c 0,37,38
 263 353 263 353 193 310.5 c 128,-1,39
 123 268 123 268 71.5 201.5 c 128,-1,40
 20 135 20 135 20 76 c 0,41,42
 20 -18 20 -18 97 -18 c 0,10,11
325 409 m 0,43,44
 325 418 325 418 342 435 c 1,45,46
 386 461 386 461 419 494.5 c 128,-1,47
 452 528 452 528 463 548 c 2,48,-1
 474 568 l 1,49,50
 484 582 484 582 500 582 c 128,-1,51
 516 582 516 582 526.5 564 c 128,-1,52
 537 546 537 546 537 527 c 1,53,-1
 535 504 l 1,54,55
 514 465 514 465 466 437.5 c 0,56,57
 390.072727273 394 390.072727273 394 340 394 c 0,58,59
 325 394 325 394 325 409 c 0,43,44
EndSplineSet
EndChar

StartChar: oacute
Encoding: 243 243 66
Width: 334
Flags: HMW
HStem: -20 64<55.5 79> 109 51<275 304.5> 109 85<213 304.5> 562 20G<438 457>
VStem: 271 61
LayerCount: 2
Fore
SplineSet
57 44 m 0,0,1
 89 44 89 44 136 86 c 128,-1,2
 183 128 183 128 185 144 c 1,3,4
 172.727272727 153.545454545 172.727272727 153.545454545 159.363636364 180.272727273 c 128,-1,5
 146 207 146 207 145 207 c 0,6,7
 114 178 114 178 90.5 139.5 c 0,8,9
 52 76.4255319149 52 76.4255319149 52 52 c 0,10,11
 52 44 52 44 57 44 c 0,0,1
273 289 m 0,12,13
 263 289 263 289 231.5 258 c 128,-1,14
 200 227 200 227 200 215 c 0,15,16
 200 212 200 212 206 203 c 128,-1,17
 212 194 212 194 215 194 c 0,18,19
 232 194 232 194 253.5 235 c 128,-1,20
 275 276 275 276 275 282.5 c 128,-1,21
 275 289 275 289 273 289 c 0,12,13
275 160 m 1,22,23
 303 160 303 160 362.5 194 c 128,-1,24
 422 228 422 228 467 262.5 c 2,25,-1
 512 297 l 1,26,27
 521 290 521 290 521 280 c 128,-1,28
 521 270 521 270 512 262 c 0,29,30
 347 109 347 109 262 109 c 0,31,32
 256 109 256 109 244 111 c 1,33,34
 131 -20 131 -20 50 -20 c 1,35,36
 -4.09405940594 -12.2722772277 -4.09405940594 -12.2722772277 -18.5 17.5 c 0,37,38
 -26 33 -26 33 -26 56 c 0,39,40
 -26 122 -26 122 50 213.5 c 128,-1,41
 126 305 126 305 241 348 c 1,42,43
 251 348 251 348 256 343.5 c 128,-1,44
 261 339 261 339 265 338.5 c 128,-1,45
 269 338 269 338 275.5 342.5 c 128,-1,46
 282 347 282 347 293 347.5 c 128,-1,47
 304 348 304 348 316 335 c 1,48,49
 332 322 332 322 332 303 c 0,50,51
 332 247 332 247 275 160 c 1,22,23
271 409 m 0,52,53
 271 418 271 418 288 435 c 1,54,55
 332 461 332 461 365 494.5 c 128,-1,56
 398 528 398 528 409 548 c 2,57,-1
 420 568 l 1,58,59
 430 582 430 582 446 582 c 128,-1,60
 462 582 462 582 472.5 564 c 128,-1,61
 483 546 483 546 483 527 c 1,62,-1
 481 504 l 1,63,64
 460 465 460 465 412 437.5 c 0,65,66
 336.072727273 394 336.072727273 394 286 394 c 0,67,68
 271 394 271 394 271 409 c 0,52,53
EndSplineSet
EndChar

StartChar: uacute
Encoding: 250 250 67
Width: 404
Flags: HMW
HStem: -18 21G<171 192.5> 562 20G<435 454>
LayerCount: 2
Fore
SplineSet
264 89 m 2,0,1
 252 83 252 83 247.5 83 c 128,-1,2
 243 83 243 83 243 88 c 0,3,4
 243 120 243 120 384 255 c 0,5,6
 431 300 431 300 431 307 c 0,7,8
 431 324 431 324 383 324 c 0,9,10
 372 324 372 324 364.5 319.5 c 128,-1,11
 357 315 357 315 353 306 c 1,12,13
 332 280 332 280 258.5 223 c 128,-1,14
 185 166 185 166 128 127 c 1,15,16
 107 114 107 114 99 114 c 128,-1,17
 91 114 91 114 91 120 c 1,18,-1
 98 139 l 1,19,20
 116 170 116 170 146.5 201.5 c 128,-1,21
 177 233 177 233 197 253 c 128,-1,22
 217 273 217 273 217 283 c 128,-1,23
 217 293 217 293 208 301 c 128,-1,24
 199 309 199 309 188 309 c 0,25,26
 158 308 158 308 88 234 c 128,-1,27
 18 160 18 160 -17 86 c 0,28,29
 -32 54 -32 54 -32 32 c 0,30,31
 -32 -5 -32 -5 8 -5 c 0,32,33
 23 -5 23 -5 46.5 9 c 128,-1,34
 70 23 70 23 88.5 39 c 128,-1,35
 107 55 107 55 126 73 c 128,-1,36
 145 91 145 91 147 92 c 0,37,38
 162 108 162 108 168 108 c 128,-1,39
 174 108 174 108 174 106 c 128,-1,40
 174 104 174 104 173 102.5 c 128,-1,41
 172 101 172 101 169.5 95.5 c 0,42,43
 148 48.2 148 48.2 148 35 c 0,44,45
 148 -18 148 -18 182 -18 c 1,46,-1
 221 -13 l 1,47,48
 266 2 266 2 359 72 c 128,-1,49
 452 142 452 142 522 204.5 c 2,50,-1
 592 267 l 2,51,52
 601 275 601 275 601 282 c 0,53,54
 601 293 601 293 592 302 c 1,55,56
 512 243 512 243 430 189.5 c 128,-1,57
 348 136 348 136 306 112.5 c 2,58,-1
 264 89 l 2,0,1
268 409 m 0,59,60
 268 419.888888889 268 419.888888889 285 435 c 1,61,62
 329 461 329 461 362 494.5 c 128,-1,63
 395 528 395 528 406 548 c 2,64,-1
 417 568 l 1,65,66
 427 582 427 582 443 582 c 128,-1,67
 459 582 459 582 469.5 564 c 128,-1,68
 480 546 480 546 480 527 c 1,69,-1
 478 504 l 1,70,71
 457 465 457 465 409 437.5 c 0,72,73
 333.072727273 394 333.072727273 394 283 394 c 0,74,75
 268 394 268 394 268 409 c 0,59,60
EndSplineSet
EndChar

StartChar: yacute
Encoding: 253 253 68
Width: 329
Flags: HMW
HStem: -373 21G<-232.5 -127> 562 20G<486 505>
VStem: -283 48<-327 -301.5 -327 -260.5> 2 104<34 141>
LayerCount: 2
Fore
SplineSet
379 323 m 1,0,1
 426 318 426 318 426 302 c 0,2,3
 426 295 426 295 418 286 c 0,4,5
 276.695852535 128.995391705 276.695852535 128.995391705 94.5 -114.5 c 0,6,7
 41 -186 41 -186 -14 -250 c 128,-1,8
 -69 -314 -69 -314 -117 -343.5 c 128,-1,9
 -165 -373 -165 -373 -217 -373 c 0,10,11
 -243 -373 -243 -373 -263 -359 c 128,-1,12
 -283 -345 -283 -345 -283 -321 c 0,13,14
 -283 -265 -283 -265 -229 -205 c 128,-1,15
 -175 -145 -175 -145 -108 -107.5 c 128,-1,16
 -41 -70 -41 -70 8 -64 c 1,17,-1
 29 -67 l 1,18,19
 39 -66 39 -66 102.5 10 c 128,-1,20
 166 86 166 86 166.5 90.5 c 128,-1,21
 167 95 167 95 165 95 c 1,22,-1
 146 80 l 1,23,24
 71 10 71 10 29 10 c 0,25,26
 2 10 2 10 2 48 c 0,27,28
 2 99 2 99 85 209 c 128,-1,29
 168 319 168 319 207 319 c 0,30,31
 210 319 210 319 214 317 c 0,32,33
 242 310 242 310 242 297 c 0,34,35
 242 292 242 292 239.5 289.5 c 128,-1,36
 237 287 237 287 219.5 270 c 128,-1,37
 202 253 202 253 185 234.5 c 128,-1,38
 168 216 168 216 149 194 c 0,39,40
 106 144.210526316 106 144.210526316 106 119 c 0,41,42
 106 113 106 113 112.5 113 c 128,-1,43
 119 113 119 113 137 124 c 1,44,45
 279 221 279 221 359 309 c 1,46,47
 366 323 366 323 379 323 c 1,0,1
-231 -329 m 1,48,49
 -196 -318 -196 -318 -137 -260.5 c 128,-1,50
 -78 -203 -78 -203 -36 -151.5 c 2,51,-1
 6 -100 l 2,52,53
 12 -92 12 -92 12 -90 c 128,-1,54
 12 -88 12 -88 9 -88 c 0,55,56
 -23 -88 -23 -88 -82.5 -137 c 128,-1,57
 -142 -186 -142 -186 -188.5 -244 c 128,-1,58
 -235 -302 -235 -302 -235 -326 c 0,59,60
 -235 -329 -235 -329 -231 -329 c 1,48,49
319 409 m 0,61,62
 319 418 319 418 336 435 c 1,63,64
 380 461 380 461 413 494.5 c 128,-1,65
 446 528 446 528 457 548 c 2,66,-1
 468 568 l 1,67,68
 478 582 478 582 494 582 c 128,-1,69
 510 582 510 582 520.5 564 c 128,-1,70
 531 546 531 546 531 527 c 1,71,-1
 529 504 l 1,72,73
 508 465 508 465 460 437.5 c 0,74,75
 384.072727273 394 384.072727273 394 334 394 c 0,76,77
 319 394 319 394 319 409 c 0,61,62
EndSplineSet
EndChar

StartChar: dotlessi
Encoding: 305 305 69
Width: 300
Flags: HMW
HStem: -18 21G<78 105.5> 302 20G
LayerCount: 2
Fore
SplineSet
111 101 m 1,0,1
 103 87 103 87 103 76 c 128,-1,2
 103 65 103 65 115 65 c 0,3,4
 122.5 65 122.5 65 139 71 c 1,5,6
 326 169 326 169 505 302 c 1,7,8
 514 295 514 295 514 285 c 128,-1,9
 514 275 514 275 504 266 c 128,-1,10
 494 257 494 257 475.5 240 c 128,-1,11
 457 223 457 223 405 179 c 128,-1,12
 353 135 353 135 308 99 c 0,13,14
 189.549295775 4.23943661972 189.549295775 4.23943661972 134 -13 c 0,15,16
 116 -18 116 -18 95 -18 c 0,17,18
 18 -18 18 -18 18 64 c 0,19,20
 18 96 18 96 53 155.5 c 128,-1,21
 88 215 88 215 125 260.5 c 128,-1,22
 162 306 162 306 174 311 c 1,23,24
 192 322 192 322 213 322 c 128,-1,25
 234 322 234 322 253 314 c 0,26,27
 259 311 259 311 259 306 c 128,-1,28
 259 301 259 301 249.5 291 c 128,-1,29
 240 281 240 281 220.5 260 c 128,-1,30
 201 239 201 239 162.5 187.5 c 128,-1,31
 124 136 124 136 111 101 c 1,0,1
EndSplineSet
EndChar

StartChar: iacute
Encoding: 237 237 70
Width: 300
Flags: HMW
HStem: -18 21G<78 105.5> 562 20G<414 433>
LayerCount: 2
Fore
SplineSet
115 65 m 0,0,1
 103 65 103 65 103 75 c 128,-1,2
 103 85 103 85 111 101 c 1,3,4
 124 136 124 136 159.5 184.5 c 128,-1,5
 195 233 195 233 223.5 263.5 c 2,6,-1
 252 294 l 2,7,8
 259 301 259 301 259 304.5 c 0,9,10
 259 310 259 310 253 314 c 1,11,12
 234 322 234 322 217.5 322 c 0,13,14
 196 322 196 322 179 314 c 128,-1,15
 162 306 162 306 125 260.5 c 128,-1,16
 88 215 88 215 53 155.5 c 128,-1,17
 18 96 18 96 18 64 c 0,18,19
 18 -18 18 -18 95 -18 c 1,20,-1
 134 -13 l 1,21,22
 179 2 179 2 272 72 c 128,-1,23
 365 142 365 142 435 204.5 c 2,24,-1
 505 267 l 2,25,26
 514 275 514 275 514 282 c 0,27,28
 514 294.8 514 294.8 505 302 c 1,29,30
 425 243 425 243 333.5 185 c 128,-1,31
 242 127 242 127 190.5 99 c 2,32,-1
 139 71 l 1,33,34
 122.5 65 122.5 65 115 65 c 0,0,1
247 409 m 0,35,36
 247 418 247 418 264 435 c 1,37,38
 308 461 308 461 341 494.5 c 128,-1,39
 374 528 374 528 385 548 c 2,40,-1
 396 568 l 1,41,42
 406 582 406 582 422 582 c 128,-1,43
 438 582 438 582 448.5 564 c 128,-1,44
 459 546 459 546 459 527 c 1,45,-1
 457 504 l 1,46,47
 436 465 436 465 388 437.5 c 0,48,49
 312.072727273 394 312.072727273 394 262 394 c 0,50,51
 247 394 247 394 247 409 c 0,35,36
EndSplineSet
EndChar

StartChar: igrave
Encoding: 236 236 71
Width: 300
Flags: HMW
HStem: -18 21G<78 105.5> 576 20G
LayerCount: 2
Fore
SplineSet
111 101 m 1,0,1
 103 87 103 87 103 76 c 128,-1,2
 103 65 103 65 115 65 c 0,3,4
 122.5 65 122.5 65 139 71 c 1,5,6
 326 169 326 169 505 302 c 1,7,8
 514 295 514 295 514 285 c 128,-1,9
 514 275 514 275 504 266 c 128,-1,10
 494 257 494 257 475.5 240 c 128,-1,11
 457 223 457 223 405 179 c 128,-1,12
 353 135 353 135 308 99 c 0,13,14
 189.549295775 4.23943661972 189.549295775 4.23943661972 134 -13 c 0,15,16
 116 -18 116 -18 95 -18 c 0,17,18
 18 -18 18 -18 18 64 c 0,19,20
 18 96 18 96 53 155.5 c 128,-1,21
 88 215 88 215 125 260.5 c 128,-1,22
 162 306 162 306 174 311 c 1,23,24
 192 322 192 322 213 322 c 128,-1,25
 234 322 234 322 253 314 c 0,26,27
 259 311 259 311 259 306 c 128,-1,28
 259 301 259 301 249.5 291 c 128,-1,29
 240 281 240 281 220.5 260 c 128,-1,30
 201 239 201 239 162.5 187.5 c 128,-1,31
 124 136 124 136 111 101 c 1,0,1
324 413 m 1,32,33
 334 399 334 399 334 384 c 1,34,35
 330 373 330 373 318 373 c 1,36,37
 305 376 305 376 274.5 392.5 c 128,-1,38
 244 409 244 409 204.5 448 c 128,-1,39
 165 487 165 487 156 530 c 1,40,-1
 161.022539444 556.889556724 l 1,41,42
 173.596508387 596 173.596508387 596 203 596 c 0,43,44
 222 596 222 596 231 576 c 1,45,46
 238.442231076 542.509960159 238.442231076 542.509960159 263.721115538 496.25498008 c 128,-1,47
 289 450 289 450 324 413 c 1,32,33
EndSplineSet
EndChar

StartChar: egrave
Encoding: 232 232 72
Width: 364
Flags: HMW
HStem: -18 76<106 158 106 168> 130 51<163 177.5 162 183.5> 302 51<290.5 311.5> 576 20G
VStem: 20 74<71.5 89.5 71.5 138> 316 66<285 299>
LayerCount: 2
Fore
SplineSet
310 302 m 0,0,1
 284 302 284 302 222 248.5 c 128,-1,2
 160 195 160 195 160 183 c 0,3,4
 160 181 160 181 163 181 c 0,5,6
 185 181 185 181 250.5 230 c 128,-1,7
 316 279 316 279 316 297 c 0,8,9
 316 302 316 302 310 302 c 0,0,1
97 -18 m 0,10,11
 20 -18 20 -18 20 76 c 0,12,13
 20 135 20 135 71.5 201.5 c 128,-1,14
 123 268 123 268 193 310.5 c 128,-1,15
 263 353 263 353 317 353 c 0,16,17
 341 353 341 353 361.5 334 c 128,-1,18
 382 315 382 315 382 297 c 0,19,20
 382 264 382 264 335 222.5 c 128,-1,21
 288 181 288 181 236.5 155.5 c 128,-1,22
 185 130 185 130 168.5 130 c 128,-1,23
 152 130 152 130 144 145 c 1,24,25
 140 148 140 148 133 148 c 128,-1,26
 126 148 126 148 110 121.5 c 128,-1,27
 94 95 94 95 94 78.5 c 128,-1,28
 94 62 94 62 106 58 c 1,29,30
 182 58 182 58 271 102.5 c 128,-1,31
 360 147 360 147 517 259 c 0,32,33
 528 267 528 267 550.5 283 c 128,-1,34
 573 299 573 299 577 302 c 1,35,36
 586 295 586 295 586 285 c 128,-1,37
 586 275 586 275 577 267 c 0,38,39
 527 217 527 217 447.5 155 c 128,-1,40
 368 93 368 93 265 37.5 c 128,-1,41
 162 -18 162 -18 97 -18 c 0,10,11
382 413 m 1,42,43
 392 399 392 399 392 384 c 1,44,45
 388 373 388 373 376 373 c 1,46,47
 363 376 363 376 332.5 392.5 c 128,-1,48
 302 409 302 409 262.5 448 c 128,-1,49
 223 487 223 487 214 530 c 1,50,-1
 219.022539444 556.889556724 l 1,51,52
 231.596508387 596 231.596508387 596 261 596 c 0,53,54
 280 596 280 596 289 576 c 1,55,56
 296.442231076 542.509960159 296.442231076 542.509960159 321.721115538 496.25498008 c 128,-1,57
 347 450 347 450 382 413 c 1,42,43
EndSplineSet
EndChar

StartChar: ograve
Encoding: 242 242 73
Width: 334
Flags: HMW
HStem: -20 64<55.5 79> 109 51<275 304.5> 576 20G
LayerCount: 2
Fore
SplineSet
57 44 m 0,0,1
 89 44 89 44 136 86 c 128,-1,2
 183 128 183 128 185 144 c 1,3,4
 172.727272727 153.545454545 172.727272727 153.545454545 159.363636364 180.272727273 c 128,-1,5
 146 207 146 207 145 207 c 0,6,7
 114 178 114 178 90.5 139.5 c 0,8,9
 52 76.4255319149 52 76.4255319149 52 52 c 0,10,11
 52 44 52 44 57 44 c 0,0,1
273 289 m 0,12,13
 263 289 263 289 231.5 258 c 128,-1,14
 200 227 200 227 200 215 c 0,15,16
 200 212 200 212 206 203 c 128,-1,17
 212 194 212 194 215 194 c 0,18,19
 232 194 232 194 253.5 235 c 128,-1,20
 275 276 275 276 275 282.5 c 128,-1,21
 275 289 275 289 273 289 c 0,12,13
275 160 m 1,22,23
 303 160 303 160 362.5 194 c 128,-1,24
 422 228 422 228 467 262.5 c 2,25,-1
 512 297 l 1,26,27
 521 290 521 290 521 280 c 128,-1,28
 521 270 521 270 512 262 c 0,29,30
 347 109 347 109 262 109 c 0,31,32
 256 109 256 109 244 111 c 1,33,34
 131 -20 131 -20 50 -20 c 1,35,36
 -4.09405940594 -12.2722772277 -4.09405940594 -12.2722772277 -18.5 17.5 c 0,37,38
 -26 33 -26 33 -26 56 c 0,39,40
 -26 122 -26 122 50 213.5 c 128,-1,41
 126 305 126 305 241 348 c 1,42,43
 251 348 251 348 256 343.5 c 128,-1,44
 261 339 261 339 265 338.5 c 128,-1,45
 269 338 269 338 275.5 342.5 c 128,-1,46
 282 347 282 347 293 347.5 c 128,-1,47
 304 348 304 348 316 335 c 1,48,49
 332 322 332 322 332 303 c 0,50,51
 332 247 332 247 275 160 c 1,22,23
346 413 m 1,52,53
 356 399 356 399 356 384 c 1,54,55
 352 373 352 373 340 373 c 1,56,57
 327 376 327 376 296.5 392.5 c 128,-1,58
 266 409 266 409 226.5 448 c 128,-1,59
 187 487 187 487 178 530 c 1,60,-1
 183.022539444 556.889556724 l 1,61,62
 195.596508387 596 195.596508387 596 225 596 c 0,63,64
 244 596 244 596 253 576 c 1,65,66
 260.442231076 542.509960159 260.442231076 542.509960159 285.721115538 496.25498008 c 128,-1,67
 311 450 311 450 346 413 c 1,52,53
EndSplineSet
EndChar

StartChar: ugrave
Encoding: 249 249 74
Width: 404
Flags: HMW
HStem: -18 21G<171 192.5> 576 20G
LayerCount: 2
Fore
SplineSet
264 89 m 0,0,1
 413 169 413 169 592 302 c 1,2,3
 601 295 601 295 601 285 c 128,-1,4
 601 275 601 275 591 266 c 128,-1,5
 581 257 581 257 562.5 240 c 128,-1,6
 544 223 544 223 492 179 c 128,-1,7
 440 135 440 135 395 99 c 0,8,9
 276.549295775 4.23943661972 276.549295775 4.23943661972 221 -13 c 0,10,11
 203 -18 203 -18 182 -18 c 0,12,13
 148 -18 148 -18 148 35 c 0,14,15
 148 46 148 46 157.5 68 c 128,-1,16
 167 90 167 90 168.5 93.5 c 128,-1,17
 170 97 170 97 171 99 c 128,-1,18
 172 101 172 101 173 102.5 c 128,-1,19
 174 104 174 104 174 106 c 128,-1,20
 174 108 174 108 168 108 c 0,21,22
 162.944444444 108 162.944444444 108 134.972222222 81.5 c 128,-1,23
 107 55 107 55 88.5 39 c 128,-1,24
 70 23 70 23 46.5 9 c 128,-1,25
 23 -5 23 -5 8 -5 c 0,26,27
 -32 -5 -32 -5 -32 32 c 0,28,29
 -32 54 -32 54 -17 86 c 0,30,31
 18 160 18 160 88 234 c 128,-1,32
 158 308 158 308 188 309 c 0,33,34
 199 309 199 309 208 301 c 128,-1,35
 217 293 217 293 217 283 c 128,-1,36
 217 273 217 273 197 253 c 128,-1,37
 177 233 177 233 146.5 201.5 c 128,-1,38
 116 170 116 170 103.5 149 c 128,-1,39
 91 128 91 128 91 121 c 128,-1,40
 91 114 91 114 99 114 c 128,-1,41
 107 114 107 114 128 127 c 1,42,43
 185 166 185 166 258.5 223 c 128,-1,44
 332 280 332 280 353 306 c 1,45,46
 358 324 358 324 383 324 c 0,47,48
 431 324 431 324 431 307 c 0,49,50
 431 300 431 300 384 255 c 0,51,52
 243 120 243 120 243 88 c 0,53,54
 243 83 243 83 247.5 83 c 128,-1,55
 252 83 252 83 264 89 c 0,0,1
364 413 m 1,56,57
 374 399 374 399 374 384 c 1,58,59
 370 373 370 373 358 373 c 1,60,61
 345 376 345 376 314.5 392.5 c 128,-1,62
 284 409 284 409 244.5 448 c 128,-1,63
 205 487 205 487 196 530 c 1,64,-1
 201.022539444 556.889556724 l 1,65,66
 213.596508387 596 213.596508387 596 243 596 c 0,67,68
 262 596 262 596 271 576 c 1,69,70
 278.442231076 542.509960159 278.442231076 542.509960159 303.721115538 496.25498008 c 128,-1,71
 329 450 329 450 364 413 c 1,56,57
EndSplineSet
EndChar

StartChar: ecircumflex
Encoding: 234 234 75
Width: 364
Flags: HMW
HStem: -18 76<106 158 106 168> 130 51<163 177.5 162 183.5> 373 172
VStem: 20 74<71.5 89.5 71.5 138> 316 66<285 299> 382 81
LayerCount: 2
Fore
SplineSet
310 302 m 0,0,1
 316 302 316 302 316 297 c 0,2,3
 316 279 316 279 250.5 230 c 128,-1,4
 185 181 185 181 163 181 c 0,5,6
 160 181 160 181 160 183 c 0,7,8
 160 195 160 195 222 248.5 c 128,-1,9
 284 302 284 302 310 302 c 0,0,1
97 -18 m 0,10,11
 162 -18 162 -18 265 37.5 c 128,-1,12
 368 93 368 93 447.5 155 c 128,-1,13
 527 217 527 217 577 267 c 0,14,15
 586 275 586 275 586 282 c 0,16,17
 586 294.8 586 294.8 577 302 c 1,18,19
 573 299 573 299 550.5 283 c 128,-1,20
 528 267 528 267 517 259 c 0,21,22
 360 147 360 147 271 102.5 c 128,-1,23
 182 58 182 58 106 58 c 1,24,25
 94 62 94 62 94 78.5 c 128,-1,26
 94 95 94 95 110 121.5 c 128,-1,27
 126 148 126 148 134 148 c 1,28,-1
 144 145 l 1,29,30
 152 130 152 130 168.5 130 c 128,-1,31
 185 130 185 130 236.5 155.5 c 128,-1,32
 288 181 288 181 335 222.5 c 128,-1,33
 382 264 382 264 382 297 c 0,34,35
 382 315 382 315 361.5 334 c 128,-1,36
 341 353 341 353 317 353 c 0,37,38
 263 353 263 353 193 310.5 c 128,-1,39
 123 268 123 268 71.5 201.5 c 128,-1,40
 20 135 20 135 20 76 c 0,41,42
 20 -18 20 -18 97 -18 c 0,10,11
463 484 m 1,43,44
 463 445.833333333 463 445.833333333 492 383 c 1,45,46
 491 371 491 371 461 371 c 0,47,48
 443 371 443 371 414.5 409.5 c 128,-1,49
 386 448 386 448 386 457 c 1,50,51
 345 424 345 424 278.5 398.5 c 128,-1,52
 212 373 212 373 179 373 c 0,53,54
 168 373 168 373 161.5 378 c 128,-1,55
 155 383 155 383 155 388 c 0,56,57
 155 407 155 407 168 407 c 1,58,59
 214 417 214 417 264.5 451.5 c 128,-1,60
 315 486 315 486 348 515.5 c 128,-1,61
 381 545 381 545 388.5 545 c 128,-1,62
 396 545 396 545 404.5 541.5 c 0,63,64
 423 533.882352941 423 533.882352941 423 531 c 1,65,66
 429 533 429 533 441 533 c 1,67,68
 470 530 470 530 470 515 c 1,69,-1
 463 484 l 1,43,44
EndSplineSet
EndChar

StartChar: ucircumflex
Encoding: 251 251 76
Width: 404
Flags: HMW
HStem: -18 21G<171 192.5> 373 172
LayerCount: 2
Fore
SplineSet
264 89 m 2,0,1
 252 83 252 83 247.5 83 c 128,-1,2
 243 83 243 83 243 88 c 0,3,4
 243 120 243 120 384 255 c 0,5,6
 431 300 431 300 431 307 c 0,7,8
 431 324 431 324 383 324 c 0,9,10
 372 324 372 324 364.5 319.5 c 128,-1,11
 357 315 357 315 353 306 c 1,12,13
 332 280 332 280 258.5 223 c 128,-1,14
 185 166 185 166 128 127 c 1,15,16
 107 114 107 114 99 114 c 128,-1,17
 91 114 91 114 91 120 c 1,18,-1
 98 139 l 1,19,20
 116 170 116 170 146.5 201.5 c 128,-1,21
 177 233 177 233 197 253 c 128,-1,22
 217 273 217 273 217 283 c 128,-1,23
 217 293 217 293 208 301 c 128,-1,24
 199 309 199 309 188 309 c 0,25,26
 158 308 158 308 88 234 c 128,-1,27
 18 160 18 160 -17 86 c 0,28,29
 -32 54 -32 54 -32 32 c 0,30,31
 -32 -5 -32 -5 8 -5 c 0,32,33
 23 -5 23 -5 46.5 9 c 128,-1,34
 70 23 70 23 88.5 39 c 128,-1,35
 107 55 107 55 126 73 c 128,-1,36
 145 91 145 91 147 92 c 0,37,38
 162 108 162 108 168 108 c 128,-1,39
 174 108 174 108 174 106 c 128,-1,40
 174 104 174 104 173 102.5 c 128,-1,41
 172 101 172 101 169.5 95.5 c 0,42,43
 148 48.2 148 48.2 148 35 c 0,44,45
 148 -18 148 -18 182 -18 c 1,46,-1
 221 -13 l 1,47,48
 266 2 266 2 359 72 c 128,-1,49
 452 142 452 142 522 204.5 c 2,50,-1
 592 267 l 2,51,52
 601 275 601 275 601 282 c 0,53,54
 601 293 601 293 592 302 c 1,55,56
 512 243 512 243 430 189.5 c 128,-1,57
 348 136 348 136 306 112.5 c 2,58,-1
 264 89 l 2,0,1
445 484 m 1,59,60
 445 445.833333333 445 445.833333333 474 383 c 1,61,62
 473 371 473 371 443 371 c 0,63,64
 425 371 425 371 396.5 409.5 c 128,-1,65
 368 448 368 448 368 457 c 1,66,67
 327 424 327 424 260.5 398.5 c 128,-1,68
 194 373 194 373 161 373 c 0,69,70
 150 373 150 373 143.5 378 c 128,-1,71
 137 383 137 383 137 388 c 0,72,73
 137 407 137 407 150 407 c 1,74,75
 196 417 196 417 246.5 451.5 c 128,-1,76
 297 486 297 486 330 515.5 c 128,-1,77
 363 545 363 545 370.5 545 c 128,-1,78
 378 545 378 545 386.5 541.5 c 0,79,80
 405 533.882352941 405 533.882352941 405 531 c 1,81,82
 411 533 411 533 423 533 c 1,83,84
 452 530 452 530 452 515 c 1,85,-1
 445 484 l 1,59,60
EndSplineSet
EndChar

StartChar: icircumflex
Encoding: 238 238 77
Width: 300
Flags: HMW
HStem: -18 21G<78 105.5> 373 172
LayerCount: 2
Fore
SplineSet
115 65 m 0,0,1
 103 65 103 65 103 75 c 128,-1,2
 103 85 103 85 111 101 c 1,3,4
 124 136 124 136 159.5 184.5 c 128,-1,5
 195 233 195 233 223.5 263.5 c 2,6,-1
 252 294 l 2,7,8
 259 301 259 301 259 304.5 c 0,9,10
 259 310 259 310 253 314 c 1,11,12
 234 322 234 322 217.5 322 c 0,13,14
 196 322 196 322 179 314 c 128,-1,15
 162 306 162 306 125 260.5 c 128,-1,16
 88 215 88 215 53 155.5 c 128,-1,17
 18 96 18 96 18 64 c 0,18,19
 18 -18 18 -18 95 -18 c 1,20,-1
 134 -13 l 1,21,22
 179 2 179 2 272 72 c 128,-1,23
 365 142 365 142 435 204.5 c 2,24,-1
 505 267 l 2,25,26
 514 275 514 275 514 282 c 0,27,28
 514 294.8 514 294.8 505 302 c 1,29,30
 425 243 425 243 333.5 185 c 128,-1,31
 242 127 242 127 190.5 99 c 2,32,-1
 139 71 l 1,33,34
 122.5 65 122.5 65 115 65 c 0,0,1
359 484 m 1,35,36
 359 445.833333333 359 445.833333333 388 383 c 1,37,38
 387 371 387 371 357 371 c 0,39,40
 339 371 339 371 310.5 409.5 c 128,-1,41
 282 448 282 448 282 457 c 1,42,43
 241 424 241 424 174.5 398.5 c 128,-1,44
 108 373 108 373 75 373 c 0,45,46
 64 373 64 373 57.5 378 c 128,-1,47
 51 383 51 383 51 388 c 0,48,49
 51 407 51 407 64 407 c 1,50,51
 110 417 110 417 160.5 451.5 c 128,-1,52
 211 486 211 486 244 515.5 c 128,-1,53
 277 545 277 545 284.5 545 c 128,-1,54
 292 545 292 545 300.5 541.5 c 0,55,56
 319 533.882352941 319 533.882352941 319 531 c 1,57,58
 325 533 325 533 337 533 c 1,59,60
 366 530 366 530 366 515 c 1,61,-1
 359 484 l 1,35,36
EndSplineSet
EndChar

StartChar: ocircumflex
Encoding: 244 244 78
Width: 334
Flags: HMW
HStem: -20 64<55.5 79> 109 51<275 304.5> 109 85<213 304.5> 373 172
LayerCount: 2
Fore
SplineSet
57 44 m 0,0,1
 89 44 89 44 136 86 c 128,-1,2
 183 128 183 128 185 144 c 1,3,4
 172.727272727 153.545454545 172.727272727 153.545454545 159.363636364 180.272727273 c 128,-1,5
 146 207 146 207 145 207 c 0,6,7
 114 178 114 178 90.5 139.5 c 0,8,9
 52 76.4255319149 52 76.4255319149 52 52 c 0,10,11
 52 44 52 44 57 44 c 0,0,1
273 289 m 0,12,13
 263 289 263 289 231.5 258 c 128,-1,14
 200 227 200 227 200 215 c 0,15,16
 200 212 200 212 206 203 c 128,-1,17
 212 194 212 194 215 194 c 0,18,19
 232 194 232 194 253.5 235 c 128,-1,20
 275 276 275 276 275 282.5 c 128,-1,21
 275 289 275 289 273 289 c 0,12,13
275 160 m 1,22,23
 303 160 303 160 362.5 194 c 128,-1,24
 422 228 422 228 467 262.5 c 2,25,-1
 512 297 l 1,26,27
 521 290 521 290 521 280 c 128,-1,28
 521 270 521 270 512 262 c 0,29,30
 347 109 347 109 262 109 c 0,31,32
 256 109 256 109 244 111 c 1,33,34
 131 -20 131 -20 50 -20 c 1,35,36
 -4.09405940594 -12.2722772277 -4.09405940594 -12.2722772277 -18.5 17.5 c 0,37,38
 -26 33 -26 33 -26 56 c 0,39,40
 -26 122 -26 122 50 213.5 c 128,-1,41
 126 305 126 305 241 348 c 1,42,43
 251 348 251 348 256 343.5 c 128,-1,44
 261 339 261 339 265 338.5 c 128,-1,45
 269 338 269 338 275.5 342.5 c 128,-1,46
 282 347 282 347 293 347.5 c 128,-1,47
 304 348 304 348 316 335 c 1,48,49
 332 322 332 322 332 303 c 0,50,51
 332 247 332 247 275 160 c 1,22,23
419 484 m 1,52,53
 419 445.833333333 419 445.833333333 448 383 c 1,54,55
 447 371 447 371 417 371 c 0,56,57
 399 371 399 371 370.5 409.5 c 128,-1,58
 342 448 342 448 342 457 c 1,59,60
 301 424 301 424 234.5 398.5 c 128,-1,61
 168 373 168 373 135 373 c 0,62,63
 124 373 124 373 117.5 378 c 128,-1,64
 111 383 111 383 111 388 c 0,65,66
 111 407 111 407 124 407 c 1,67,68
 170 417 170 417 220.5 451.5 c 128,-1,69
 271 486 271 486 304 515.5 c 128,-1,70
 337 545 337 545 344.5 545 c 128,-1,71
 352 545 352 545 360.5 541.5 c 0,72,73
 379 533.882352941 379 533.882352941 379 531 c 1,74,75
 385 533 385 533 397 533 c 1,76,77
 426 530 426 530 426 515 c 1,78,-1
 419 484 l 1,52,53
EndSplineSet
EndChar

StartChar: edieresis
Encoding: 235 235 79
Width: 364
Flags: HMW
HStem: -18 76<106 158 106 168> 130 51<163 177.5 162 183.5> 302 51<290.5 311.5> 386 109<234 311 298 427.5>
VStem: 20 74<71.5 89.5 71.5 138>
LayerCount: 2
Fore
SplineSet
310 302 m 0,0,1
 284 302 284 302 222 248.5 c 128,-1,2
 160 195 160 195 160 183 c 0,3,4
 160 181 160 181 163 181 c 0,5,6
 185 181 185 181 250.5 230 c 128,-1,7
 316 279 316 279 316 297 c 0,8,9
 316 302 316 302 310 302 c 0,0,1
97 -18 m 0,10,11
 20 -18 20 -18 20 76 c 0,12,13
 20 135 20 135 71.5 201.5 c 128,-1,14
 123 268 123 268 193 310.5 c 128,-1,15
 263 353 263 353 317 353 c 0,16,17
 341 353 341 353 361.5 334 c 128,-1,18
 382 315 382 315 382 297 c 0,19,20
 382 264 382 264 335 222.5 c 128,-1,21
 288 181 288 181 236.5 155.5 c 128,-1,22
 185 130 185 130 168.5 130 c 0,23,24
 152 130 152 130 144 145 c 1,25,26
 140 148 140 148 133 148 c 0,27,28
 126 148 126 148 110 121.5 c 128,-1,29
 94 95 94 95 94 78.5 c 0,30,31
 94 62 94 62 106 58 c 1,32,33
 182 58 182 58 271 102.5 c 128,-1,34
 360 147 360 147 517 259 c 0,35,36
 528 267 528 267 550.5 283 c 128,-1,37
 573 299 573 299 577 302 c 1,38,39
 586 295 586 295 586 285 c 128,-1,40
 586 275 586 275 577 267 c 0,41,42
 527 217 527 217 447.5 155 c 128,-1,43
 368 93 368 93 265 37.5 c 128,-1,44
 162 -18 162 -18 97 -18 c 0,10,11
311 495 m 0,45,46
 321 495 321 495 324 491 c 0,47,48
 338 474 338 474 338 463.5 c 0,49,50
 338 453 338 453 332 445.5 c 0,51,52
 326 438 326 438 317.5 428.5 c 128,-1,53
 309 419 309 419 283.5 402.5 c 128,-1,54
 258 386 258 386 234 386 c 1,55,56
 216 389 216 389 216 408 c 0,57,58
 216 438 216 438 252 466.5 c 128,-1,59
 288 495 288 495 311 495 c 0,45,46
478 495 m 0,60,61
 488 495 488 495 491 491 c 0,62,63
 505 474 505 474 505 463.5 c 0,64,65
 505 453 505 453 499 445.5 c 0,66,67
 493 438 493 438 484.5 428.5 c 128,-1,68
 476 419 476 419 450.5 402.5 c 128,-1,69
 425 386 425 386 401 386 c 1,70,71
 383 389 383 389 383 408 c 0,72,73
 383 438 383 438 419 466.5 c 128,-1,74
 455 495 455 495 478 495 c 0,60,61
EndSplineSet
EndChar

StartChar: udieresis
Encoding: 252 252 80
Width: 404
Flags: HMW
HStem: -18 21G<171 192.5> 386 109<244 321 308 437.5>
LayerCount: 2
Fore
SplineSet
264 89 m 0,0,1
 413 169 413 169 592 302 c 1,2,3
 601 295 601 295 601 285 c 128,-1,4
 601 275 601 275 591 266 c 128,-1,5
 581 257 581 257 562.5 240 c 128,-1,6
 544 223 544 223 492 179 c 128,-1,7
 440 135 440 135 395 99 c 0,8,9
 276.549295775 4.23943661972 276.549295775 4.23943661972 221 -13 c 0,10,11
 203 -18 203 -18 182 -18 c 0,12,13
 148 -18 148 -18 148 35 c 0,14,15
 148 46 148 46 157.5 68 c 128,-1,16
 167 90 167 90 168.5 93.5 c 128,-1,17
 170 97 170 97 171 99 c 128,-1,18
 172 101 172 101 173 102.5 c 128,-1,19
 174 104 174 104 174 106 c 128,-1,20
 174 108 174 108 168 108 c 0,21,22
 162.944444444 108 162.944444444 108 134.972222222 81.5 c 128,-1,23
 107 55 107 55 88.5 39 c 128,-1,24
 70 23 70 23 46.5 9 c 128,-1,25
 23 -5 23 -5 8 -5 c 0,26,27
 -32 -5 -32 -5 -32 32 c 0,28,29
 -32 54 -32 54 -17 86 c 0,30,31
 18 160 18 160 88 234 c 128,-1,32
 158 308 158 308 188 309 c 0,33,34
 199 309 199 309 208 301 c 128,-1,35
 217 293 217 293 217 283 c 128,-1,36
 217 273 217 273 197 253 c 128,-1,37
 177 233 177 233 146.5 201.5 c 128,-1,38
 116 170 116 170 103.5 149 c 128,-1,39
 91 128 91 128 91 121 c 128,-1,40
 91 114 91 114 99 114 c 128,-1,41
 107 114 107 114 128 127 c 1,42,43
 185 166 185 166 258.5 223 c 128,-1,44
 332 280 332 280 353 306 c 1,45,46
 358 324 358 324 383 324 c 0,47,48
 431 324 431 324 431 307 c 0,49,50
 431 300 431 300 384 255 c 0,51,52
 243 120 243 120 243 88 c 0,53,54
 243 83 243 83 247.5 83 c 128,-1,55
 252 83 252 83 264 89 c 0,0,1
321 495 m 0,56,57
 331 495 331 495 334 491 c 0,58,59
 348 474 348 474 348 463.5 c 128,-1,60
 348 453 348 453 342 445.5 c 128,-1,61
 336 438 336 438 327.5 428.5 c 128,-1,62
 319 419 319 419 293.5 402.5 c 128,-1,63
 268 386 268 386 244 386 c 1,64,65
 226 389 226 389 226 408 c 0,66,67
 226 438 226 438 262 466.5 c 128,-1,68
 298 495 298 495 321 495 c 0,56,57
488 495 m 0,69,70
 498 495 498 495 501 491 c 0,71,72
 515 474 515 474 515 463.5 c 128,-1,73
 515 453 515 453 509 445.5 c 128,-1,74
 503 438 503 438 494.5 428.5 c 128,-1,75
 486 419 486 419 460.5 402.5 c 128,-1,76
 435 386 435 386 411 386 c 1,77,78
 393 389 393 389 393 408 c 0,79,80
 393 438 393 438 429 466.5 c 128,-1,81
 465 495 465 495 488 495 c 0,69,70
EndSplineSet
EndChar

StartChar: ydieresis
Encoding: 255 255 81
Width: 329
Flags: HMW
HStem: -373 21G<-232.5 -127> 386 109<225 302 289 418.5>
VStem: -283 48<-327 -301.5 -327 -260.5> 2 104<34 141>
LayerCount: 2
Fore
SplineSet
379 323 m 1,0,1
 426 318 426 318 426 302 c 0,2,3
 426 295 426 295 418 286 c 0,4,5
 276.695852535 128.995391705 276.695852535 128.995391705 94.5 -114.5 c 0,6,7
 41 -186 41 -186 -14 -250 c 128,-1,8
 -69 -314 -69 -314 -117 -343.5 c 128,-1,9
 -165 -373 -165 -373 -217 -373 c 0,10,11
 -243 -373 -243 -373 -263 -359 c 128,-1,12
 -283 -345 -283 -345 -283 -321 c 0,13,14
 -283 -265 -283 -265 -229 -205 c 128,-1,15
 -175 -145 -175 -145 -108 -107.5 c 128,-1,16
 -41 -70 -41 -70 8 -64 c 1,17,-1
 29 -67 l 1,18,19
 39 -66 39 -66 102.5 10 c 128,-1,20
 166 86 166 86 166.5 90.5 c 128,-1,21
 167 95 167 95 165 95 c 1,22,-1
 146 80 l 1,23,24
 71 10 71 10 29 10 c 0,25,26
 2 10 2 10 2 48 c 0,27,28
 2 99 2 99 85 209 c 128,-1,29
 168 319 168 319 207 319 c 0,30,31
 210 319 210 319 214 317 c 0,32,33
 242 310 242 310 242 297 c 0,34,35
 242 292 242 292 239.5 289.5 c 128,-1,36
 237 287 237 287 219.5 270 c 128,-1,37
 202 253 202 253 185 234.5 c 128,-1,38
 168 216 168 216 149 194 c 0,39,40
 106 144.210526316 106 144.210526316 106 119 c 0,41,42
 106 113 106 113 112.5 113 c 128,-1,43
 119 113 119 113 137 124 c 1,44,45
 279 221 279 221 359 309 c 1,46,47
 366 323 366 323 379 323 c 1,0,1
-231 -329 m 1,48,49
 -196 -318 -196 -318 -137 -260.5 c 128,-1,50
 -78 -203 -78 -203 -36 -151.5 c 2,51,-1
 6 -100 l 2,52,53
 12 -92 12 -92 12 -90 c 128,-1,54
 12 -88 12 -88 9 -88 c 0,55,56
 -23 -88 -23 -88 -82.5 -137 c 128,-1,57
 -142 -186 -142 -186 -188.5 -244 c 128,-1,58
 -235 -302 -235 -302 -235 -326 c 0,59,60
 -235 -329 -235 -329 -231 -329 c 1,48,49
302 495 m 0,61,62
 312 495 312 495 315 491 c 0,63,64
 329 474 329 474 329 463.5 c 128,-1,65
 329 453 329 453 323 445.5 c 128,-1,66
 317 438 317 438 308.5 428.5 c 128,-1,67
 300 419 300 419 274.5 402.5 c 128,-1,68
 249 386 249 386 225 386 c 1,69,70
 207 389 207 389 207 408 c 0,71,72
 207 438 207 438 243 466.5 c 128,-1,73
 279 495 279 495 302 495 c 0,61,62
469 495 m 0,74,75
 479 495 479 495 482 491 c 0,76,77
 496 474 496 474 496 463.5 c 128,-1,78
 496 453 496 453 490 445.5 c 128,-1,79
 484 438 484 438 475.5 428.5 c 128,-1,80
 467 419 467 419 441.5 402.5 c 128,-1,81
 416 386 416 386 392 386 c 1,82,83
 374 389 374 389 374 408 c 0,84,85
 374 438 374 438 410 466.5 c 128,-1,86
 446 495 446 495 469 495 c 0,74,75
EndSplineSet
EndChar

StartChar: idieresis
Encoding: 239 239 82
Width: 300
Flags: HMW
HStem: -18 21G<78 105.5> 386 109<155 232 219 348.5>
LayerCount: 2
Fore
SplineSet
111 101 m 1,0,1
 103 87 103 87 103 76 c 128,-1,2
 103 65 103 65 115 65 c 0,3,4
 122.5 65 122.5 65 139 71 c 1,5,6
 326 169 326 169 505 302 c 1,7,8
 514 295 514 295 514 285 c 128,-1,9
 514 275 514 275 504 266 c 128,-1,10
 494 257 494 257 475.5 240 c 128,-1,11
 457 223 457 223 405 179 c 128,-1,12
 353 135 353 135 308 99 c 0,13,14
 189.549295775 4.23943661972 189.549295775 4.23943661972 134 -13 c 0,15,16
 116 -18 116 -18 95 -18 c 0,17,18
 18 -18 18 -18 18 64 c 0,19,20
 18 96 18 96 53 155.5 c 128,-1,21
 88 215 88 215 125 260.5 c 128,-1,22
 162 306 162 306 174 311 c 1,23,24
 192 322 192 322 213 322 c 128,-1,25
 234 322 234 322 253 314 c 0,26,27
 259 311 259 311 259 306 c 128,-1,28
 259 301 259 301 249.5 291 c 128,-1,29
 240 281 240 281 220.5 260 c 128,-1,30
 201 239 201 239 162.5 187.5 c 128,-1,31
 124 136 124 136 111 101 c 1,0,1
232 495 m 0,32,33
 242 495 242 495 245 491 c 0,34,35
 259 474 259 474 259 463.5 c 128,-1,36
 259 453 259 453 253 445.5 c 128,-1,37
 247 438 247 438 238.5 428.5 c 128,-1,38
 230 419 230 419 204.5 402.5 c 128,-1,39
 179 386 179 386 155 386 c 1,40,41
 137 389 137 389 137 408 c 0,42,43
 137 438 137 438 173 466.5 c 128,-1,44
 209 495 209 495 232 495 c 0,32,33
399 495 m 0,45,46
 409 495 409 495 412 491 c 0,47,48
 426 474 426 474 426 463.5 c 128,-1,49
 426 453 426 453 420 445.5 c 128,-1,50
 414 438 414 438 405.5 428.5 c 128,-1,51
 397 419 397 419 371.5 402.5 c 128,-1,52
 346 386 346 386 322 386 c 1,53,54
 304 389 304 389 304 408 c 0,55,56
 304 438 304 438 340 466.5 c 128,-1,57
 376 495 376 495 399 495 c 0,45,46
EndSplineSet
EndChar

StartChar: odieresis
Encoding: 246 246 83
Width: 334
Flags: HMW
HStem: -20 64<55.5 79> 109 51<275 304.5> 109 85<213 304.5> 386 109<200 277 264 393.5>
LayerCount: 2
Fore
SplineSet
57 44 m 0,0,1
 89 44 89 44 136 86 c 128,-1,2
 183 128 183 128 185 144 c 1,3,4
 172.727272727 153.545454545 172.727272727 153.545454545 159.363636364 180.272727273 c 128,-1,5
 146 207 146 207 145 207 c 0,6,7
 114 178 114 178 90.5 139.5 c 0,8,9
 52 76.4255319149 52 76.4255319149 52 52 c 0,10,11
 52 44 52 44 57 44 c 0,0,1
273 289 m 0,12,13
 263 289 263 289 231.5 258 c 128,-1,14
 200 227 200 227 200 215 c 0,15,16
 200 212 200 212 206 203 c 128,-1,17
 212 194 212 194 215 194 c 0,18,19
 232 194 232 194 253.5 235 c 128,-1,20
 275 276 275 276 275 282.5 c 128,-1,21
 275 289 275 289 273 289 c 0,12,13
275 160 m 1,22,23
 303 160 303 160 362.5 194 c 128,-1,24
 422 228 422 228 467 262.5 c 2,25,-1
 512 297 l 1,26,27
 521 290 521 290 521 280 c 128,-1,28
 521 270 521 270 512 262 c 0,29,30
 347 109 347 109 262 109 c 0,31,32
 256 109 256 109 244 111 c 1,33,34
 131 -20 131 -20 50 -20 c 1,35,36
 -4.09405940594 -12.2722772277 -4.09405940594 -12.2722772277 -18.5 17.5 c 0,37,38
 -26 33 -26 33 -26 56 c 0,39,40
 -26 122 -26 122 50 213.5 c 128,-1,41
 126 305 126 305 241 348 c 1,42,43
 251 348 251 348 256 343.5 c 128,-1,44
 261 339 261 339 265 338.5 c 128,-1,45
 269 338 269 338 275.5 342.5 c 128,-1,46
 282 347 282 347 293 347.5 c 128,-1,47
 304 348 304 348 316 335 c 1,48,49
 332 322 332 322 332 303 c 0,50,51
 332 247 332 247 275 160 c 1,22,23
277 495 m 0,52,53
 287 495 287 495 290 491 c 0,54,55
 304 474 304 474 304 463.5 c 128,-1,56
 304 453 304 453 298 445.5 c 128,-1,57
 292 438 292 438 283.5 428.5 c 128,-1,58
 275 419 275 419 249.5 402.5 c 128,-1,59
 224 386 224 386 200 386 c 1,60,61
 182 389 182 389 182 408 c 0,62,63
 182 438 182 438 218 466.5 c 128,-1,64
 254 495 254 495 277 495 c 0,52,53
444 495 m 0,65,66
 454 495 454 495 457 491 c 0,67,68
 471 474 471 474 471 463.5 c 128,-1,69
 471 453 471 453 465 445.5 c 128,-1,70
 459 438 459 438 450.5 428.5 c 128,-1,71
 442 419 442 419 416.5 402.5 c 128,-1,72
 391 386 391 386 367 386 c 1,73,74
 349 389 349 389 349 408 c 0,75,76
 349 438 349 438 385 466.5 c 128,-1,77
 421 495 421 495 444 495 c 0,65,66
EndSplineSet
EndChar

StartChar: ntilde
Encoding: 241 241 84
Width: 460
Flags: HMW
HStem: -32 21G<253 270> 385 54<461.5 483.5> 423 58
VStem: 193 85<15.5 91.5>
LayerCount: 2
Fore
SplineSet
219 331 m 0,0,1
 227 331 227 331 245.5 323 c 128,-1,2
 264 315 264 315 264 305 c 0,3,4
 264 298 264 298 259 291 c 2,5,-1
 184 187 l 1,6,7
 171 171 171 171 171 169 c 128,-1,8
 171 167 171 167 172 167 c 2,9,-1
 177 170 l 1,10,11
 293 251 293 251 368 312 c 1,12,13
 382 322 382 322 391.5 322 c 128,-1,14
 401 322 401 322 404 320 c 1,15,-1
 432 312 l 1,16,17
 442 307 442 307 442 299 c 128,-1,18
 442 291 442 291 438 286 c 0,19,20
 419 265 419 265 394.5 238.5 c 128,-1,21
 370 212 370 212 358 198.5 c 128,-1,22
 346 185 346 185 331 168 c 128,-1,23
 316 151 316 151 309.5 142 c 128,-1,24
 303 133 303 133 295 121.5 c 128,-1,25
 287 110 287 110 284.5 101.5 c 0,26,27
 278 79.4 278 79.4 278 62 c 0,28,29
 278 53 278 53 289.5 53 c 128,-1,30
 301 53 301 53 331.5 67 c 128,-1,31
 362 81 362 81 404.5 110 c 128,-1,32
 447 139 447 139 517.5 192.5 c 128,-1,33
 588 246 588 246 641 283 c 1,34,35
 650 276 650 276 650 266 c 128,-1,36
 650 256 650 256 641 248 c 0,37,38
 609 217 609 217 560 170.5 c 128,-1,39
 511 124 511 124 410.5 46 c 128,-1,40
 310 -32 310 -32 270 -32 c 0,41,42
 193 -32 193 -32 193 50 c 0,43,44
 193 81 193 81 217 115 c 2,45,-1
 260 174 l 2,46,47
 266 183 266 183 266 184.4 c 128,-1,48
 266 185.8 266 185.8 260 181 c 0,49,50
 86 36 86 36 38 11 c 0,51,52
 30 6 30 6 18 6 c 0,53,54
 -15 6 -15 6 -15 36 c 0,55,56
 -15 46 -15 46 -10 54 c 1,57,58
 64 122 64 122 94 165 c 1,59,60
 118 189 118 189 144.5 232 c 128,-1,61
 171 275 171 275 189.5 303 c 128,-1,62
 208 331 208 331 219 331 c 0,0,1
215 417 m 128,-1,64
 223 424 223 424 237 434.5 c 128,-1,65
 251 445 251 445 287 463 c 128,-1,66
 323 481 323 481 351 481 c 0,67,68
 362 481 362 481 409 460 c 128,-1,69
 456 439 456 439 498 439 c 0,70,71
 515 439 515 439 540.5 463 c 2,72,-1
 549 471 l 1,73,74
 564 471 564 471 564 461 c 0,75,76
 564 449.8 564 449.8 550 434.4 c 128,-1,77
 536 419 536 419 522 409 c 0,78,79
 488.4 385 488.4 385 437 385 c 0,80,81
 419 385 419 385 373.634146341 404.024390244 c 128,-1,82
 328.268292683 423.048780488 328.268292683 423.048780488 298.966091612 423.048780488 c 0,83,84
 284.041463415 423.048780488 284.041463415 423.048780488 253.520731707 412.524390244 c 128,-1,85
 223 402 223 402 215 402 c 128,-1,86
 207 402 207 402 207 404 c 0,87,63
 207 410 207 410 215 417 c 128,-1,64
EndSplineSet
EndChar

StartChar: otilde
Encoding: 245 245 85
Width: 334
Flags: HMW
HStem: -20 64<55.5 79> 109 51<275 304.5> 109 85<213 304.5> 385 54<410.5 432.5> 423 58
LayerCount: 2
Fore
SplineSet
57 44 m 0,0,1
 89 44 89 44 136 86 c 128,-1,2
 183 128 183 128 185 144 c 1,3,4
 172.727272727 153.545454545 172.727272727 153.545454545 159.363636364 180.272727273 c 128,-1,5
 146 207 146 207 145 207 c 0,6,7
 114 178 114 178 90.5 139.5 c 0,8,9
 52 76.4255319149 52 76.4255319149 52 52 c 0,10,11
 52 44 52 44 57 44 c 0,0,1
273 289 m 0,12,13
 263 289 263 289 231.5 258 c 128,-1,14
 200 227 200 227 200 215 c 0,15,16
 200 212 200 212 206 203 c 128,-1,17
 212 194 212 194 215 194 c 0,18,19
 232 194 232 194 253.5 235 c 128,-1,20
 275 276 275 276 275 282.5 c 128,-1,21
 275 289 275 289 273 289 c 0,12,13
275 160 m 1,22,23
 303 160 303 160 362.5 194 c 128,-1,24
 422 228 422 228 467 262.5 c 2,25,-1
 512 297 l 1,26,27
 521 290 521 290 521 280 c 128,-1,28
 521 270 521 270 512 262 c 0,29,30
 347 109 347 109 262 109 c 0,31,32
 256 109 256 109 244 111 c 1,33,34
 131 -20 131 -20 50 -20 c 1,35,36
 -4.09405940594 -12.2722772277 -4.09405940594 -12.2722772277 -18.5 17.5 c 0,37,38
 -26 33 -26 33 -26 56 c 0,39,40
 -26 122 -26 122 50 213.5 c 128,-1,41
 126 305 126 305 241 348 c 1,42,43
 251 348 251 348 256 343.5 c 128,-1,44
 261 339 261 339 265 338.5 c 128,-1,45
 269 338 269 338 275.5 342.5 c 128,-1,46
 282 347 282 347 293 347.5 c 128,-1,47
 304 348 304 348 316 335 c 1,48,49
 332 322 332 322 332 303 c 0,50,51
 332 247 332 247 275 160 c 1,22,23
164 417 m 128,-1,53
 172 424 172 424 186 434.5 c 128,-1,54
 200 445 200 445 236 463 c 128,-1,55
 272 481 272 481 292 481 c 128,-1,56
 312 481 312 481 359 460 c 128,-1,57
 406 439 406 439 447 439 c 0,58,59
 464 439 464 439 489.5 463 c 2,60,-1
 498 471 l 1,61,62
 513 471 513 471 513 461 c 0,63,64
 513 449.8 513 449.8 499 434.4 c 128,-1,65
 485 419 485 419 471 409 c 0,66,67
 437.4 385 437.4 385 386 385 c 0,68,69
 368 385 368 385 322.634146341 404.024390244 c 128,-1,70
 277.268292683 423.048780488 277.268292683 423.048780488 247.966091612 423.048780488 c 0,71,72
 233.041463415 423.048780488 233.041463415 423.048780488 202.520731707 412.524390244 c 128,-1,73
 172 402 172 402 164 402 c 128,-1,74
 156 402 156 402 156 404 c 0,75,52
 156 410 156 410 164 417 c 128,-1,53
EndSplineSet
EndChar

StartChar: Adieresis
Encoding: 196 196 86
Width: 416
Flags: HMW
HStem: -156 21G<325 375.5> 680 109<475 552 539 668.5>
VStem: -78 85<57.5 98.5 57.5 163.5> 235 106<14 71.5> 457 174<600 724>
LayerCount: 2
Fore
SplineSet
254 152 m 0,0,1
 255 156 255 156 255 158 c 128,-1,2
 255 160 255 160 253.5 160 c 128,-1,3
 252 160 252 160 247.5 155 c 128,-1,4
 243 150 243 150 236 141 c 128,-1,5
 229 132 229 132 206.5 107 c 128,-1,6
 184 82 184 82 160 59.5 c 0,7,8
 94.6835443038 -1.73417721519 94.6835443038 -1.73417721519 30 -35 c 0,9,10
 14 -43 14 -43 -5 -43 c 0,11,12
 -78 -43 -78 -43 -78 67 c 0,13,14
 -78 165.436781609 -78 165.436781609 15.5 303 c 0,15,16
 59 367 59 367 120.5 428.5 c 128,-1,17
 182 490 182 490 251 538 c 128,-1,18
 320 586 320 586 401 615.5 c 128,-1,19
 482 645 482 645 559 645 c 0,20,21
 572.25 645 572.25 645 593.625 636 c 0,22,23
 631 620.263157895 631 620.263157895 631 602 c 0,24,25
 631 592 631 592 618 591 c 0,26,27
 613 591 613 591 613 587 c 128,-1,28
 613 583 613 583 627.5 571.5 c 128,-1,29
 642 560 642 560 642 549.5 c 128,-1,30
 642 539 642 539 635 531 c 0,31,32
 585 476 585 476 555 439.5 c 128,-1,33
 525 403 525 403 509.5 385 c 128,-1,34
 494 367 494 367 474.5 343.5 c 128,-1,35
 455 320 455 320 431 284.5 c 128,-1,36
 407 249 407 249 387.5 213.5 c 0,37,38
 341 128.846153846 341 128.846153846 341 58.4230769231 c 128,-1,39
 341 -12 341 -12 354 -75.5 c 128,-1,40
 367 -139 367 -139 381 -153 c 1,41,42
 381 -156 381 -156 374 -156 c 0,43,44
 328 -156 328 -156 295 -119.5 c 0,45,46
 235 -53.1363636364 235 -53.1363636364 235 56 c 0,47,48
 235 95 235 95 254 152 c 0,0,1
385 377 m 2,49,-1
 577 570 l 2,50,51
 584 577 584 577 584 580 c 128,-1,52
 584 583 584 583 579 583 c 0,53,54
 502 571 502 571 416 520 c 128,-1,55
 330 469 330 469 260 402 c 128,-1,56
 190 335 190 335 131 265 c 128,-1,57
 72 195 72 195 39.5 139 c 128,-1,58
 7 83 7 83 7 59 c 0,59,60
 7 54.8888888889 7 54.8888888889 12.4444444444 54.8888888889 c 128,-1,61
 17.8888888889 54.8888888889 17.8888888889 54.8888888889 33.9444444444 62.4444444444 c 128,-1,62
 50 70 50 70 144.5 150.5 c 128,-1,63
 239 231 239 231 385 377 c 2,49,-1
552 789 m 0,64,65
 562 789 562 789 565 785 c 0,66,67
 579 768 579 768 579 757.5 c 128,-1,68
 579 747 579 747 573 739.5 c 128,-1,69
 567 732 567 732 558.5 722.5 c 128,-1,70
 550 713 550 713 524.5 696.5 c 128,-1,71
 499 680 499 680 475 680 c 1,72,73
 457 683 457 683 457 702 c 0,74,75
 457 732 457 732 493 760.5 c 128,-1,76
 529 789 529 789 552 789 c 0,64,65
719 789 m 0,77,78
 729 789 729 789 732 785 c 0,79,80
 746 768 746 768 746 757.5 c 128,-1,81
 746 747 746 747 740 739.5 c 128,-1,82
 734 732 734 732 725.5 722.5 c 128,-1,83
 717 713 717 713 691.5 696.5 c 128,-1,84
 666 680 666 680 642 680 c 1,85,86
 624 683 624 683 624 702 c 0,87,88
 624 732 624 732 660 760.5 c 128,-1,89
 696 789 696 789 719 789 c 0,77,78
EndSplineSet
EndChar

StartChar: Edieresis
Encoding: 203 203 87
Width: 493
Flags: HMW
HStem: -61 21G<64.5 77> -60 115 237 107 465 164 678 109<408 485 472 601.5>
LayerCount: 2
Fore
SplineSet
16 514 m 1,0,1
 16 529 16 529 36 540 c 1,2,-1
 153 586 l 2,3,4
 157 588 157 588 164.5 588 c 128,-1,5
 172 588 172 588 178 581 c 128,-1,6
 184 574 184 574 191 574 c 128,-1,7
 198 574 198 574 220.5 579.5 c 128,-1,8
 243 585 243 585 281 593.5 c 128,-1,9
 319 602 319 602 365.5 610 c 0,10,11
 475.9375 629 475.9375 629 595 629 c 0,12,13
 736.294117647 629 736.294117647 629 797 607.5 c 0,14,15
 821 599 821 599 837.5 583.5 c 128,-1,16
 854 568 854 568 854 546 c 0,17,18
 854 533 854 533 836 533 c 0,19,20
 586 526 586 526 427 501 c 0,21,22
 411 499 411 499 411 490 c 0,23,24
 411 487 411 487 411.5 484.5 c 128,-1,25
 412 482 412 482 404 473 c 2,26,-1
 291 352 l 2,27,28
 284 345 284 345 284 341.5 c 128,-1,29
 284 338 284 338 286.5 338 c 128,-1,30
 289 338 289 338 299 340 c 1,31,32
 364 344 364 344 419 344 c 128,-1,33
 474 344 474 344 482 338 c 0,34,35
 526 305 526 305 533.5 295 c 128,-1,36
 541 285 541 285 541 279 c 0,37,38
 541 266 541 266 519 263 c 0,39,40
 255 237 255 237 234 237.5 c 128,-1,41
 213 238 213 238 207 238 c 0,42,43
 191 238 191 238 171 213 c 2,44,-1
 49 51 l 2,45,46
 44 43 44 43 44 39.5 c 128,-1,47
 44 36 44 36 48 36 c 128,-1,48
 52 36 52 36 60 40 c 1,49,50
 154 55 154 55 235.5 55 c 128,-1,51
 317 55 317 55 357 50 c 1,52,53
 412 50 412 50 475 -31 c 0,54,55
 480 -38 480 -38 480 -44 c 128,-1,56
 480 -50 480 -50 465 -50 c 0,57,58
 216 -50 216 -50 86 -60 c 0,59,60
 81 -61 81 -61 73 -61 c 0,61,62
 30 -61 30 -61 14 -41 c 1,63,64
 11 -35 11 -35 4 -35 c 128,-1,65
 -3 -35 -3 -35 -8.5 -42 c 128,-1,66
 -14 -49 -14 -49 -17 -49 c 128,-1,67
 -20 -49 -20 -49 -29 -43 c 128,-1,68
 -38 -37 -38 -37 -47.5 -22.5 c 128,-1,69
 -57 -8 -57 -8 -57 8.5 c 128,-1,70
 -57 25 -57 25 -50.5 39 c 128,-1,71
 -44 53 -44 53 -33.5 75 c 128,-1,72
 -23 97 -23 97 13.5 150.5 c 128,-1,73
 50 204 50 204 90 242 c 0,74,75
 95 247 95 247 95 251.5 c 128,-1,76
 95 256 95 256 84.5 256 c 128,-1,77
 74 256 74 256 63.5 263.5 c 128,-1,78
 53 271 53 271 53 284.5 c 128,-1,79
 53 298 53 298 88 307 c 2,80,-1
 142 321 l 2,81,82
 142.695652174 320.956521739 142.695652174 320.956521739 143.393194707 320.956521739 c 0,83,84
 158.739130435 320.956521739 158.739130435 320.956521739 175 342 c 1,85,86
 291 455 291 455 317 468 c 1,87,88
 326 474 326 474 326 477.5 c 128,-1,89
 326 481 326 481 320 481 c 128,-1,90
 314 481 314 481 310 480 c 0,91,92
 217 465 217 465 162 465 c 128,-1,93
 107 465 107 465 82 470 c 128,-1,94
 57 475 57 475 45 482.5 c 0,95,96
 19.0571428571 498.714285714 19.0571428571 498.714285714 17 509 c 2,97,-1
 16 514 l 1,0,1
485 787 m 0,98,99
 495 787 495 787 498 783 c 0,100,101
 512 766 512 766 512 755.5 c 128,-1,102
 512 745 512 745 506 737.5 c 128,-1,103
 500 730 500 730 491.5 720.5 c 128,-1,104
 483 711 483 711 457.5 694.5 c 128,-1,105
 432 678 432 678 408 678 c 1,106,107
 390 681 390 681 390 700 c 0,108,109
 390 730 390 730 426 758.5 c 128,-1,110
 462 787 462 787 485 787 c 0,98,99
652 787 m 0,111,112
 662 787 662 787 665 783 c 0,113,114
 679 766 679 766 679 755.5 c 128,-1,115
 679 745 679 745 673 737.5 c 128,-1,116
 667 730 667 730 658.5 720.5 c 128,-1,117
 650 711 650 711 624.5 694.5 c 128,-1,118
 599 678 599 678 575 678 c 1,119,120
 557 681 557 681 557 700 c 0,121,122
 557 730 557 730 593 758.5 c 128,-1,123
 629 787 629 787 652 787 c 0,111,112
EndSplineSet
EndChar

StartChar: Odieresis
Encoding: 214 214 88
Width: 433
Flags: HMW
HStem: -52 76<16.5 74 16.5 163> 605 34 605 76<595 614> 712 109<424 501 488 617.5>
VStem: -82 92<47 51.5 33.5 177.5> 617 65<567 603>
LayerCount: 2
Fore
SplineSet
498 635 m 1,0,1
 570 681 570 681 620 681 c 0,2,3
 666.333333333 681 666.333333333 681 678 646 c 0,4,5
 682 634 682 634 682 627 c 0,6,7
 682 589 682 589 639 508 c 128,-1,8
 596 427 596 427 525 332.5 c 128,-1,9
 454 238 454 238 372 151 c 128,-1,10
 290 64 290 64 201 6 c 128,-1,11
 112 -52 112 -52 45 -52 c 0,12,13
 -2 -52 -2 -52 -42 -12 c 128,-1,14
 -82 28 -82 28 -82 85.5 c 128,-1,15
 -82 143 -82 143 -50 214.5 c 128,-1,16
 -18 286 -18 286 38.5 359 c 128,-1,17
 95 432 95 432 163 495.5 c 128,-1,18
 231 559 231 559 311.5 599 c 128,-1,19
 392 639 392 639 465 639 c 0,20,21
 485 639 485 639 498 635 c 1,0,1
19 24 m 0,22,23
 70 24 70 24 218 154 c 128,-1,24
 366 284 366 284 491.5 425.5 c 128,-1,25
 617 567 617 567 617 602 c 0,26,27
 617 605 617 605 613 605 c 0,28,29
 579 605 579 605 517.5 565 c 128,-1,30
 456 525 456 525 400 475 c 128,-1,31
 344 425 344 425 303.5 386 c 128,-1,32
 263 347 263 347 257 338 c 128,-1,33
 251 329 251 329 247 329 c 0,34,35
 245 329 245 329 245 334 c 2,36,-1
 247 349 l 1,37,38
 257.51212938 384.741239892 257.51212938 384.741239892 314 466.5 c 2,39,-1
 333 494 l 1,40,41
 340 507 340 507 340 509.5 c 128,-1,42
 340 512 340 512 337.5 512 c 0,43,44
 329.888888889 512 329.888888889 512 311 495 c 0,45,46
 236 427 236 427 178 357.5 c 128,-1,47
 120 288 120 288 89.5 237.5 c 128,-1,48
 59 187 59 187 39.5 141 c 0,49,50
 10 71.4102564103 10 71.4102564103 10 47.7051282051 c 128,-1,51
 10 24 10 24 19 24 c 0,22,23
501 821 m 0,52,53
 511 821 511 821 514 817 c 0,54,55
 528 800 528 800 528 789.5 c 128,-1,56
 528 779 528 779 522 771.5 c 128,-1,57
 516 764 516 764 507.5 754.5 c 128,-1,58
 499 745 499 745 473.5 728.5 c 128,-1,59
 448 712 448 712 424 712 c 1,60,61
 406 715 406 715 406 734 c 0,62,63
 406 764 406 764 442 792.5 c 128,-1,64
 478 821 478 821 501 821 c 0,52,53
668 821 m 0,65,66
 678 821 678 821 681 817 c 0,67,68
 695 800 695 800 695 789.5 c 128,-1,69
 695 779 695 779 689 771.5 c 128,-1,70
 683 764 683 764 674.5 754.5 c 128,-1,71
 666 745 666 745 640.5 728.5 c 128,-1,72
 615 712 615 712 591 712 c 1,73,74
 573 715 573 715 573 734 c 0,75,76
 573 764 573 764 609 792.5 c 128,-1,77
 645 821 645 821 668 821 c 0,65,66
EndSplineSet
EndChar

StartChar: Udieresis
Encoding: 220 220 89
Width: 527
Flags: HMW
HStem: -156 21G<432 482.5> -29 124<57.5 87> 630 59<321 392.5 300 394> 720 109<528 605 592 721.5>
VStem: -99 154<98 129.5> 342 106<14 90.5> 404 90<620 623>
LayerCount: 2
Fore
SplineSet
448 44 m 0,0,1
 448 -12 448 -12 461 -75.5 c 128,-1,2
 474 -139 474 -139 488 -153 c 1,3,4
 488 -156 488 -156 481 -156 c 0,5,6
 435 -156 435 -156 402 -119.5 c 0,7,8
 342 -53.1363636364 342 -53.1363636364 342 56 c 0,9,10
 342 108.090909091 342 108.090909091 366.5 166 c 0,11,12
 372 179 372 179 385.5 209 c 128,-1,13
 399 239 399 239 406 257 c 0,14,15
 406 258 406 258 404 258 c 0,16,17
 399 258 399 258 373 228.5 c 128,-1,18
 347 199 347 199 306 157 c 128,-1,19
 265 115 265 115 216 72.5 c 128,-1,20
 167 30 167 30 104 0.5 c 128,-1,21
 41 -29 41 -29 -17 -29 c 0,22,23
 -73.4166666667 -29 -73.4166666667 -29 -88 -4 c 0,24,25
 -99 14.8571428571 -99 14.8571428571 -99 39 c 0,26,27
 -99 89 -99 89 -47.5 160 c 128,-1,28
 4 231 4 231 78 299.5 c 128,-1,29
 152 368 152 368 225.5 432 c 128,-1,30
 299 496 299 496 351 547.5 c 128,-1,31
 403 599 403 599 404 620 c 0,32,33
 404 630 404 630 389 630 c 0,34,35
 292 630 292 630 174 563.5 c 128,-1,36
 56 497 56 497 -41 398 c 0,37,38
 -50 389 -50 389 -55 389 c 0,39,40
 -58 389 -58 389 -58 394 c 2,41,-1
 -56 404 l 1,42,43
 -28 478 -28 478 27 536.5 c 128,-1,44
 82 595 82 595 142.5 626 c 0,45,46
 265.451612903 689 265.451612903 689 341 689 c 0,47,48
 494 689 494 689 494 593 c 0,49,50
 494 537.930232558 494 537.930232558 339.5 399 c 0,51,52
 275 341 275 341 210.5 284 c 0,53,54
 55 146.581395349 55 146.581395349 55 99 c 0,55,56
 55 95 55 95 59 95 c 0,57,58
 114 95 114 95 291.5 228.5 c 128,-1,59
 469 362 469 362 660 546 c 2,60,-1
 783 665 l 1,61,62
 792 683 792 683 804 683 c 0,63,64
 808.727272727 683 808.727272727 683 821.863636364 674.5 c 128,-1,65
 835 666 835 666 840.5 663 c 128,-1,66
 846 660 846 660 851.5 655.5 c 0,67,68
 863 646.090909091 863 646.090909091 863 639.045454545 c 128,-1,69
 863 632 863 632 853 623 c 2,70,-1
 617 380 l 1,71,-1
 597 358 l 2,72,73
 448 194.1 448 194.1 448 44 c 0,0,1
605 829 m 0,74,75
 615 829 615 829 618 825 c 0,76,77
 632 808 632 808 632 797.5 c 128,-1,78
 632 787 632 787 626 779.5 c 128,-1,79
 620 772 620 772 611.5 762.5 c 128,-1,80
 603 753 603 753 577.5 736.5 c 128,-1,81
 552 720 552 720 528 720 c 1,82,83
 510 723 510 723 510 742 c 0,84,85
 510 772 510 772 546 800.5 c 128,-1,86
 582 829 582 829 605 829 c 0,74,75
772 829 m 0,87,88
 782 829 782 829 785 825 c 0,89,90
 799 808 799 808 799 797.5 c 128,-1,91
 799 787 799 787 793 779.5 c 128,-1,92
 787 772 787 772 778.5 762.5 c 128,-1,93
 770 753 770 753 744.5 736.5 c 128,-1,94
 719 720 719 720 695 720 c 1,95,96
 677 723 677 723 677 742 c 0,97,98
 677 772 677 772 713 800.5 c 128,-1,99
 749 829 749 829 772 829 c 0,87,88
EndSplineSet
EndChar

StartChar: Ydieresis
Encoding: 376 376 90
Width: 551
Flags: HMW
HStem: -387 21G<-101 8.5> -27 83<59 98.5 59 116> 703 109<500 577 564 693.5>
VStem: -147 42<-343 -334 -350.5 -271.5> -36 93<57.5 76> 496 153<493 747>
LayerCount: 2
Fore
SplineSet
882 637 m 2,0,1
 889 631 889 631 889 622.5 c 128,-1,2
 889 614 889 614 883 608 c 2,3,-1
 768 484 l 1,4,5
 602 289 602 289 394 -4 c 1,6,7
 340.669144981 -92.8847583643 340.669144981 -92.8847583643 212 -222.5 c 0,8,9
 144 -291 144 -291 60.5 -339 c 128,-1,10
 -23 -387 -23 -387 -94 -387 c 0,11,12
 -109 -387 -109 -387 -128 -369 c 128,-1,13
 -147 -351 -147 -351 -147 -318 c 0,14,15
 -147 -274 -147 -274 -88.5 -215.5 c 128,-1,16
 -30 -157 -30 -157 49 -116 c 128,-1,17
 128 -75 128 -75 183 -75 c 2,18,-1
 187 -75 l 1,19,20
 376 144 376 144 420 193 c 2,21,-1
 579 368 l 2,22,23
 580 369 580 369 581.5 371 c 128,-1,24
 583 373 583 373 586.5 377.5 c 0,25,26
 604.378378378 400.486486486 604.378378378 400.486486486 576 374 c 1,27,-1
 431 231.5 l 2,28,29
 167.431372549 -27 167.431372549 -27 46 -27 c 0,30,31
 17 -27 17 -27 -9.5 -4 c 128,-1,32
 -36 19 -36 19 -36 61 c 0,33,34
 -36 141 -36 141 111 288 c 1,35,-1
 378 526 l 1,36,37
 426 571 426 571 426 585 c 0,38,39
 426 589 426 589 420 589 c 128,-1,40
 414 589 414 589 391 585 c 128,-1,41
 368 581 368 581 319.5 565.5 c 128,-1,42
 271 550 271 550 217.5 526 c 128,-1,43
 164 502 164 502 94.5 456 c 128,-1,44
 25 410 25 410 -38 352 c 1,45,46
 -48 338 -48 338 -60 338 c 2,47,-1
 -63 338 l 1,48,49
 -67 339 -67 339 -67 343 c 0,50,51
 -67 353 -67 353 -52 368 c 1,52,53
 37 496 37 496 161 577 c 128,-1,54
 285 658 285 658 384 658 c 0,55,56
 426 658 426 658 461 635.5 c 128,-1,57
 496 613 496 613 496 560 c 0,58,59
 496 523 496 523 451 465.5 c 128,-1,60
 406 408 406 408 341 349 c 128,-1,61
 276 290 276 290 211.5 233.5 c 0,62,63
 57 98.1627906977 57 98.1627906977 57 58 c 0,64,65
 57 56 57 56 66.5 56 c 128,-1,66
 76 56 76 56 106.5 71 c 128,-1,67
 137 86 137 86 178 114 c 128,-1,68
 219 142 219 142 259.5 171.5 c 128,-1,69
 300 201 300 201 349.5 240 c 128,-1,70
 399 279 399 279 432.5 305.5 c 0,71,72
 527.322033898 380.508474576 527.322033898 380.508474576 556 406 c 2,73,-1
 768 587 l 1,74,-1
 827 645 l 2,75,76
 837 656 837 656 845.5 656 c 128,-1,77
 854 656 854 656 859 653 c 2,78,-1
 882 637 l 2,0,1
161 -101 m 1,79,80
 169 -93 169 -93 169 -91.5 c 128,-1,81
 169 -90 169 -90 167 -90 c 2,82,-1
 150 -96 l 1,83,84
 53 -148 53 -148 -26 -234 c 128,-1,85
 -105 -320 -105 -320 -105 -349 c 0,86,87
 -105 -352 -105 -352 -102 -352 c 2,88,-1
 -96 -350 l 1,89,90
 -45 -320 -45 -320 19.5 -258 c 128,-1,91
 84 -196 84 -196 122.5 -148.5 c 2,92,-1
 161 -101 l 1,79,80
577 812 m 0,93,94
 587 812 587 812 590 808 c 0,95,96
 604 791 604 791 604 780.5 c 128,-1,97
 604 770 604 770 598 762.5 c 128,-1,98
 592 755 592 755 583.5 745.5 c 128,-1,99
 575 736 575 736 549.5 719.5 c 128,-1,100
 524 703 524 703 500 703 c 1,101,102
 482 706 482 706 482 725 c 0,103,104
 482 755 482 755 518 783.5 c 128,-1,105
 554 812 554 812 577 812 c 0,93,94
744 812 m 0,106,107
 754 812 754 812 757 808 c 0,108,109
 771 791 771 791 771 780.5 c 128,-1,110
 771 770 771 770 765 762.5 c 128,-1,111
 759 755 759 755 750.5 745.5 c 128,-1,112
 742 736 742 736 716.5 719.5 c 128,-1,113
 691 703 691 703 667 703 c 1,114,115
 649 706 649 706 649 725 c 0,116,117
 649 755 649 755 685 783.5 c 128,-1,118
 721 812 721 812 744 812 c 0,106,107
EndSplineSet
EndChar

StartChar: Idieresis
Encoding: 207 207 91
Width: 348
Flags: HMW
HStem: -61 21G<-116 -75> 218 72<67 85.5 67 123> 657 64<513.5 537 434.5 566> 754 109<377 454 441 570.5>
VStem: -4 69<291.5 348 291.5 398.5> 359 250<577 798> 526 83 571 38<603.5 651.5>
LayerCount: 2
Fore
SplineSet
515 721 m 0,0,1
 609 721 609 721 609 648 c 0,2,3
 609 581 609 581 512.5 454 c 128,-1,4
 416 327 416 327 289 206 c 0,5,6
 138.99695586 63.0837138508 138.99695586 63.0837138508 25.5 -11.5 c 0,7,8
 8 -23 8 -23 -35.5 -42 c 128,-1,9
 -79 -61 -79 -61 -111 -61 c 0,10,11
 -128 -61 -128 -61 -178 -34 c 1,12,13
 -188 -27 -188 -27 -188 -19 c 0,14,15
 -188 -6 -188 -6 -152 -2 c 0,16,17
 -101 3 -101 3 21 93.5 c 128,-1,18
 143 184 143 184 264 295 c 128,-1,19
 385 406 385 406 478 511 c 128,-1,20
 571 616 571 616 571 649 c 0,21,22
 571 657 571 657 563 657 c 0,23,24
 513 657 513 657 393 590 c 128,-1,25
 273 523 273 523 169 433.5 c 128,-1,26
 65 344 65 344 65 292 c 0,27,28
 65 290 65 290 68 290 c 0,29,30
 93 290 93 290 176.5 352 c 128,-1,31
 260 414 260 414 297 456 c 0,32,33
 307 466 307 466 313 466 c 0,34,35
 321 465 321 465 321 459 c 128,-1,36
 321 453 321 453 306.5 427.5 c 128,-1,37
 292 402 292 402 265.5 367 c 128,-1,38
 239 332 239 332 207 298.5 c 128,-1,39
 175 265 175 265 135 241.5 c 128,-1,40
 95 218 95 218 60.5 218 c 128,-1,41
 26 218 26 218 11 246 c 128,-1,42
 -4 274 -4 274 -4 303 c 0,43,44
 -4 371 -4 371 54.5 448.5 c 128,-1,45
 113 526 113 526 195 584.5 c 128,-1,46
 277 643 277 643 366 682 c 128,-1,47
 455 721 455 721 515 721 c 0,0,1
454 863 m 0,48,49
 464 863 464 863 467 859 c 0,50,51
 481 842 481 842 481 831.5 c 128,-1,52
 481 821 481 821 475 813.5 c 128,-1,53
 469 806 469 806 460.5 796.5 c 128,-1,54
 452 787 452 787 426.5 770.5 c 128,-1,55
 401 754 401 754 377 754 c 1,56,57
 359 757 359 757 359 776 c 0,58,59
 359 806 359 806 395 834.5 c 128,-1,60
 431 863 431 863 454 863 c 0,48,49
621 863 m 0,61,62
 631 863 631 863 634 859 c 0,63,64
 648 842 648 842 648 831.5 c 128,-1,65
 648 821 648 821 642 813.5 c 128,-1,66
 636 806 636 806 627.5 796.5 c 128,-1,67
 619 787 619 787 593.5 770.5 c 128,-1,68
 568 754 568 754 544 754 c 1,69,70
 526 757 526 757 526 776 c 0,71,72
 526 806 526 806 562 834.5 c 128,-1,73
 598 863 598 863 621 863 c 0,61,62
EndSplineSet
EndChar

StartChar: Aring
Encoding: 197 197 92
Width: 416
Flags: HMW
HStem: -156 21G<325 375.5> 667 38<595 621 595 631.5> 705 75<608 621> 780 37<608 643 596.5 643.5>
VStem: -78 85<57.5 98.5 57.5 163.5> 7 228<57.5 71.5 14 98.5> 235 106<14 71.5> 540 40<720.5 732> 580 79<732 746.5> 659 38<740 759.5>
LayerCount: 2
Fore
SplineSet
254 152 m 1,0,1
 235 95 235 95 235 52.5 c 128,-1,2
 235 10 235 10 248.5 -36.5 c 128,-1,3
 262 -83 262 -83 295 -119.5 c 128,-1,4
 328 -156 328 -156 374 -156 c 0,5,6
 381 -156 381 -156 381 -153 c 1,7,8
 367 -139 367 -139 354 -75.5 c 128,-1,9
 341 -12 341 -12 341 40.5 c 128,-1,10
 341 93 341 93 354.5 135.5 c 128,-1,11
 368 178 368 178 387.5 213.5 c 128,-1,12
 407 249 407 249 431 284.5 c 128,-1,13
 455 320 455 320 474.5 343.5 c 0,14,15
 518.375 396.375 518.375 396.375 526 404 c 2,16,-1
 635 531 l 2,17,18
 642 539 642 539 642 549.5 c 128,-1,19
 642 560 642 560 627.5 571.5 c 128,-1,20
 613 583 613 583 613 587 c 1,21,-1
 618 591 l 1,22,23
 631 592 631 592 631 604 c 128,-1,24
 631 616 631 616 613 627 c 128,-1,25
 595 638 595 638 577 641.5 c 2,26,-1
 559 645 l 1,27,28
 482 645 482 645 401 615.5 c 128,-1,29
 320 586 320 586 251 538 c 128,-1,30
 182 490 182 490 120.5 428.5 c 128,-1,31
 59 367 59 367 15.5 303 c 0,32,33
 -78 165.436781609 -78 165.436781609 -78 61.2183908046 c 128,-1,34
 -78 -43 -78 -43 -5 -43 c 0,35,36
 12 -43 12 -43 30 -35 c 1,37,38
 119.804878049 11.1853658537 119.804878049 11.1853658537 206 106 c 0,39,40
 226 128 226 128 236.5 141.5 c 2,41,-1
 247 155 l 2,42,43
 252 160 252 160 253.5 160 c 128,-1,44
 255 160 255 160 255 158 c 2,45,-1
 254 152 l 1,0,1
577 570 m 2,46,-1
 385 377 l 2,47,48
 239 231 239 231 145.5 150.5 c 128,-1,49
 52 70 52 70 31.5 62.5 c 2,50,-1
 11 55 l 1,51,52
 7 55 7 55 7 59 c 0,53,54
 7 83 7 83 39.5 139 c 128,-1,55
 72 195 72 195 131 265 c 128,-1,56
 190 335 190 335 260 402 c 128,-1,57
 330 469 330 469 416 520 c 128,-1,58
 502 571 502 571 579 583 c 0,59,60
 584 583 584 583 584 580 c 128,-1,61
 584 577 584 577 577 570 c 2,46,-1
643 817 m 0,62,63
 675.727272727 817 675.727272727 817 691 789 c 0,64,65
 697 778 697 778 697 763 c 0,66,67
 697 722 697 722 672.5 694.5 c 128,-1,68
 648 667 648 667 588 667 c 0,69,70
 568 667 568 667 554 680.5 c 128,-1,71
 540 694 540 694 540 713 c 128,-1,72
 540 732 540 732 543.5 746 c 128,-1,73
 547 760 547 760 556.5 777.5 c 0,74,75
 577.942857143 817 577.942857143 817 643 817 c 0,62,63
646.5 714 m 128,-1,77
 659 723 659 723 659 751.5 c 128,-1,78
 659 780 659 780 633 780 c 0,79,80
 597 780 597 780 588.5 769.5 c 128,-1,81
 580 759 580 759 580 726 c 0,82,83
 580 709 580 709 595 705 c 1,84,76
 634 705 634 705 646.5 714 c 128,-1,77
EndSplineSet
EndChar

StartChar: Eacute
Encoding: 201 201 93
Width: 493
Flags: HMW
HStem: -61 21G<64.5 77> -60 115 237 107 465 164 629 215<628 647 628 653>
LayerCount: 2
Fore
SplineSet
125.653846154 465 m 0,0,1
 214.375 465 214.375 465 284.5 476 c 2,2,-1
 310 480 l 2,3,4
 314 481 314 481 320 481 c 128,-1,5
 326 481 326 481 326 478.5 c 0,6,7
 326 473.4 326 473.4 315.5 467.7 c 0,8,9
 291.784897025 454.826086957 291.784897025 454.826086957 204.5 370.5 c 2,10,-1
 175 342 l 1,11,12
 159.780487805 322.975609756 159.780487805 322.975609756 142 321 c 1,13,-1
 88 307 l 2,14,15
 53 298 53 298 53 284.5 c 128,-1,16
 53 271 53 271 63.5 263.5 c 128,-1,17
 74 256 74 256 84.5 256 c 128,-1,18
 95 256 95 256 95 251 c 1,19,-1
 90 242 l 1,20,21
 50 204 50 204 15 153.5 c 128,-1,22
 -20 103 -20 103 -35 71.5 c 2,23,-1
 -50 40 l 2,24,25
 -57 25 -57 25 -57 8.5 c 128,-1,26
 -57 -8 -57 -8 -47.5 -22.5 c 128,-1,27
 -38 -37 -38 -37 -29 -43 c 128,-1,28
 -20 -49 -20 -49 -16 -49 c 1,29,-1
 -13 -47 l 1,30,31
 -3 -35 -3 -35 2.5 -35 c 0,32,33
 10 -35 10 -35 14 -41 c 0,34,35
 30 -61 30 -61 73 -61 c 1,36,-1
 86 -60 l 2,37,38
 202.123404255 -51.9914893617 202.123404255 -51.9914893617 399 -50.5 c 2,39,-1
 465 -50 l 2,40,41
 480 -50 480 -50 480 -43 c 1,42,-1
 475 -31 l 1,43,44
 412 50 412 50 357 50 c 1,45,46
 317 55 317 55 264.5 55 c 0,47,48
 159.375 55 159.375 55 86.5 44 c 2,49,-1
 60 40 l 1,50,51
 52 36 52 36 48 36 c 128,-1,52
 44 36 44 36 44 39 c 1,53,-1
 49 51 l 1,54,-1
 171 213 l 2,55,56
 191 238 191 238 207 238 c 1,57,-1
 217 237 l 1,58,-1
 519 263 l 1,59,60
 541 266 541 266 541 279 c 0,61,62
 541 295.055555556 541 295.055555556 503 322.5 c 0,63,64
 494 329 494 329 484 336.5 c 128,-1,65
 474 344 474 344 417 344 c 1,66,-1
 299 340 l 1,67,68
 289 338 289 338 286.5 338 c 128,-1,69
 284 338 284 338 284 341 c 1,70,-1
 291 352 l 1,71,-1
 404 473 l 1,72,-1
 412 485 l 1,73,74
 411 487 411 487 411 490.5 c 128,-1,75
 411 494 411 494 415 497 c 128,-1,76
 419 500 419 500 458.5 506 c 128,-1,77
 498 512 498 512 600 520 c 128,-1,78
 702 528 702 528 769 530.5 c 2,79,-1
 836 533 l 2,80,81
 854 533 854 533 854 546 c 0,82,83
 854 599.428571429 854 599.428571429 767 616 c 0,84,85
 698.75 629 698.75 629 616.875 629 c 128,-1,86
 535 629 535 629 473.5 623.5 c 128,-1,87
 412 618 412 618 365.5 610 c 128,-1,88
 319 602 319 602 281 593.5 c 128,-1,89
 243 585 243 585 220.5 579.5 c 128,-1,90
 198 574 198 574 194 574 c 0,91,92
 185 574 185 574 178.5 581 c 128,-1,93
 172 588 172 588 162 588 c 1,94,-1
 153 586 l 1,95,-1
 36 540 l 1,96,97
 16 529 16 529 16 518.066666667 c 0,98,99
 16 498.208333333 16 498.208333333 46.6538461538 481.604166667 c 128,-1,100
 77.3076923077 465 77.3076923077 465 125.653846154 465 c 0,0,1
461 671 m 0,101,102
 461 680 461 680 478 697 c 1,103,104
 522 723 522 723 555 756.5 c 128,-1,105
 588 790 588 790 599 810 c 2,106,-1
 610 830 l 1,107,108
 620 844 620 844 636 844 c 128,-1,109
 652 844 652 844 662.5 826 c 128,-1,110
 673 808 673 808 673 789 c 1,111,-1
 671 766 l 1,112,113
 650 727 650 727 602 699.5 c 0,114,115
 526.072727273 656 526.072727273 656 476 656 c 0,116,117
 461 656 461 656 461 671 c 0,101,102
EndSplineSet
EndChar

StartChar: Oacute
Encoding: 211 211 94
Width: 433
Flags: HMW
HStem: -52 76<16.5 74 16.5 163> 605 34 605 76<595 614> 877 20G<607 626>
VStem: -82 92<47 51.5 33.5 177.5> 617 65<567 603>
LayerCount: 2
Fore
SplineSet
498 635 m 1,0,1
 570 681 570 681 620 681 c 0,2,3
 666.333333333 681 666.333333333 681 678 646 c 0,4,5
 682 634 682 634 682 627 c 0,6,7
 682 589 682 589 639 508 c 128,-1,8
 596 427 596 427 525 332.5 c 128,-1,9
 454 238 454 238 372 151 c 128,-1,10
 290 64 290 64 201 6 c 128,-1,11
 112 -52 112 -52 45 -52 c 0,12,13
 -2 -52 -2 -52 -42 -12 c 128,-1,14
 -82 28 -82 28 -82 85.5 c 128,-1,15
 -82 143 -82 143 -50 214.5 c 128,-1,16
 -18 286 -18 286 38.5 359 c 128,-1,17
 95 432 95 432 163 495.5 c 128,-1,18
 231 559 231 559 311.5 599 c 128,-1,19
 392 639 392 639 465 639 c 0,20,21
 485 639 485 639 498 635 c 1,0,1
19 24 m 0,22,23
 70 24 70 24 218 154 c 128,-1,24
 366 284 366 284 491.5 425.5 c 128,-1,25
 617 567 617 567 617 602 c 0,26,27
 617 605 617 605 613 605 c 0,28,29
 579 605 579 605 517.5 565 c 128,-1,30
 456 525 456 525 400 475 c 128,-1,31
 344 425 344 425 303.5 386 c 128,-1,32
 263 347 263 347 257 338 c 128,-1,33
 251 329 251 329 247 329 c 0,34,35
 245 329 245 329 245 334 c 2,36,-1
 247 349 l 1,37,38
 257.51212938 384.741239892 257.51212938 384.741239892 314 466.5 c 2,39,-1
 333 494 l 1,40,41
 340 507 340 507 340 509.5 c 128,-1,42
 340 512 340 512 337.5 512 c 0,43,44
 329.888888889 512 329.888888889 512 311 495 c 0,45,46
 236 427 236 427 178 357.5 c 128,-1,47
 120 288 120 288 89.5 237.5 c 128,-1,48
 59 187 59 187 39.5 141 c 0,49,50
 10 71.4102564103 10 71.4102564103 10 47.7051282051 c 128,-1,51
 10 24 10 24 19 24 c 0,22,23
440 724 m 0,52,53
 440 734.888888889 440 734.888888889 457 750 c 1,54,55
 501 776 501 776 534 809.5 c 128,-1,56
 567 843 567 843 578 863 c 2,57,-1
 589 883 l 1,58,59
 599 897 599 897 615 897 c 128,-1,60
 631 897 631 897 641.5 879 c 128,-1,61
 652 861 652 861 652 842 c 1,62,-1
 650 819 l 1,63,64
 629 780 629 780 581 752.5 c 0,65,66
 505.072727273 709 505.072727273 709 455 709 c 0,67,68
 440 709 440 709 440 724 c 0,52,53
EndSplineSet
EndChar

StartChar: Uacute
Encoding: 218 218 95
Width: 527
Flags: HMW
HStem: -156 21G<432 482.5> -29 124<57.5 87> 630 59<321 392.5 300 394> 689 182
VStem: -99 154<98 129.5> 342 106<14 90.5> 404 90<620 623>
LayerCount: 2
Fore
SplineSet
461 -75.5 m 128,-1,1
 448 -12 448 -12 448 44 c 128,-1,2
 448 100 448 100 464.5 148 c 128,-1,3
 481 196 481 196 505.5 235.5 c 0,4,5
 548.155378486 304.270916335 548.155378486 304.270916335 597 358 c 2,6,-1
 617 380 l 1,7,-1
 853 623 l 2,8,9
 863 632 863 632 863 638 c 128,-1,10
 863 644 863 644 860 647.5 c 128,-1,11
 857 651 857 651 851.5 655.5 c 128,-1,12
 846 660 846 660 840.5 663 c 128,-1,13
 835 666 835 666 826.5 671.5 c 0,14,15
 808.727272727 683 808.727272727 683 803.863636364 683 c 0,16,17
 793 683 793 683 783 665 c 1,18,-1
 660 546 l 2,19,20
 469 362 469 362 291.5 228.5 c 128,-1,21
 114 95 114 95 59 95 c 0,22,23
 55 95 55 95 55 99 c 0,24,25
 55 146.581395349 55 146.581395349 210.5 284 c 0,26,27
 275 341 275 341 339.5 399 c 0,28,29
 494 537.930232558 494 537.930232558 494 593 c 0,30,31
 494 689 494 689 341 689 c 0,32,33
 265.451612903 689 265.451612903 689 142.5 626 c 0,34,35
 82 595 82 595 27 536.5 c 128,-1,36
 -28 478 -28 478 -56 404 c 0,37,38
 -58 398 -58 398 -58 393.5 c 128,-1,39
 -58 389 -58 389 -55 389 c 0,40,41
 -50 389 -50 389 -41 398 c 0,42,43
 56 497 56 497 174 563.5 c 128,-1,44
 292 630 292 630 389 630 c 0,45,46
 404 630 404 630 404 620 c 0,47,48
 403 599 403 599 351 547.5 c 128,-1,49
 299 496 299 496 225.5 432 c 128,-1,50
 152 368 152 368 78 299.5 c 128,-1,51
 4 231 4 231 -47.5 160 c 128,-1,52
 -99 89 -99 89 -99 39 c 0,53,54
 -99 -9.5 -99 -9.5 -63 -22.5 c 0,55,56
 -45 -29 -45 -29 -17 -29 c 0,57,58
 41 -29 41 -29 104 0.5 c 128,-1,59
 167 30 167 30 216 72 c 128,-1,60
 265 114 265 114 306 156.5 c 128,-1,61
 347 199 347 199 373 228.5 c 128,-1,62
 399 258 399 258 404 258 c 0,63,64
 406 258 406 258 406 257 c 0,65,66
 399 239 399 239 385.5 209 c 128,-1,67
 372 179 372 179 366.5 166 c 128,-1,68
 361 153 361 153 354 132 c 0,69,70
 342 96 342 96 342 53 c 128,-1,71
 342 10 342 10 355.5 -36.5 c 128,-1,72
 369 -83 369 -83 402 -119.5 c 128,-1,73
 435 -156 435 -156 481 -156 c 0,74,75
 488 -156 488 -156 488 -153 c 1,76,0
 474 -139 474 -139 461 -75.5 c 128,-1,1
562 698 m 0,77,78
 562 708.888888889 562 708.888888889 579 724 c 1,79,80
 623 750 623 750 656 783.5 c 128,-1,81
 689 817 689 817 700 837 c 2,82,-1
 711 857 l 1,83,84
 721 871 721 871 737 871 c 128,-1,85
 753 871 753 871 763.5 853 c 128,-1,86
 774 835 774 835 774 816 c 1,87,-1
 772 793 l 1,88,89
 751 754 751 754 703 726.5 c 0,90,91
 627.072727273 683 627.072727273 683 577 683 c 0,92,93
 562 683 562 683 562 698 c 0,77,78
EndSplineSet
EndChar

StartChar: Yacute
Encoding: 221 221 96
Width: 551
Flags: HMW
HStem: -387 21G<-101 8.5> -27 83<59 98.5 59 116> 812 20G<731 750>
VStem: -147 42<-343 -334 -350.5 -271.5> -36 93<57.5 76>
LayerCount: 2
Fore
SplineSet
882 637 m 2,0,1
 889 631 889 631 889 622.5 c 128,-1,2
 889 614 889 614 883 608 c 2,3,-1
 768 484 l 1,4,5
 602 289 602 289 394 -4 c 1,6,7
 340.669144981 -92.8847583643 340.669144981 -92.8847583643 212 -222.5 c 0,8,9
 144 -291 144 -291 60.5 -339 c 128,-1,10
 -23 -387 -23 -387 -94 -387 c 0,11,12
 -109 -387 -109 -387 -128 -369 c 128,-1,13
 -147 -351 -147 -351 -147 -318 c 0,14,15
 -147 -274 -147 -274 -88.5 -215.5 c 128,-1,16
 -30 -157 -30 -157 49 -116 c 128,-1,17
 128 -75 128 -75 183 -75 c 2,18,-1
 187 -75 l 1,19,20
 376 144 376 144 420 193 c 2,21,-1
 579 368 l 2,22,23
 580 369 580 369 581.5 371 c 128,-1,24
 583 373 583 373 586.5 377.5 c 0,25,26
 604.378378378 400.486486486 604.378378378 400.486486486 576 374 c 1,27,-1
 431 231.5 l 2,28,29
 167.431372549 -27 167.431372549 -27 46 -27 c 0,30,31
 17 -27 17 -27 -9.5 -4 c 128,-1,32
 -36 19 -36 19 -36 61 c 0,33,34
 -36 141 -36 141 111 288 c 1,35,-1
 378 526 l 1,36,37
 426 571 426 571 426 585 c 0,38,39
 426 589 426 589 420 589 c 128,-1,40
 414 589 414 589 391 585 c 128,-1,41
 368 581 368 581 319.5 565.5 c 128,-1,42
 271 550 271 550 217.5 526 c 128,-1,43
 164 502 164 502 94.5 456 c 128,-1,44
 25 410 25 410 -38 352 c 1,45,46
 -48 338 -48 338 -60 338 c 2,47,-1
 -63 338 l 1,48,49
 -67 339 -67 339 -67 343 c 0,50,51
 -67 353 -67 353 -52 368 c 1,52,53
 37 496 37 496 161 577 c 128,-1,54
 285 658 285 658 384 658 c 0,55,56
 426 658 426 658 461 635.5 c 128,-1,57
 496 613 496 613 496 560 c 0,58,59
 496 523 496 523 451 465.5 c 128,-1,60
 406 408 406 408 341 349 c 128,-1,61
 276 290 276 290 211.5 233.5 c 0,62,63
 57 98.1627906977 57 98.1627906977 57 58 c 0,64,65
 57 56 57 56 66.5 56 c 128,-1,66
 76 56 76 56 106.5 71 c 128,-1,67
 137 86 137 86 178 114 c 128,-1,68
 219 142 219 142 259.5 171.5 c 128,-1,69
 300 201 300 201 349.5 240 c 128,-1,70
 399 279 399 279 432.5 305.5 c 0,71,72
 527.322033898 380.508474576 527.322033898 380.508474576 556 406 c 2,73,-1
 768 587 l 1,74,-1
 827 645 l 2,75,76
 837 656 837 656 845.5 656 c 128,-1,77
 854 656 854 656 859 653 c 2,78,-1
 882 637 l 2,0,1
161 -101 m 1,79,80
 169 -93 169 -93 169 -91.5 c 128,-1,81
 169 -90 169 -90 167 -90 c 2,82,-1
 150 -96 l 1,83,84
 53 -148 53 -148 -26 -234 c 128,-1,85
 -105 -320 -105 -320 -105 -349 c 0,86,87
 -105 -352 -105 -352 -102 -352 c 2,88,-1
 -96 -350 l 1,89,90
 -45 -320 -45 -320 19.5 -258 c 128,-1,91
 84 -196 84 -196 122.5 -148.5 c 2,92,-1
 161 -101 l 1,79,80
564 659 m 0,93,94
 564 669.888888889 564 669.888888889 581 685 c 1,95,96
 625 711 625 711 658 744.5 c 128,-1,97
 691 778 691 778 702 798 c 2,98,-1
 713 818 l 1,99,100
 723 832 723 832 739 832 c 128,-1,101
 755 832 755 832 765.5 814 c 128,-1,102
 776 796 776 796 776 777 c 1,103,-1
 774 754 l 1,104,105
 753 715 753 715 705 687.5 c 0,106,107
 629.072727273 644 629.072727273 644 579 644 c 0,108,109
 564 644 564 644 564 659 c 0,93,94
EndSplineSet
EndChar

StartChar: Iacute
Encoding: 205 205 97
Width: 348
Flags: HMW
HStem: -61 21G<-116 -75> 701 20G<434.5 537> 921 20G<604 623>
VStem: -4 69<291.5 348 291.5 398.5> 571 38<603.5 651.5>
LayerCount: 2
Fore
SplineSet
306.5 427.5 m 128,-1,1
 321 453 321 453 321 458.5 c 128,-1,2
 321 464 321 464 314 465 c 128,-1,3
 307 466 307 466 297 456 c 0,4,5
 260 414 260 414 176.5 352 c 128,-1,6
 93 290 93 290 68 290 c 0,7,8
 65 290 65 290 65 292 c 0,9,10
 65 344 65 344 169 433.5 c 128,-1,11
 273 523 273 523 393 590 c 128,-1,12
 513 657 513 657 563 657 c 0,13,14
 571 657 571 657 571 649 c 0,15,16
 571 616 571 616 478 511 c 128,-1,17
 385 406 385 406 264 295 c 128,-1,18
 143 184 143 184 21 93.5 c 128,-1,19
 -101 3 -101 3 -152 -2 c 0,20,21
 -188 -6 -188 -6 -188 -19 c 0,22,23
 -188 -26 -188 -26 -178 -34 c 1,24,25
 -128 -61 -128 -61 -111 -61 c 0,26,27
 -79 -61 -79 -61 -38 -44 c 128,-1,28
 3 -27 3 -27 28 -9.5 c 2,29,-1
 53 8 l 2,30,31
 162 85 162 85 289 206 c 128,-1,32
 416 327 416 327 512.5 454 c 128,-1,33
 609 581 609 581 609 648 c 0,34,35
 609 721 609 721 515 721 c 0,36,37
 455 721 455 721 366 682 c 128,-1,38
 277 643 277 643 195 584.5 c 128,-1,39
 113 526 113 526 54.5 448.5 c 128,-1,40
 -4 371 -4 371 -4 303 c 0,41,42
 -4 274 -4 274 11 246 c 128,-1,43
 26 218 26 218 60.5 218 c 128,-1,44
 95 218 95 218 135 241.5 c 128,-1,45
 175 265 175 265 207 298.5 c 128,-1,46
 239 332 239 332 265.5 367 c 128,-1,0
 292 402 292 402 306.5 427.5 c 128,-1,1
437 768 m 0,47,48
 437 777 437 777 454 794 c 1,49,50
 498 820 498 820 531 853.5 c 128,-1,51
 564 887 564 887 575 907 c 2,52,-1
 586 927 l 1,53,54
 596 941 596 941 612 941 c 128,-1,55
 628 941 628 941 638.5 923 c 128,-1,56
 649 905 649 905 649 886 c 1,57,-1
 647 863 l 1,58,59
 626 824 626 824 578 796.5 c 0,60,61
 502.072727273 753 502.072727273 753 452 753 c 0,62,63
 437 753 437 753 437 768 c 0,47,48
EndSplineSet
EndChar

StartChar: Ntilde
Encoding: 209 209 98
Width: 434
Flags: HMW
HStem: -217 21G<-380.5 -362> 716 54<764.5 786.5> 754 58
VStem: 151 110<20 160.5>
LayerCount: 2
Fore
SplineSet
417 647 m 1,0,1
 446 671 446 671 483 671 c 128,-1,2
 520 671 520 671 520 656 c 0,3,4
 520 650 520 650 511 638 c 1,5,6
 503 620 503 620 436 502.5 c 0,7,8
 261 195.597014925 261 195.597014925 261 94 c 0,9,10
 261 86 261 86 265 86 c 0,11,12
 271 86 271 86 285 106 c 1,13,14
 325.680851064 177.191489362 325.680851064 177.191489362 389.840425532 269.095744681 c 128,-1,15
 454 361 454 361 511 431 c 128,-1,16
 568 501 568 501 640 562 c 128,-1,17
 712 623 712 623 771 638 c 1,18,19
 869 654 869 654 898 654 c 1,20,21
 901 653 901 653 901 649.5 c 128,-1,22
 901 646 901 646 890 640 c 0,23,24
 777 577 777 577 609.5 400.5 c 128,-1,25
 442 224 442 224 307 38 c 1,26,27
 271 -23 271 -23 251 -38 c 128,-1,28
 231 -53 231 -53 203 -53 c 0,29,30
 151 -53 151 -53 151 57 c 0,31,32
 151 105 151 105 170 155 c 0,33,34
 240 342 240 342 301 423 c 1,35,36
 335 473 335 473 335 478 c 0,37,38
 335 481 335 481 323 466 c 0,39,40
 74 153 74 153 -29 56 c 1,41,42
 -99.5264 -17.8848 -99.5264 -17.8848 -189.7632 -95.9424 c 128,-1,43
 -280 -174 -280 -174 -334 -203 c 1,44,45
 -351 -217 -351 -217 -370 -217 c 128,-1,46
 -389 -217 -389 -217 -416 -201 c 128,-1,47
 -443 -185 -443 -185 -443 -164 c 0,48,49
 -443 -153 -443 -153 -431 -144 c 2,50,-1
 -267 -6 l 2,51,52
 -252 7 -252 7 -248.5 7 c 128,-1,53
 -245 7 -245 7 -245 3.5 c 128,-1,54
 -245 0 -245 0 -248 -6 c 128,-1,55
 -251 -12 -251 -12 -257.5 -19 c 128,-1,56
 -264 -26 -264 -26 -270.5 -32.5 c 2,57,-1
 -288 -50 l 2,58,59
 -319 -81 -319 -81 -319 -84.5 c 128,-1,60
 -319 -88 -319 -88 -316.5 -88 c 128,-1,61
 -314 -88 -314 -88 -307 -82 c 0,62,63
 -211 -16 -211 -16 -30 166.5 c 128,-1,64
 151 349 151 349 284 498 c 2,65,-1
 417 647 l 1,0,1
518 748 m 128,-1,67
 526 755 526 755 540 765.5 c 128,-1,68
 554 776 554 776 590 794 c 128,-1,69
 626 812 626 812 646 812 c 128,-1,70
 666 812 666 812 713 791 c 128,-1,71
 760 770 760 770 801 770 c 0,72,73
 818 770 818 770 843.5 794 c 2,74,-1
 852 802 l 1,75,76
 867 802 867 802 867 792 c 0,77,78
 867 780.8 867 780.8 853 765.4 c 128,-1,79
 839 750 839 750 825 740 c 0,80,81
 791.4 716 791.4 716 740 716 c 0,82,83
 722 716 722 716 676.634146341 735.024390244 c 128,-1,84
 631.268292683 754.048780488 631.268292683 754.048780488 601.966091612 754.048780488 c 0,85,86
 587.041463415 754.048780488 587.041463415 754.048780488 556.520731707 743.524390244 c 128,-1,87
 526 733 526 733 518 733 c 128,-1,88
 510 733 510 733 510 735 c 0,89,66
 510 741 510 741 518 748 c 128,-1,67
EndSplineSet
EndChar

StartChar: Ocircumflex
Encoding: 212 212 99
Width: 433
Flags: HMW
HStem: -52 76<16.5 74 16.5 163> 605 34 605 76<595 614> 710 172
VStem: -82 92<47 51.5 33.5 177.5> 617 65<567 603> 617 87
LayerCount: 2
Fore
SplineSet
498 635 m 1,0,1
 570 681 570 681 620 681 c 0,2,3
 666.333333333 681 666.333333333 681 678 646 c 0,4,5
 682 634 682 634 682 627 c 0,6,7
 682 589 682 589 639 508 c 128,-1,8
 596 427 596 427 525 332.5 c 128,-1,9
 454 238 454 238 372 151 c 128,-1,10
 290 64 290 64 201 6 c 128,-1,11
 112 -52 112 -52 45 -52 c 0,12,13
 -2 -52 -2 -52 -42 -12 c 128,-1,14
 -82 28 -82 28 -82 85.5 c 128,-1,15
 -82 143 -82 143 -50 214.5 c 128,-1,16
 -18 286 -18 286 38.5 359 c 128,-1,17
 95 432 95 432 163 495.5 c 128,-1,18
 231 559 231 559 311.5 599 c 128,-1,19
 392 639 392 639 465 639 c 0,20,21
 485 639 485 639 498 635 c 1,0,1
19 24 m 0,22,23
 70 24 70 24 218 154 c 128,-1,24
 366 284 366 284 491.5 425.5 c 128,-1,25
 617 567 617 567 617 602 c 0,26,27
 617 605 617 605 613 605 c 0,28,29
 579 605 579 605 517.5 565 c 128,-1,30
 456 525 456 525 400 475 c 128,-1,31
 344 425 344 425 303.5 386 c 128,-1,32
 263 347 263 347 257 338 c 128,-1,33
 251 329 251 329 247 329 c 0,34,35
 245 329 245 329 245 334 c 2,36,-1
 247 349 l 1,37,38
 257.51212938 384.741239892 257.51212938 384.741239892 314 466.5 c 2,39,-1
 333 494 l 1,40,41
 340 507 340 507 340 509.5 c 128,-1,42
 340 512 340 512 337.5 512 c 0,43,44
 329.888888889 512 329.888888889 512 311 495 c 0,45,46
 236 427 236 427 178 357.5 c 128,-1,47
 120 288 120 288 89.5 237.5 c 128,-1,48
 59 187 59 187 39.5 141 c 0,49,50
 10 71.4102564103 10 71.4102564103 10 47.7051282051 c 128,-1,51
 10 24 10 24 19 24 c 0,22,23
704 821 m 1,52,53
 704 782.833333333 704 782.833333333 733 720 c 1,54,55
 732 708 732 708 702 708 c 0,56,57
 684 708 684 708 655.5 746 c 128,-1,58
 627 784 627 784 627 794 c 1,59,60
 586 761 586 761 519.5 735.5 c 128,-1,61
 453 710 453 710 420 710 c 0,62,63
 409 710 409 710 402.5 715 c 128,-1,64
 396 720 396 720 396 725 c 0,65,66
 396 744 396 744 409 744 c 1,67,68
 455 754 455 754 505.5 788.5 c 128,-1,69
 556 823 556 823 589 852.5 c 128,-1,70
 622 882 622 882 629.5 882 c 128,-1,71
 637 882 637 882 645.5 878.5 c 0,72,73
 664 870.882352941 664 870.882352941 664 868 c 1,74,75
 670 870 670 870 682 870 c 1,76,77
 711 867 711 867 711 852 c 1,78,-1
 704 821 l 1,52,53
EndSplineSet
EndChar

StartChar: Ucircumflex
Encoding: 219 219 100
Width: 527
Flags: HMW
HStem: -156 21G<432 482.5> -29 124<57.5 87> 630 59<321 392.5 300 394> 717 172
VStem: -99 154<98 129.5> 342 106<14 90.5> 404 90<620 623>
LayerCount: 2
Fore
SplineSet
461 -75.5 m 128,-1,1
 448 -12 448 -12 448 44 c 128,-1,2
 448 100 448 100 464.5 148 c 128,-1,3
 481 196 481 196 505.5 235.5 c 0,4,5
 548.155378486 304.270916335 548.155378486 304.270916335 597 358 c 2,6,-1
 617 380 l 1,7,-1
 853 623 l 2,8,9
 863 632 863 632 863 638 c 128,-1,10
 863 644 863 644 860 647.5 c 128,-1,11
 857 651 857 651 851.5 655.5 c 128,-1,12
 846 660 846 660 840.5 663 c 128,-1,13
 835 666 835 666 826.5 671.5 c 0,14,15
 808.727272727 683 808.727272727 683 803.863636364 683 c 0,16,17
 793 683 793 683 783 665 c 1,18,-1
 660 546 l 2,19,20
 469 362 469 362 291.5 228.5 c 128,-1,21
 114 95 114 95 59 95 c 0,22,23
 55 95 55 95 55 99 c 0,24,25
 55 146.581395349 55 146.581395349 210.5 284 c 0,26,27
 275 341 275 341 339.5 399 c 0,28,29
 494 537.930232558 494 537.930232558 494 593 c 0,30,31
 494 689 494 689 341 689 c 0,32,33
 265.451612903 689 265.451612903 689 142.5 626 c 0,34,35
 82 595 82 595 27 536.5 c 128,-1,36
 -28 478 -28 478 -56 404 c 0,37,38
 -58 398 -58 398 -58 393.5 c 128,-1,39
 -58 389 -58 389 -55 389 c 0,40,41
 -50 389 -50 389 -41 398 c 0,42,43
 56 497 56 497 174 563.5 c 128,-1,44
 292 630 292 630 389 630 c 0,45,46
 404 630 404 630 404 620 c 0,47,48
 403 599 403 599 351 547.5 c 128,-1,49
 299 496 299 496 225.5 432 c 128,-1,50
 152 368 152 368 78 299.5 c 128,-1,51
 4 231 4 231 -47.5 160 c 128,-1,52
 -99 89 -99 89 -99 39 c 0,53,54
 -99 -9.5 -99 -9.5 -63 -22.5 c 0,55,56
 -45 -29 -45 -29 -17 -29 c 0,57,58
 41 -29 41 -29 104 0.5 c 128,-1,59
 167 30 167 30 216 72 c 128,-1,60
 265 114 265 114 306 156.5 c 128,-1,61
 347 199 347 199 373 228.5 c 128,-1,62
 399 258 399 258 404 258 c 0,63,64
 406 258 406 258 406 257 c 0,65,66
 399 239 399 239 385.5 209 c 128,-1,67
 372 179 372 179 366.5 166 c 128,-1,68
 361 153 361 153 354 132 c 0,69,70
 342 96 342 96 342 53 c 128,-1,71
 342 10 342 10 355.5 -36.5 c 128,-1,72
 369 -83 369 -83 402 -119.5 c 128,-1,73
 435 -156 435 -156 481 -156 c 0,74,75
 488 -156 488 -156 488 -153 c 1,76,0
 474 -139 474 -139 461 -75.5 c 128,-1,1
782 828 m 1,77,78
 782 789.833333333 782 789.833333333 811 727 c 1,79,80
 810 715 810 715 780 715 c 0,81,82
 762 715 762 715 733.5 753.5 c 128,-1,83
 705 792 705 792 705 801 c 1,84,85
 664 768 664 768 597.5 742.5 c 128,-1,86
 531 717 531 717 498 717 c 0,87,88
 487 717 487 717 480.5 722 c 128,-1,89
 474 727 474 727 474 732 c 0,90,91
 474 751 474 751 487 751 c 1,92,93
 533 761 533 761 583.5 795.5 c 128,-1,94
 634 830 634 830 667 859.5 c 128,-1,95
 700 889 700 889 707.5 889 c 128,-1,96
 715 889 715 889 723.5 885.5 c 0,97,98
 742 877.882352941 742 877.882352941 742 875 c 1,99,100
 748 877 748 877 760 877 c 1,101,102
 789 874 789 874 789 859 c 1,103,-1
 782 828 l 1,77,78
EndSplineSet
EndChar

StartChar: Icircumflex
Encoding: 206 206 101
Width: 348
Flags: HMW
HStem: -61 21G<-116 -75> 701 20G<434.5 537> 755 172
VStem: -4 69<291.5 348 291.5 398.5> 571 38<603.5 651.5>
LayerCount: 2
Fore
SplineSet
306.5 427.5 m 128,-1,1
 321 453 321 453 321 458.5 c 128,-1,2
 321 464 321 464 314 465 c 128,-1,3
 307 466 307 466 297 456 c 0,4,5
 260 414 260 414 176.5 352 c 128,-1,6
 93 290 93 290 68 290 c 0,7,8
 65 290 65 290 65 292 c 0,9,10
 65 344 65 344 169 433.5 c 128,-1,11
 273 523 273 523 393 590 c 128,-1,12
 513 657 513 657 563 657 c 0,13,14
 571 657 571 657 571 649 c 0,15,16
 571 616 571 616 478 511 c 128,-1,17
 385 406 385 406 264 295 c 128,-1,18
 143 184 143 184 21 93.5 c 128,-1,19
 -101 3 -101 3 -152 -2 c 0,20,21
 -188 -6 -188 -6 -188 -19 c 0,22,23
 -188 -26 -188 -26 -178 -34 c 1,24,25
 -128 -61 -128 -61 -111 -61 c 0,26,27
 -79 -61 -79 -61 -38 -44 c 128,-1,28
 3 -27 3 -27 28 -9.5 c 2,29,-1
 53 8 l 2,30,31
 162 85 162 85 289 206 c 128,-1,32
 416 327 416 327 512.5 454 c 128,-1,33
 609 581 609 581 609 648 c 0,34,35
 609 721 609 721 515 721 c 0,36,37
 455 721 455 721 366 682 c 128,-1,38
 277 643 277 643 195 584.5 c 128,-1,39
 113 526 113 526 54.5 448.5 c 128,-1,40
 -4 371 -4 371 -4 303 c 0,41,42
 -4 274 -4 274 11 246 c 128,-1,43
 26 218 26 218 60.5 218 c 128,-1,44
 95 218 95 218 135 241.5 c 128,-1,45
 175 265 175 265 207 298.5 c 128,-1,46
 239 332 239 332 265.5 367 c 128,-1,0
 292 402 292 402 306.5 427.5 c 128,-1,1
657 866 m 1,47,48
 657 827.833333333 657 827.833333333 686 765 c 1,49,50
 685 753 685 753 655 753 c 0,51,52
 637 753 637 753 608.5 791.5 c 128,-1,53
 580 830 580 830 580 839 c 1,54,55
 539 806 539 806 472.5 780.5 c 128,-1,56
 406 755 406 755 373 755 c 0,57,58
 362 755 362 755 355.5 760 c 128,-1,59
 349 765 349 765 349 770 c 0,60,61
 349 789 349 789 362 789 c 1,62,63
 408 799 408 799 458.5 833.5 c 128,-1,64
 509 868 509 868 542 897.5 c 128,-1,65
 575 927 575 927 582.5 927 c 128,-1,66
 590 927 590 927 598.5 923.5 c 0,67,68
 617 915.882352941 617 915.882352941 617 913 c 1,69,70
 623 915 623 915 635 915 c 1,71,72
 664 912 664 912 664 897 c 1,73,-1
 657 866 l 1,47,48
EndSplineSet
EndChar

